<?xml version="1.0" encoding="utf-8" ?>
<svg baseProfile="full" height="6.0cm" version="1.1" width="17.3057226858cm" xmlns="http://www.w3.org/2000/svg" xmlns:ev="http://www.w3.org/2001/xml-events" xmlns:xlink="http://www.w3.org/1999/xlink"><defs /><g font-size="12"><text x="16.3057226858cm" y="5.0cm">37.8°</text><text x="0.0cm" y="5.0cm">37.8°</text><text x="16.3057226858cm" y="3.47975077882cm">50.0°</text><text x="0.0cm" y="3.47975077882cm">50.0°</text><text x="16.3057226858cm" y="2.23364485981cm">60.0°</text><text x="0.0cm" y="2.23364485981cm">60.0°</text><text x="16.3057226858cm" y="1.0cm">69.9°</text><text x="0.0cm" y="1.0cm">69.9°</text></g><g id="vertical" stroke="black"><line x1="8.65286134291cm" x2="8.65286134291cm" y1="1.0cm" y2="1.08cm" /><line x1="8.65286134291cm" x2="8.65286134291cm" y1="1.08cm" y2="1.16cm" /><line x1="8.65286134291cm" x2="8.65286134291cm" y1="1.16cm" y2="1.24cm" /><line x1="8.65286134291cm" x2="8.65286134291cm" y1="1.24cm" y2="1.32cm" /><line x1="8.65286134291cm" x2="8.65286134291cm" y1="1.32cm" y2="1.4cm" /><line x1="8.65286134291cm" x2="8.65286134291cm" y1="1.4cm" y2="1.48cm" /><line x1="8.65286134291cm" x2="8.65286134291cm" y1="1.48cm" y2="1.56cm" /><line x1="8.65286134291cm" x2="8.65286134291cm" y1="1.56cm" y2="1.64cm" /><line x1="8.65286134291cm" x2="8.65286134291cm" y1="1.64cm" y2="1.72cm" /><line x1="8.65286134291cm" x2="8.65286134291cm" y1="1.72cm" y2="1.8cm" /><line x1="8.65286134291cm" x2="8.65286134291cm" y1="1.8cm" y2="1.88cm" /><line x1="8.65286134291cm" x2="8.65286134291cm" y1="1.88cm" y2="1.96cm" /><line x1="8.65286134291cm" x2="8.65286134291cm" y1="1.96cm" y2="2.04cm" /><line x1="8.65286134291cm" x2="8.65286134291cm" y1="2.04cm" y2="2.12cm" /><line x1="8.65286134291cm" x2="8.65286134291cm" y1="2.12cm" y2="2.2cm" /><line x1="8.65286134291cm" x2="8.65286134291cm" y1="2.2cm" y2="2.28cm" /><line x1="8.65286134291cm" x2="8.65286134291cm" y1="2.28cm" y2="2.36cm" /><line x1="8.65286134291cm" x2="8.65286134291cm" y1="2.36cm" y2="2.44cm" /><line x1="8.65286134291cm" x2="8.65286134291cm" y1="2.44cm" y2="2.52cm" /><line x1="8.65286134291cm" x2="8.65286134291cm" y1="2.52cm" y2="2.6cm" /><line x1="8.65286134291cm" x2="8.65286134291cm" y1="2.6cm" y2="2.68cm" /><line x1="8.65286134291cm" x2="8.65286134291cm" y1="2.68cm" y2="2.76cm" /><line x1="8.65286134291cm" x2="8.65286134291cm" y1="2.76cm" y2="2.84cm" /><line x1="8.65286134291cm" x2="8.65286134291cm" y1="2.84cm" y2="2.92cm" /><line x1="8.65286134291cm" x2="8.65286134291cm" y1="2.92cm" y2="3.0cm" /><line x1="8.65286134291cm" x2="8.65286134291cm" y1="3.0cm" y2="3.08cm" /><line x1="8.65286134291cm" x2="8.65286134291cm" y1="3.08cm" y2="3.16cm" /><line x1="8.65286134291cm" x2="8.65286134291cm" y1="3.16cm" y2="3.24cm" /><line x1="8.65286134291cm" x2="8.65286134291cm" y1="3.24cm" y2="3.32cm" /><line x1="8.65286134291cm" x2="8.65286134291cm" y1="3.32cm" y2="3.4cm" /><line x1="8.65286134291cm" x2="8.65286134291cm" y1="3.4cm" y2="3.48cm" /><line x1="8.65286134291cm" x2="8.65286134291cm" y1="3.48cm" y2="3.56cm" /><line x1="8.65286134291cm" x2="8.65286134291cm" y1="3.56cm" y2="3.64cm" /><line x1="8.65286134291cm" x2="8.65286134291cm" y1="3.64cm" y2="3.72cm" /><line x1="8.65286134291cm" x2="8.65286134291cm" y1="3.72cm" y2="3.8cm" /><line x1="8.65286134291cm" x2="8.65286134291cm" y1="3.8cm" y2="3.88cm" /><line x1="8.65286134291cm" x2="8.65286134291cm" y1="3.88cm" y2="3.96cm" /><line x1="8.65286134291cm" x2="8.65286134291cm" y1="3.96cm" y2="4.04cm" /><line x1="8.65286134291cm" x2="8.65286134291cm" y1="4.04cm" y2="4.12cm" /><line x1="8.65286134291cm" x2="8.65286134291cm" y1="4.12cm" y2="4.2cm" /><line x1="8.65286134291cm" x2="8.65286134291cm" y1="4.2cm" y2="4.28cm" /><line x1="8.65286134291cm" x2="8.65286134291cm" y1="4.28cm" y2="4.36cm" /><line x1="8.65286134291cm" x2="8.65286134291cm" y1="4.36cm" y2="4.44cm" /><line x1="8.65286134291cm" x2="8.65286134291cm" y1="4.44cm" y2="4.52cm" /><line x1="8.65286134291cm" x2="8.65286134291cm" y1="4.52cm" y2="4.6cm" /><line x1="8.65286134291cm" x2="8.65286134291cm" y1="4.6cm" y2="4.68cm" /><line x1="8.65286134291cm" x2="8.65286134291cm" y1="4.68cm" y2="4.76cm" /><line x1="8.65286134291cm" x2="8.65286134291cm" y1="4.76cm" y2="4.84cm" /><line x1="8.65286134291cm" x2="8.65286134291cm" y1="4.84cm" y2="4.92cm" /><line x1="8.65286134291cm" x2="8.65286134291cm" y1="4.92cm" y2="5.0cm" /><line x1="16.3057226858cm" x2="16.2792161056cm" y1="5.0cm" y2="4.92cm" /><line x1="16.2792161056cm" x2="16.2535152836cm" y1="4.92cm" y2="4.84cm" /><line x1="16.2535152836cm" x2="16.2286228567cm" y1="4.84cm" y2="4.76cm" /><line x1="16.2286228567cm" x2="16.2045415623cm" y1="4.76cm" y2="4.68cm" /><line x1="16.2045415623cm" x2="16.1812742408cm" y1="4.68cm" y2="4.6cm" /><line x1="16.1812742408cm" x2="16.1588238377cm" y1="4.6cm" y2="4.52cm" /><line x1="16.1588238377cm" x2="16.1371934055cm" y1="4.52cm" y2="4.44cm" /><line x1="16.1371934055cm" x2="16.1163861061cm" y1="4.44cm" y2="4.36cm" /><line x1="16.1163861061cm" x2="16.096405212cm" y1="4.36cm" y2="4.28cm" /><line x1="16.096405212cm" x2="16.0772541082cm" y1="4.28cm" y2="4.2cm" /><line x1="16.0772541082cm" x2="16.0589362928cm" y1="4.2cm" y2="4.12cm" /><line x1="16.0589362928cm" x2="16.0414553776cm" y1="4.12cm" y2="4.04cm" /><line x1="16.0414553776cm" x2="16.0248150889cm" y1="4.04cm" y2="3.96cm" /><line x1="16.0248150889cm" x2="16.0090192659cm" y1="3.96cm" y2="3.88cm" /><line x1="16.0090192659cm" x2="15.9940718605cm" y1="3.88cm" y2="3.8cm" /><line x1="15.9940718605cm" x2="15.9799769349cm" y1="3.8cm" y2="3.72cm" /><line x1="15.9799769349cm" x2="15.9667386581cm" y1="3.72cm" y2="3.64cm" /><line x1="15.9667386581cm" x2="15.9543613024cm" y1="3.64cm" y2="3.56cm" /><line x1="15.9543613024cm" x2="15.9428492373cm" y1="3.56cm" y2="3.48cm" /><line x1="15.9428492373cm" x2="15.9322069226cm" y1="3.48cm" y2="3.4cm" /><line x1="15.9322069226cm" x2="15.9224388991cm" y1="3.4cm" y2="3.32cm" /><line x1="15.9224388991cm" x2="15.9135497773cm" y1="3.32cm" y2="3.24cm" /><line x1="15.9135497773cm" x2="15.9055442239cm" y1="3.24cm" y2="3.16cm" /><line x1="15.9055442239cm" x2="15.898426945cm" y1="3.16cm" y2="3.08cm" /><line x1="15.898426945cm" x2="15.8922026657cm" y1="3.08cm" y2="3.0cm" /><line x1="15.8922026657cm" x2="15.8868761063cm" y1="3.0cm" y2="2.92cm" /><line x1="15.8868761063cm" x2="15.8824519534cm" y1="2.92cm" y2="2.84cm" /><line x1="15.8824519534cm" x2="15.8789348264cm" y1="2.84cm" y2="2.76cm" /><line x1="15.8789348264cm" x2="15.8763292369cm" y1="2.76cm" y2="2.68cm" /><line x1="15.8763292369cm" x2="15.8746395419cm" y1="2.68cm" y2="2.6cm" /><line x1="15.8746395419cm" x2="15.8738698886cm" y1="2.6cm" y2="2.52cm" /><line x1="15.8738698886cm" x2="15.8740241499cm" y1="2.52cm" y2="2.44cm" /><line x1="15.8740241499cm" x2="15.875105849cm" y1="2.44cm" y2="2.36cm" /><line x1="15.875105849cm" x2="15.8771180716cm" y1="2.36cm" y2="2.28cm" /><line x1="15.8771180716cm" x2="15.8800633647cm" y1="2.28cm" y2="2.2cm" /><line x1="15.8800633647cm" x2="15.883943618cm" y1="2.2cm" y2="2.12cm" /><line x1="15.883943618cm" x2="15.8887599277cm" y1="2.12cm" y2="2.04cm" /><line x1="15.8887599277cm" x2="15.8945124389cm" y1="2.04cm" y2="1.96cm" /><line x1="15.8945124389cm" x2="15.9012001642cm" y1="1.96cm" y2="1.88cm" /><line x1="15.9012001642cm" x2="15.9088207744cm" y1="1.88cm" y2="1.8cm" /><line x1="15.9088207744cm" x2="15.9173703596cm" y1="1.8cm" y2="1.72cm" /><line x1="15.9173703596cm" x2="15.9268431549cm" y1="1.72cm" y2="1.64cm" /><line x1="15.9268431549cm" x2="15.9372312278cm" y1="1.64cm" y2="1.56cm" /><line x1="15.9372312278cm" x2="15.9485241226cm" y1="1.56cm" y2="1.48cm" /><line x1="15.9485241226cm" x2="15.9607084576cm" y1="1.48cm" y2="1.4cm" /><line x1="15.9607084576cm" x2="15.9737674704cm" y1="1.4cm" y2="1.32cm" /><line x1="15.9737674704cm" x2="15.9876805076cm" y1="1.32cm" y2="1.24cm" /><line x1="15.9876805076cm" x2="16.002422455cm" y1="1.24cm" y2="1.16cm" /><line x1="16.002422455cm" x2="16.0179631059cm" y1="1.16cm" y2="1.08cm" /><line x1="16.0179631059cm" x2="16.0342664671cm" y1="1.08cm" y2="1.0cm" /><line x1="1.0cm" x2="1.02650658017cm" y1="5.0cm" y2="4.92cm" /><line x1="1.02650658017cm" x2="1.0522074022cm" y1="4.92cm" y2="4.84cm" /><line x1="1.0522074022cm" x2="1.07709982912cm" y1="4.84cm" y2="4.76cm" /><line x1="1.07709982912cm" x2="1.10118112348cm" y1="4.76cm" y2="4.68cm" /><line x1="1.10118112348cm" x2="1.12444844496cm" y1="4.68cm" y2="4.6cm" /><line x1="1.12444844496cm" x2="1.14689884813cm" y1="4.6cm" y2="4.52cm" /><line x1="1.14689884813cm" x2="1.16852928033cm" y1="4.52cm" y2="4.44cm" /><line x1="1.16852928033cm" x2="1.18933657976cm" y1="4.44cm" y2="4.36cm" /><line x1="1.18933657976cm" x2="1.20931747379cm" y1="4.36cm" y2="4.28cm" /><line x1="1.20931747379cm" x2="1.22846857759cm" y1="4.28cm" y2="4.2cm" /><line x1="1.22846857759cm" x2="1.24678639304cm" y1="4.2cm" y2="4.12cm" /><line x1="1.24678639304cm" x2="1.26426730816cm" y1="4.12cm" y2="4.04cm" /><line x1="1.26426730816cm" x2="1.28090759696cm" y1="4.04cm" y2="3.96cm" /><line x1="1.28090759696cm" x2="1.29670341992cm" y1="3.96cm" y2="3.88cm" /><line x1="1.29670341992cm" x2="1.31165082527cm" y1="3.88cm" y2="3.8cm" /><line x1="1.31165082527cm" x2="1.32574575095cm" y1="3.8cm" y2="3.72cm" /><line x1="1.32574575095cm" x2="1.33898402773cm" y1="3.72cm" y2="3.64cm" /><line x1="1.33898402773cm" x2="1.35136138343cm" y1="3.64cm" y2="3.56cm" /><line x1="1.35136138343cm" x2="1.36287344849cm" y1="3.56cm" y2="3.48cm" /><line x1="1.36287344849cm" x2="1.37351576319cm" y1="3.48cm" y2="3.4cm" /><line x1="1.37351576319cm" x2="1.38328378675cm" y1="3.4cm" y2="3.32cm" /><line x1="1.38328378675cm" x2="1.39217290854cm" y1="3.32cm" y2="3.24cm" /><line x1="1.39217290854cm" x2="1.40017846189cm" y1="3.24cm" y2="3.16cm" /><line x1="1.40017846189cm" x2="1.4072957408cm" y1="3.16cm" y2="3.08cm" /><line x1="1.4072957408cm" x2="1.41352002011cm" y1="3.08cm" y2="3.0cm" /><line x1="1.41352002011cm" x2="1.41884657953cm" y1="3.0cm" y2="2.92cm" /><line x1="1.41884657953cm" x2="1.42327073236cm" y1="2.92cm" y2="2.84cm" /><line x1="1.42327073236cm" x2="1.42678785937cm" y1="2.84cm" y2="2.76cm" /><line x1="1.42678785937cm" x2="1.42939344891cm" y1="2.76cm" y2="2.68cm" /><line x1="1.42939344891cm" x2="1.43108314391cm" y1="2.68cm" y2="2.6cm" /><line x1="1.43108314391cm" x2="1.43185279719cm" y1="2.6cm" y2="2.52cm" /><line x1="1.43185279719cm" x2="1.43169853589cm" y1="2.52cm" y2="2.44cm" /><line x1="1.43169853589cm" x2="1.43061683685cm" y1="2.44cm" y2="2.36cm" /><line x1="1.43061683685cm" x2="1.4286046142cm" y1="2.36cm" y2="2.28cm" /><line x1="1.4286046142cm" x2="1.42565932112cm" y1="2.28cm" y2="2.2cm" /><line x1="1.42565932112cm" x2="1.42177906785cm" y1="2.2cm" y2="2.12cm" /><line x1="1.42177906785cm" x2="1.41696275814cm" y1="2.12cm" y2="2.04cm" /><line x1="1.41696275814cm" x2="1.41121024688cm" y1="2.04cm" y2="1.96cm" /><line x1="1.41121024688cm" x2="1.40452252163cm" y1="1.96cm" y2="1.88cm" /><line x1="1.40452252163cm" x2="1.39690191141cm" y1="1.88cm" y2="1.8cm" /><line x1="1.39690191141cm" x2="1.38835232618cm" y1="1.8cm" y2="1.72cm" /><line x1="1.38835232618cm" x2="1.37887953087cm" y1="1.72cm" y2="1.64cm" /><line x1="1.37887953087cm" x2="1.36849145798cm" y1="1.64cm" y2="1.56cm" /><line x1="1.36849145798cm" x2="1.35719856319cm" y1="1.56cm" y2="1.48cm" /><line x1="1.35719856319cm" x2="1.34501422821cm" y1="1.48cm" y2="1.4cm" /><line x1="1.34501422821cm" x2="1.33195521539cm" y1="1.4cm" y2="1.32cm" /><line x1="1.33195521539cm" x2="1.31804217819cm" y1="1.32cm" y2="1.24cm" /><line x1="1.31804217819cm" x2="1.30330023081cm" y1="1.24cm" y2="1.16cm" /><line x1="1.30330023081cm" x2="1.28775957988cm" y1="1.16cm" y2="1.08cm" /><line x1="1.28775957988cm" x2="1.27145621872cm" y1="1.08cm" y2="1.0cm" /><line x1="13.7547689048cm" x2="13.7370978514cm" y1="5.0cm" y2="4.92cm" /><line x1="13.7370978514cm" x2="13.71996397cm" y1="4.92cm" y2="4.84cm" /><line x1="13.71996397cm" x2="13.7033690188cm" y1="4.84cm" y2="4.76cm" /><line x1="13.7033690188cm" x2="13.6873148225cm" y1="4.76cm" y2="4.68cm" /><line x1="13.6873148225cm" x2="13.6718032749cm" y1="4.68cm" y2="4.6cm" /><line x1="13.6718032749cm" x2="13.6568363394cm" y1="4.6cm" y2="4.52cm" /><line x1="13.6568363394cm" x2="13.6424160513cm" y1="4.52cm" y2="4.44cm" /><line x1="13.6424160513cm" x2="13.6285445183cm" y1="4.44cm" y2="4.36cm" /><line x1="13.6285445183cm" x2="13.6152239223cm" y1="4.36cm" y2="4.28cm" /><line x1="13.6152239223cm" x2="13.6024565198cm" y1="4.28cm" y2="4.2cm" /><line x1="13.6024565198cm" x2="13.5902446428cm" y1="4.2cm" y2="4.12cm" /><line x1="13.5902446428cm" x2="13.5785906994cm" y1="4.12cm" y2="4.04cm" /><line x1="13.5785906994cm" x2="13.5674971735cm" y1="4.04cm" y2="3.96cm" /><line x1="13.5674971735cm" x2="13.5569666249cm" y1="3.96cm" y2="3.88cm" /><line x1="13.5569666249cm" x2="13.547001688cm" y1="3.88cm" y2="3.8cm" /><line x1="13.547001688cm" x2="13.5376050709cm" y1="3.8cm" y2="3.72cm" /><line x1="13.5376050709cm" x2="13.528779553cm" y1="3.72cm" y2="3.64cm" /><line x1="13.528779553cm" x2="13.5205279826cm" y1="3.64cm" y2="3.56cm" /><line x1="13.5205279826cm" x2="13.5128532725cm" y1="3.56cm" y2="3.48cm" /><line x1="13.5128532725cm" x2="13.505758396cm" y1="3.48cm" y2="3.4cm" /><line x1="13.505758396cm" x2="13.4992463803cm" y1="3.4cm" y2="3.32cm" /><line x1="13.4992463803cm" x2="13.4933202991cm" y1="3.32cm" y2="3.24cm" /><line x1="13.4933202991cm" x2="13.4879832636cm" y1="3.24cm" y2="3.16cm" /><line x1="13.4879832636cm" x2="13.483238411cm" y1="3.16cm" y2="3.08cm" /><line x1="13.483238411cm" x2="13.4790888914cm" y1="3.08cm" y2="3.0cm" /><line x1="13.4790888914cm" x2="13.4755378518cm" y1="3.0cm" y2="2.92cm" /><line x1="13.4755378518cm" x2="13.4725884166cm" y1="2.92cm" y2="2.84cm" /><line x1="13.4725884166cm" x2="13.4702436653cm" y1="2.84cm" y2="2.76cm" /><line x1="13.4702436653cm" x2="13.4685066056cm" y1="2.76cm" y2="2.68cm" /><line x1="13.4685066056cm" x2="13.4673801422cm" y1="2.68cm" y2="2.6cm" /><line x1="13.4673801422cm" x2="13.4668670401cm" y1="2.6cm" y2="2.52cm" /><line x1="13.4668670401cm" x2="13.4669698809cm" y1="2.52cm" y2="2.44cm" /><line x1="13.4669698809cm" x2="13.4676910136cm" y1="2.44cm" y2="2.36cm" /><line x1="13.4676910136cm" x2="13.4690324954cm" y1="2.36cm" y2="2.28cm" /><line x1="13.4690324954cm" x2="13.4709960241cm" y1="2.28cm" y2="2.2cm" /><line x1="13.4709960241cm" x2="13.4735828596cm" y1="2.2cm" y2="2.12cm" /><line x1="13.4735828596cm" x2="13.4767937327cm" y1="2.12cm" y2="2.04cm" /><line x1="13.4767937327cm" x2="13.4806287403cm" y1="2.04cm" y2="1.96cm" /><line x1="13.4806287403cm" x2="13.4850872238cm" y1="1.96cm" y2="1.88cm" /><line x1="13.4850872238cm" x2="13.4901676306cm" y1="1.88cm" y2="1.8cm" /><line x1="13.4901676306cm" x2="13.4958673541cm" y1="1.8cm" y2="1.72cm" /><line x1="13.4958673541cm" x2="13.5021825509cm" y1="1.72cm" y2="1.64cm" /><line x1="13.5021825509cm" x2="13.5091079329cm" y1="1.64cm" y2="1.56cm" /><line x1="13.5091079329cm" x2="13.5166365294cm" y1="1.56cm" y2="1.48cm" /><line x1="13.5166365294cm" x2="13.5247594194cm" y1="1.48cm" y2="1.4cm" /><line x1="13.5247594194cm" x2="13.5334654279cm" y1="1.4cm" y2="1.32cm" /><line x1="13.5334654279cm" x2="13.5427407861cm" y1="1.32cm" y2="1.24cm" /><line x1="13.5427407861cm" x2="13.552568751cm" y1="1.24cm" y2="1.16cm" /><line x1="13.552568751cm" x2="13.5629291849cm" y1="1.16cm" y2="1.08cm" /><line x1="13.5629291849cm" x2="13.5737980924cm" y1="1.08cm" y2="1.0cm" /><line x1="3.55095378097cm" x2="3.56862483442cm" y1="5.0cm" y2="4.92cm" /><line x1="3.56862483442cm" x2="3.58575871577cm" y1="4.92cm" y2="4.84cm" /><line x1="3.58575871577cm" x2="3.60235366705cm" y1="4.84cm" y2="4.76cm" /><line x1="3.60235366705cm" x2="3.61840786329cm" y1="4.76cm" y2="4.68cm" /><line x1="3.61840786329cm" x2="3.63391941094cm" y1="4.68cm" y2="4.6cm" /><line x1="3.63391941094cm" x2="3.64888634639cm" y1="4.6cm" y2="4.52cm" /><line x1="3.64888634639cm" x2="3.66330663452cm" y1="4.52cm" y2="4.44cm" /><line x1="3.66330663452cm" x2="3.67717816748cm" y1="4.44cm" y2="4.36cm" /><line x1="3.67717816748cm" x2="3.6904987635cm" y1="4.36cm" y2="4.28cm" /><line x1="3.6904987635cm" x2="3.70326616603cm" y1="4.28cm" y2="4.2cm" /><line x1="3.70326616603cm" x2="3.715478043cm" y1="4.2cm" y2="4.12cm" /><line x1="3.715478043cm" x2="3.72713198641cm" y1="4.12cm" y2="4.04cm" /><line x1="3.72713198641cm" x2="3.73822551227cm" y1="4.04cm" y2="3.96cm" /><line x1="3.73822551227cm" x2="3.74875606092cm" y1="3.96cm" y2="3.88cm" /><line x1="3.74875606092cm" x2="3.75872099781cm" y1="3.88cm" y2="3.8cm" /><line x1="3.75872099781cm" x2="3.76811761493cm" y1="3.8cm" y2="3.72cm" /><line x1="3.76811761493cm" x2="3.77694313279cm" y1="3.72cm" y2="3.64cm" /><line x1="3.77694313279cm" x2="3.78519470326cm" y1="3.64cm" y2="3.56cm" /><line x1="3.78519470326cm" x2="3.79286941329cm" y1="3.56cm" y2="3.48cm" /><line x1="3.79286941329cm" x2="3.79996428976cm" y1="3.48cm" y2="3.4cm" /><line x1="3.79996428976cm" x2="3.80647630547cm" y1="3.4cm" y2="3.32cm" /><line x1="3.80647630547cm" x2="3.81240238666cm" y1="3.32cm" y2="3.24cm" /><line x1="3.81240238666cm" x2="3.81773942223cm" y1="3.24cm" y2="3.16cm" /><line x1="3.81773942223cm" x2="3.82248427484cm" y1="3.16cm" y2="3.08cm" /><line x1="3.82248427484cm" x2="3.82663379437cm" y1="3.08cm" y2="3.0cm" /><line x1="3.82663379437cm" x2="3.83018483399cm" y1="3.0cm" y2="2.92cm" /><line x1="3.83018483399cm" x2="3.83313426921cm" y1="2.92cm" y2="2.84cm" /><line x1="3.83313426921cm" x2="3.83547902055cm" y1="2.84cm" y2="2.76cm" /><line x1="3.83547902055cm" x2="3.83721608024cm" y1="2.76cm" y2="2.68cm" /><line x1="3.83721608024cm" x2="3.83834254358cm" y1="2.68cm" y2="2.6cm" /><line x1="3.83834254358cm" x2="3.83885564576cm" y1="2.6cm" y2="2.52cm" /><line x1="3.83885564576cm" x2="3.83875280489cm" y1="2.52cm" y2="2.44cm" /><line x1="3.83875280489cm" x2="3.8380316722cm" y1="2.44cm" y2="2.36cm" /><line x1="3.8380316722cm" x2="3.83669019044cm" y1="2.36cm" y2="2.28cm" /><line x1="3.83669019044cm" x2="3.83472666172cm" y1="2.28cm" y2="2.2cm" /><line x1="3.83472666172cm" x2="3.8321398262cm" y1="2.2cm" y2="2.12cm" /><line x1="3.8321398262cm" x2="3.82892895306cm" y1="2.12cm" y2="2.04cm" /><line x1="3.82892895306cm" x2="3.82509394556cm" y1="2.04cm" y2="1.96cm" /><line x1="3.82509394556cm" x2="3.82063546206cm" y1="1.96cm" y2="1.88cm" /><line x1="3.82063546206cm" x2="3.81555505524cm" y1="1.88cm" y2="1.8cm" /><line x1="3.81555505524cm" x2="3.80985533176cm" y1="1.8cm" y2="1.72cm" /><line x1="3.80985533176cm" x2="3.80354013488cm" y1="1.72cm" y2="1.64cm" /><line x1="3.80354013488cm" x2="3.79661475296cm" y1="1.64cm" y2="1.56cm" /><line x1="3.79661475296cm" x2="3.78908615643cm" y1="1.56cm" y2="1.48cm" /><line x1="3.78908615643cm" x2="3.78096326644cm" y1="1.48cm" y2="1.4cm" /><line x1="3.78096326644cm" x2="3.7722572579cm" y1="1.4cm" y2="1.32cm" /><line x1="3.7722572579cm" x2="3.76298189976cm" y1="1.32cm" y2="1.24cm" /><line x1="3.76298189976cm" x2="3.75315393484cm" y1="1.24cm" y2="1.16cm" /><line x1="3.75315393484cm" x2="3.74279350089cm" y1="1.16cm" y2="1.08cm" /><line x1="3.74279350089cm" x2="3.73192459345cm" y1="1.08cm" y2="1.0cm" /><line x1="11.2038151239cm" x2="11.1949795971cm" y1="5.0cm" y2="4.92cm" /><line x1="11.1949795971cm" x2="11.1864126565cm" y1="4.92cm" y2="4.84cm" /><line x1="11.1864126565cm" x2="11.1781151808cm" y1="4.84cm" y2="4.76cm" /><line x1="11.1781151808cm" x2="11.1700880827cm" y1="4.76cm" y2="4.68cm" /><line x1="11.1700880827cm" x2="11.1623323089cm" y1="4.68cm" y2="4.6cm" /><line x1="11.1623323089cm" x2="11.1548488412cm" y1="4.6cm" y2="4.52cm" /><line x1="11.1548488412cm" x2="11.1476386971cm" y1="4.52cm" y2="4.44cm" /><line x1="11.1476386971cm" x2="11.1407029306cm" y1="4.44cm" y2="4.36cm" /><line x1="11.1407029306cm" x2="11.1340426326cm" y1="4.36cm" y2="4.28cm" /><line x1="11.1340426326cm" x2="11.1276589313cm" y1="4.28cm" y2="4.2cm" /><line x1="11.1276589313cm" x2="11.1215529929cm" y1="4.2cm" y2="4.12cm" /><line x1="11.1215529929cm" x2="11.1157260212cm" y1="4.12cm" y2="4.04cm" /><line x1="11.1157260212cm" x2="11.1101792582cm" y1="4.04cm" y2="3.96cm" /><line x1="11.1101792582cm" x2="11.1049139839cm" y1="3.96cm" y2="3.88cm" /><line x1="11.1049139839cm" x2="11.0999315155cm" y1="3.88cm" y2="3.8cm" /><line x1="11.0999315155cm" x2="11.0952332069cm" y1="3.8cm" y2="3.72cm" /><line x1="11.0952332069cm" x2="11.090820448cm" y1="3.72cm" y2="3.64cm" /><line x1="11.090820448cm" x2="11.0866946627cm" y1="3.64cm" y2="3.56cm" /><line x1="11.0866946627cm" x2="11.0828573077cm" y1="3.56cm" y2="3.48cm" /><line x1="11.0828573077cm" x2="11.0793098695cm" y1="3.48cm" y2="3.4cm" /><line x1="11.0793098695cm" x2="11.0760538616cm" y1="3.4cm" y2="3.32cm" /><line x1="11.0760538616cm" x2="11.073090821cm" y1="3.32cm" y2="3.24cm" /><line x1="11.073090821cm" x2="11.0704223032cm" y1="3.24cm" y2="3.16cm" /><line x1="11.0704223032cm" x2="11.0680498769cm" y1="3.16cm" y2="3.08cm" /><line x1="11.0680498769cm" x2="11.0659751172cm" y1="3.08cm" y2="3.0cm" /><line x1="11.0659751172cm" x2="11.0641995974cm" y1="3.0cm" y2="2.92cm" /><line x1="11.0641995974cm" x2="11.0627248798cm" y1="2.92cm" y2="2.84cm" /><line x1="11.0627248798cm" x2="11.0615525041cm" y1="2.84cm" y2="2.76cm" /><line x1="11.0615525041cm" x2="11.0606839742cm" y1="2.76cm" y2="2.68cm" /><line x1="11.0606839742cm" x2="11.0601207426cm" y1="2.68cm" y2="2.6cm" /><line x1="11.0601207426cm" x2="11.0598641915cm" y1="2.6cm" y2="2.52cm" /><line x1="11.0598641915cm" x2="11.0599156119cm" y1="2.52cm" y2="2.44cm" /><line x1="11.0599156119cm" x2="11.0602761783cm" y1="2.44cm" y2="2.36cm" /><line x1="11.0602761783cm" x2="11.0609469191cm" y1="2.36cm" y2="2.28cm" /><line x1="11.0609469191cm" x2="11.0619286835cm" y1="2.28cm" y2="2.2cm" /><line x1="11.0619286835cm" x2="11.0632221013cm" y1="2.2cm" y2="2.12cm" /><line x1="11.0632221013cm" x2="11.0648275378cm" y1="2.12cm" y2="2.04cm" /><line x1="11.0648275378cm" x2="11.0667450416cm" y1="2.04cm" y2="1.96cm" /><line x1="11.0667450416cm" x2="11.0689742833cm" y1="1.96cm" y2="1.88cm" /><line x1="11.0689742833cm" x2="11.0715144867cm" y1="1.88cm" y2="1.8cm" /><line x1="11.0715144867cm" x2="11.0743643485cm" y1="1.8cm" y2="1.72cm" /><line x1="11.0743643485cm" x2="11.0775219469cm" y1="1.72cm" y2="1.64cm" /><line x1="11.0775219469cm" x2="11.0809846379cm" y1="1.64cm" y2="1.56cm" /><line x1="11.0809846379cm" x2="11.0847489361cm" y1="1.56cm" y2="1.48cm" /><line x1="11.0847489361cm" x2="11.0888103811cm" y1="1.48cm" y2="1.4cm" /><line x1="11.0888103811cm" x2="11.0931633854cm" y1="1.4cm" y2="1.32cm" /><line x1="11.0931633854cm" x2="11.0978010645cm" y1="1.32cm" y2="1.24cm" /><line x1="11.0978010645cm" x2="11.1027150469cm" y1="1.24cm" y2="1.16cm" /><line x1="11.1027150469cm" x2="11.1078952639cm" y1="1.16cm" y2="1.08cm" /><line x1="11.1078952639cm" x2="11.1133297176cm" y1="1.08cm" y2="1.0cm" /><line x1="6.10190756194cm" x2="6.11074308866cm" y1="5.0cm" y2="4.92cm" /><line x1="6.11074308866cm" x2="6.11931002934cm" y1="4.92cm" y2="4.84cm" /><line x1="6.11931002934cm" x2="6.12760750498cm" y1="4.84cm" y2="4.76cm" /><line x1="6.12760750498cm" x2="6.1356346031cm" y1="4.76cm" y2="4.68cm" /><line x1="6.1356346031cm" x2="6.14339037692cm" y1="4.68cm" y2="4.6cm" /><line x1="6.14339037692cm" x2="6.15087384465cm" y1="4.6cm" y2="4.52cm" /><line x1="6.15087384465cm" x2="6.15808398871cm" y1="4.52cm" y2="4.44cm" /><line x1="6.15808398871cm" x2="6.16501975519cm" y1="4.44cm" y2="4.36cm" /><line x1="6.16501975519cm" x2="6.1716800532cm" y1="4.36cm" y2="4.28cm" /><line x1="6.1716800532cm" x2="6.17806375447cm" y1="4.28cm" y2="4.2cm" /><line x1="6.17806375447cm" x2="6.18416969295cm" y1="4.2cm" y2="4.12cm" /><line x1="6.18416969295cm" x2="6.18999666466cm" y1="4.12cm" y2="4.04cm" /><line x1="6.18999666466cm" x2="6.19554342759cm" y1="4.04cm" y2="3.96cm" /><line x1="6.19554342759cm" x2="6.20080870191cm" y1="3.96cm" y2="3.88cm" /><line x1="6.20080870191cm" x2="6.20579117036cm" y1="3.88cm" y2="3.8cm" /><line x1="6.20579117036cm" x2="6.21048947892cm" y1="3.8cm" y2="3.72cm" /><line x1="6.21048947892cm" x2="6.21490223785cm" y1="3.72cm" y2="3.64cm" /><line x1="6.21490223785cm" x2="6.21902802308cm" y1="3.64cm" y2="3.56cm" /><line x1="6.21902802308cm" x2="6.2228653781cm" y1="3.56cm" y2="3.48cm" /><line x1="6.2228653781cm" x2="6.22641281633cm" y1="3.48cm" y2="3.4cm" /><line x1="6.22641281633cm" x2="6.22966882419cm" y1="3.4cm" y2="3.32cm" /><line x1="6.22966882419cm" x2="6.23263186478cm" y1="3.32cm" y2="3.24cm" /><line x1="6.23263186478cm" x2="6.23530038257cm" y1="3.24cm" y2="3.16cm" /><line x1="6.23530038257cm" x2="6.23767280887cm" y1="3.16cm" y2="3.08cm" /><line x1="6.23767280887cm" x2="6.23974756864cm" y1="3.08cm" y2="3.0cm" /><line x1="6.23974756864cm" x2="6.24152308845cm" y1="3.0cm" y2="2.92cm" /><line x1="6.24152308845cm" x2="6.24299780606cm" y1="2.92cm" y2="2.84cm" /><line x1="6.24299780606cm" x2="6.24417018173cm" y1="2.84cm" y2="2.76cm" /><line x1="6.24417018173cm" x2="6.24503871157cm" y1="2.76cm" y2="2.68cm" /><line x1="6.24503871157cm" x2="6.24560194324cm" y1="2.68cm" y2="2.6cm" /><line x1="6.24560194324cm" x2="6.24585849433cm" y1="2.6cm" y2="2.52cm" /><line x1="6.24585849433cm" x2="6.2458070739cm" y1="2.52cm" y2="2.44cm" /><line x1="6.2458070739cm" x2="6.24544650755cm" y1="2.44cm" y2="2.36cm" /><line x1="6.24544650755cm" x2="6.24477576667cm" y1="2.36cm" y2="2.28cm" /><line x1="6.24477576667cm" x2="6.24379400231cm" y1="2.28cm" y2="2.2cm" /><line x1="6.24379400231cm" x2="6.24250058455cm" y1="2.2cm" y2="2.12cm" /><line x1="6.24250058455cm" x2="6.24089514798cm" y1="2.12cm" y2="2.04cm" /><line x1="6.24089514798cm" x2="6.23897764423cm" y1="2.04cm" y2="1.96cm" /><line x1="6.23897764423cm" x2="6.23674840248cm" y1="1.96cm" y2="1.88cm" /><line x1="6.23674840248cm" x2="6.23420819907cm" y1="1.88cm" y2="1.8cm" /><line x1="6.23420819907cm" x2="6.23135833733cm" y1="1.8cm" y2="1.72cm" /><line x1="6.23135833733cm" x2="6.22820073889cm" y1="1.72cm" y2="1.64cm" /><line x1="6.22820073889cm" x2="6.22473804793cm" y1="1.64cm" y2="1.56cm" /><line x1="6.22473804793cm" x2="6.22097374967cm" y1="1.56cm" y2="1.48cm" /><line x1="6.22097374967cm" x2="6.21691230467cm" y1="1.48cm" y2="1.4cm" /><line x1="6.21691230467cm" x2="6.2125593004cm" y1="1.4cm" y2="1.32cm" /><line x1="6.2125593004cm" x2="6.20792162133cm" y1="1.32cm" y2="1.24cm" /><line x1="6.20792162133cm" x2="6.20300763887cm" y1="1.24cm" y2="1.16cm" /><line x1="6.20300763887cm" x2="6.1978274219cm" y1="1.16cm" y2="1.08cm" /><line x1="6.1978274219cm" x2="6.19239296818cm" y1="1.08cm" y2="1.0cm" /><line x1="9.92833823339cm" x2="9.92392047003cm" y1="5.0cm" y2="4.92cm" /><line x1="9.92392047003cm" x2="9.91963699969cm" y1="4.92cm" y2="4.84cm" /><line x1="9.91963699969cm" x2="9.91548826187cm" y1="4.84cm" y2="4.76cm" /><line x1="9.91548826187cm" x2="9.91147471281cm" y1="4.76cm" y2="4.68cm" /><line x1="9.91147471281cm" x2="9.9075968259cm" y1="4.68cm" y2="4.6cm" /><line x1="9.9075968259cm" x2="9.90385509203cm" y1="4.6cm" y2="4.52cm" /><line x1="9.90385509203cm" x2="9.90025002cm" y1="4.52cm" y2="4.44cm" /><line x1="9.90025002cm" x2="9.89678213676cm" y1="4.44cm" y2="4.36cm" /><line x1="9.89678213676cm" x2="9.89345198776cm" y1="4.36cm" y2="4.28cm" /><line x1="9.89345198776cm" x2="9.89026013712cm" y1="4.28cm" y2="4.2cm" /><line x1="9.89026013712cm" x2="9.88720716788cm" y1="4.2cm" y2="4.12cm" /><line x1="9.88720716788cm" x2="9.88429368203cm" y1="4.12cm" y2="4.04cm" /><line x1="9.88429368203cm" x2="9.88152030056cm" y1="4.04cm" y2="3.96cm" /><line x1="9.88152030056cm" x2="9.8788876634cm" y1="3.96cm" y2="3.88cm" /><line x1="9.8788876634cm" x2="9.87639642918cm" y1="3.88cm" y2="3.8cm" /><line x1="9.87639642918cm" x2="9.8740472749cm" y1="3.8cm" y2="3.72cm" /><line x1="9.8740472749cm" x2="9.87184089543cm" y1="3.72cm" y2="3.64cm" /><line x1="9.87184089543cm" x2="9.86977800282cm" y1="3.64cm" y2="3.56cm" /><line x1="9.86977800282cm" x2="9.86785932531cm" y1="3.56cm" y2="3.48cm" /><line x1="9.86785932531cm" x2="9.86608560619cm" y1="3.48cm" y2="3.4cm" /><line x1="9.86608560619cm" x2="9.86445760226cm" y1="3.4cm" y2="3.32cm" /><line x1="9.86445760226cm" x2="9.86297608197cm" y1="3.32cm" y2="3.24cm" /><line x1="9.86297608197cm" x2="9.86164182307cm" y1="3.24cm" y2="3.16cm" /><line x1="9.86164182307cm" x2="9.86045560992cm" y1="3.16cm" y2="3.08cm" /><line x1="9.86045560992cm" x2="9.85941823004cm" y1="3.08cm" y2="3.0cm" /><line x1="9.85941823004cm" x2="9.85853047013cm" y1="3.0cm" y2="2.92cm" /><line x1="9.85853047013cm" x2="9.85779311133cm" y1="2.92cm" y2="2.84cm" /><line x1="9.85779311133cm" x2="9.85720692349cm" y1="2.84cm" y2="2.76cm" /><line x1="9.85720692349cm" x2="9.85677265857cm" y1="2.76cm" y2="2.68cm" /><line x1="9.85677265857cm" x2="9.85649104274cm" y1="2.68cm" y2="2.6cm" /><line x1="9.85649104274cm" x2="9.85636276719cm" y1="2.6cm" y2="2.52cm" /><line x1="9.85636276719cm" x2="9.85638847741cm" y1="2.52cm" y2="2.44cm" /><line x1="9.85638847741cm" x2="9.85656876058cm" y1="2.44cm" y2="2.36cm" /><line x1="9.85656876058cm" x2="9.85690413102cm" y1="2.36cm" y2="2.28cm" /><line x1="9.85690413102cm" x2="9.8573950132cm" y1="2.28cm" y2="2.2cm" /><line x1="9.8573950132cm" x2="9.85804172208cm" y1="2.2cm" y2="2.12cm" /><line x1="9.85804172208cm" x2="9.85884444037cm" y1="2.12cm" y2="2.04cm" /><line x1="9.85884444037cm" x2="9.85980319224cm" y1="2.04cm" y2="1.96cm" /><line x1="9.85980319224cm" x2="9.86091781312cm" y1="1.96cm" y2="1.88cm" /><line x1="9.86091781312cm" x2="9.86218791482cm" y1="1.88cm" y2="1.8cm" /><line x1="9.86218791482cm" x2="9.86361284569cm" y1="1.8cm" y2="1.72cm" /><line x1="9.86361284569cm" x2="9.86519164491cm" y1="1.72cm" y2="1.64cm" /><line x1="9.86519164491cm" x2="9.86692299039cm" y1="1.64cm" y2="1.56cm" /><line x1="9.86692299039cm" x2="9.86880513952cm" y1="1.56cm" y2="1.48cm" /><line x1="9.86880513952cm" x2="9.87083586202cm" y1="1.48cm" y2="1.4cm" /><line x1="9.87083586202cm" x2="9.87301236416cm" y1="1.4cm" y2="1.32cm" /><line x1="9.87301236416cm" x2="9.87533120369cm" y1="1.32cm" y2="1.24cm" /><line x1="9.87533120369cm" x2="9.87778819492cm" y1="1.24cm" y2="1.16cm" /><line x1="9.87778819492cm" x2="9.88037830341cm" y1="1.16cm" y2="1.08cm" /><line x1="9.88037830341cm" x2="9.88309553027cm" y1="1.08cm" y2="1.0cm" /><line x1="7.37738445242cm" x2="7.38180221578cm" y1="5.0cm" y2="4.92cm" /><line x1="7.38180221578cm" x2="7.38608568612cm" y1="4.92cm" y2="4.84cm" /><line x1="7.38608568612cm" x2="7.39023442394cm" y1="4.84cm" y2="4.76cm" /><line x1="7.39023442394cm" x2="7.394247973cm" y1="4.76cm" y2="4.68cm" /><line x1="7.394247973cm" x2="7.39812585991cm" y1="4.68cm" y2="4.6cm" /><line x1="7.39812585991cm" x2="7.40186759378cm" y1="4.6cm" y2="4.52cm" /><line x1="7.40186759378cm" x2="7.40547266581cm" y1="4.52cm" y2="4.44cm" /><line x1="7.40547266581cm" x2="7.40894054905cm" y1="4.44cm" y2="4.36cm" /><line x1="7.40894054905cm" x2="7.41227069805cm" y1="4.36cm" y2="4.28cm" /><line x1="7.41227069805cm" x2="7.41546254869cm" y1="4.28cm" y2="4.2cm" /><line x1="7.41546254869cm" x2="7.41851551793cm" y1="4.2cm" y2="4.12cm" /><line x1="7.41851551793cm" x2="7.42142900378cm" y1="4.12cm" y2="4.04cm" /><line x1="7.42142900378cm" x2="7.42420238525cm" y1="4.04cm" y2="3.96cm" /><line x1="7.42420238525cm" x2="7.42683502241cm" y1="3.96cm" y2="3.88cm" /><line x1="7.42683502241cm" x2="7.42932625663cm" y1="3.88cm" y2="3.8cm" /><line x1="7.42932625663cm" x2="7.43167541091cm" y1="3.8cm" y2="3.72cm" /><line x1="7.43167541091cm" x2="7.43388179038cm" y1="3.72cm" y2="3.64cm" /><line x1="7.43388179038cm" x2="7.43594468299cm" y1="3.64cm" y2="3.56cm" /><line x1="7.43594468299cm" x2="7.4378633605cm" y1="3.56cm" y2="3.48cm" /><line x1="7.4378633605cm" x2="7.43963707962cm" y1="3.48cm" y2="3.4cm" /><line x1="7.43963707962cm" x2="7.44126508355cm" y1="3.4cm" y2="3.32cm" /><line x1="7.44126508355cm" x2="7.44274660384cm" y1="3.32cm" y2="3.24cm" /><line x1="7.44274660384cm" x2="7.44408086274cm" y1="3.24cm" y2="3.16cm" /><line x1="7.44408086274cm" x2="7.44526707589cm" y1="3.16cm" y2="3.08cm" /><line x1="7.44526707589cm" x2="7.44630445577cm" y1="3.08cm" y2="3.0cm" /><line x1="7.44630445577cm" x2="7.44719221568cm" y1="3.0cm" y2="2.92cm" /><line x1="7.44719221568cm" x2="7.44792957448cm" y1="2.92cm" y2="2.84cm" /><line x1="7.44792957448cm" x2="7.44851576232cm" y1="2.84cm" y2="2.76cm" /><line x1="7.44851576232cm" x2="7.44895002724cm" y1="2.76cm" y2="2.68cm" /><line x1="7.44895002724cm" x2="7.44923164307cm" y1="2.68cm" y2="2.6cm" /><line x1="7.44923164307cm" x2="7.44935991862cm" y1="2.6cm" y2="2.52cm" /><line x1="7.44935991862cm" x2="7.4493342084cm" y1="2.52cm" y2="2.44cm" /><line x1="7.4493342084cm" x2="7.44915392523cm" y1="2.44cm" y2="2.36cm" /><line x1="7.44915392523cm" x2="7.44881855479cm" y1="2.36cm" y2="2.28cm" /><line x1="7.44881855479cm" x2="7.44832767261cm" y1="2.28cm" y2="2.2cm" /><line x1="7.44832767261cm" x2="7.44768096373cm" y1="2.2cm" y2="2.12cm" /><line x1="7.44768096373cm" x2="7.44687824544cm" y1="2.12cm" y2="2.04cm" /><line x1="7.44687824544cm" x2="7.44591949357cm" y1="2.04cm" y2="1.96cm" /><line x1="7.44591949357cm" x2="7.44480487269cm" y1="1.96cm" y2="1.88cm" /><line x1="7.44480487269cm" x2="7.44353477099cm" y1="1.88cm" y2="1.8cm" /><line x1="7.44353477099cm" x2="7.44210984012cm" y1="1.8cm" y2="1.72cm" /><line x1="7.44210984012cm" x2="7.4405310409cm" y1="1.72cm" y2="1.64cm" /><line x1="7.4405310409cm" x2="7.43879969542cm" y1="1.64cm" y2="1.56cm" /><line x1="7.43879969542cm" x2="7.43691754629cm" y1="1.56cm" y2="1.48cm" /><line x1="7.43691754629cm" x2="7.43488682379cm" y1="1.48cm" y2="1.4cm" /><line x1="7.43488682379cm" x2="7.43271032165cm" y1="1.4cm" y2="1.32cm" /><line x1="7.43271032165cm" x2="7.43039148212cm" y1="1.32cm" y2="1.24cm" /><line x1="7.43039148212cm" x2="7.42793449089cm" y1="1.24cm" y2="1.16cm" /><line x1="7.42793449089cm" x2="7.4253443824cm" y1="1.16cm" y2="1.08cm" /><line x1="7.4253443824cm" x2="7.42262715554cm" y1="1.08cm" y2="1.0cm" /></g><text x="16.3057226858cm" y="5.3cm">75km</text><text x="1.0cm" y="5.3cm">75km</text><text x="13.7547689048cm" y="5.3cm">50km</text><text x="3.55095378097cm" y="5.3cm">50km</text><text x="11.2038151239cm" y="5.3cm">25km</text><text x="6.10190756194cm" y="5.3cm">25km</text><g id="horizontal_tick" stroke="black"><line x1="8.65286134291cm" x2="16.3057226858cm" y1="5.0cm" y2="5.0cm" /><line x1="1.0cm" x2="8.65286134291cm" y1="5.0cm" y2="5.0cm" /><line x1="8.65286134291cm" x2="16.3057226858cm" y1="4.10280373832cm" y2="4.10280373832cm" /><line x1="1.0cm" x2="8.65286134291cm" y1="4.10280373832cm" y2="4.10280373832cm" /><line x1="8.65286134291cm" x2="16.3057226858cm" y1="3.47975077882cm" y2="3.47975077882cm" /><line x1="1.0cm" x2="8.65286134291cm" y1="3.47975077882cm" y2="3.47975077882cm" /><line x1="8.65286134291cm" x2="16.3057226858cm" y1="2.85669781931cm" y2="2.85669781931cm" /><line x1="1.0cm" x2="8.65286134291cm" y1="2.85669781931cm" y2="2.85669781931cm" /><line x1="8.65286134291cm" x2="16.3057226858cm" y1="2.23364485981cm" y2="2.23364485981cm" /><line x1="1.0cm" x2="8.65286134291cm" y1="2.23364485981cm" y2="2.23364485981cm" /><line x1="8.65286134291cm" x2="16.3057226858cm" y1="1.61059190031cm" y2="1.61059190031cm" /><line x1="1.0cm" x2="8.65286134291cm" y1="1.61059190031cm" y2="1.61059190031cm" /><line x1="8.65286134291cm" x2="16.3057226858cm" y1="1.0cm" y2="1.0cm" /><line x1="1.0cm" x2="8.65286134291cm" y1="1.0cm" y2="1.0cm" /></g></svg>