<?xml version="1.0" encoding="utf-8" ?>
<svg baseProfile="full" height="6.0cm" version="1.1" width="17.6091188841cm" xmlns="http://www.w3.org/2000/svg" xmlns:ev="http://www.w3.org/2001/xml-events" xmlns:xlink="http://www.w3.org/1999/xlink"><defs /><g font-size="12"><text x="16.6091188841cm" y="5.0cm">36.0°</text><text x="0.0cm" y="5.0cm">36.0°</text><text x="16.6091188841cm" y="4.14489311164cm">45.0°</text><text x="0.0cm" y="4.14489311164cm">45.0°</text><text x="16.6091188841cm" y="3.19477434679cm">55.0°</text><text x="0.0cm" y="3.19477434679cm">55.0°</text><text x="16.6091188841cm" y="2.24465558195cm">65.0°</text><text x="0.0cm" y="2.24465558195cm">65.0°</text><text x="16.6091188841cm" y="1.2945368171cm">75.0°</text><text x="0.0cm" y="1.2945368171cm">75.0°</text></g><g id="vertical" stroke="black"><line x1="8.80455944204cm" x2="8.80455944204cm" y1="1.0cm" y2="1.08cm" /><line x1="8.80455944204cm" x2="8.80455944204cm" y1="1.08cm" y2="1.16cm" /><line x1="8.80455944204cm" x2="8.80455944204cm" y1="1.16cm" y2="1.24cm" /><line x1="8.80455944204cm" x2="8.80455944204cm" y1="1.24cm" y2="1.32cm" /><line x1="8.80455944204cm" x2="8.80455944204cm" y1="1.32cm" y2="1.4cm" /><line x1="8.80455944204cm" x2="8.80455944204cm" y1="1.4cm" y2="1.48cm" /><line x1="8.80455944204cm" x2="8.80455944204cm" y1="1.48cm" y2="1.56cm" /><line x1="8.80455944204cm" x2="8.80455944204cm" y1="1.56cm" y2="1.64cm" /><line x1="8.80455944204cm" x2="8.80455944204cm" y1="1.64cm" y2="1.72cm" /><line x1="8.80455944204cm" x2="8.80455944204cm" y1="1.72cm" y2="1.8cm" /><line x1="8.80455944204cm" x2="8.80455944204cm" y1="1.8cm" y2="1.88cm" /><line x1="8.80455944204cm" x2="8.80455944204cm" y1="1.88cm" y2="1.96cm" /><line x1="8.80455944204cm" x2="8.80455944204cm" y1="1.96cm" y2="2.04cm" /><line x1="8.80455944204cm" x2="8.80455944204cm" y1="2.04cm" y2="2.12cm" /><line x1="8.80455944204cm" x2="8.80455944204cm" y1="2.12cm" y2="2.2cm" /><line x1="8.80455944204cm" x2="8.80455944204cm" y1="2.2cm" y2="2.28cm" /><line x1="8.80455944204cm" x2="8.80455944204cm" y1="2.28cm" y2="2.36cm" /><line x1="8.80455944204cm" x2="8.80455944204cm" y1="2.36cm" y2="2.44cm" /><line x1="8.80455944204cm" x2="8.80455944204cm" y1="2.44cm" y2="2.52cm" /><line x1="8.80455944204cm" x2="8.80455944204cm" y1="2.52cm" y2="2.6cm" /><line x1="8.80455944204cm" x2="8.80455944204cm" y1="2.6cm" y2="2.68cm" /><line x1="8.80455944204cm" x2="8.80455944204cm" y1="2.68cm" y2="2.76cm" /><line x1="8.80455944204cm" x2="8.80455944204cm" y1="2.76cm" y2="2.84cm" /><line x1="8.80455944204cm" x2="8.80455944204cm" y1="2.84cm" y2="2.92cm" /><line x1="8.80455944204cm" x2="8.80455944204cm" y1="2.92cm" y2="3.0cm" /><line x1="8.80455944204cm" x2="8.80455944204cm" y1="3.0cm" y2="3.08cm" /><line x1="8.80455944204cm" x2="8.80455944204cm" y1="3.08cm" y2="3.16cm" /><line x1="8.80455944204cm" x2="8.80455944204cm" y1="3.16cm" y2="3.24cm" /><line x1="8.80455944204cm" x2="8.80455944204cm" y1="3.24cm" y2="3.32cm" /><line x1="8.80455944204cm" x2="8.80455944204cm" y1="3.32cm" y2="3.4cm" /><line x1="8.80455944204cm" x2="8.80455944204cm" y1="3.4cm" y2="3.48cm" /><line x1="8.80455944204cm" x2="8.80455944204cm" y1="3.48cm" y2="3.56cm" /><line x1="8.80455944204cm" x2="8.80455944204cm" y1="3.56cm" y2="3.64cm" /><line x1="8.80455944204cm" x2="8.80455944204cm" y1="3.64cm" y2="3.72cm" /><line x1="8.80455944204cm" x2="8.80455944204cm" y1="3.72cm" y2="3.8cm" /><line x1="8.80455944204cm" x2="8.80455944204cm" y1="3.8cm" y2="3.88cm" /><line x1="8.80455944204cm" x2="8.80455944204cm" y1="3.88cm" y2="3.96cm" /><line x1="8.80455944204cm" x2="8.80455944204cm" y1="3.96cm" y2="4.04cm" /><line x1="8.80455944204cm" x2="8.80455944204cm" y1="4.04cm" y2="4.12cm" /><line x1="8.80455944204cm" x2="8.80455944204cm" y1="4.12cm" y2="4.2cm" /><line x1="8.80455944204cm" x2="8.80455944204cm" y1="4.2cm" y2="4.28cm" /><line x1="8.80455944204cm" x2="8.80455944204cm" y1="4.28cm" y2="4.36cm" /><line x1="8.80455944204cm" x2="8.80455944204cm" y1="4.36cm" y2="4.44cm" /><line x1="8.80455944204cm" x2="8.80455944204cm" y1="4.44cm" y2="4.52cm" /><line x1="8.80455944204cm" x2="8.80455944204cm" y1="4.52cm" y2="4.6cm" /><line x1="8.80455944204cm" x2="8.80455944204cm" y1="4.6cm" y2="4.68cm" /><line x1="8.80455944204cm" x2="8.80455944204cm" y1="4.68cm" y2="4.76cm" /><line x1="8.80455944204cm" x2="8.80455944204cm" y1="4.76cm" y2="4.84cm" /><line x1="8.80455944204cm" x2="8.80455944204cm" y1="4.84cm" y2="4.92cm" /><line x1="8.80455944204cm" x2="8.80455944204cm" y1="4.92cm" y2="5.0cm" /><line x1="16.5733491585cm" x2="16.5358580348cm" y1="5.0cm" y2="4.92cm" /><line x1="16.5358580348cm" x2="16.4998074138cm" y1="4.92cm" y2="4.84cm" /><line x1="16.4998074138cm" x2="16.4651806238cm" y1="4.84cm" y2="4.76cm" /><line x1="16.4651806238cm" x2="16.4319623555cm" y1="4.76cm" y2="4.68cm" /><line x1="16.4319623555cm" x2="16.400138663cm" y1="4.68cm" y2="4.6cm" /><line x1="16.400138663cm" x2="16.3696969686cm" y1="4.6cm" y2="4.52cm" /><line x1="16.3696969686cm" x2="16.3406260717cm" y1="4.52cm" y2="4.44cm" /><line x1="16.3406260717cm" x2="16.3129161634cm" y1="4.44cm" y2="4.36cm" /><line x1="16.3129161634cm" x2="16.2865588456cm" y1="4.36cm" y2="4.28cm" /><line x1="16.2865588456cm" x2="16.2615471558cm" y1="4.28cm" y2="4.2cm" /><line x1="16.2615471558cm" x2="16.2378755977cm" y1="4.2cm" y2="4.12cm" /><line x1="16.2378755977cm" x2="16.2155401783cm" y1="4.12cm" y2="4.04cm" /><line x1="16.2155401783cm" x2="16.194538452cm" y1="4.04cm" y2="3.96cm" /><line x1="16.194538452cm" x2="16.1748695722cm" y1="3.96cm" y2="3.88cm" /><line x1="16.1748695722cm" x2="16.1565343519cm" y1="3.88cm" y2="3.8cm" /><line x1="16.1565343519cm" x2="16.1395353327cm" y1="3.8cm" y2="3.72cm" /><line x1="16.1395353327cm" x2="16.1238768655cm" y1="3.72cm" y2="3.64cm" /><line x1="16.1238768655cm" x2="16.1095652013cm" y1="3.64cm" y2="3.56cm" /><line x1="16.1095652013cm" x2="16.0966085967cm" y1="3.56cm" y2="3.48cm" /><line x1="16.0966085967cm" x2="16.0850174327cm" y1="3.48cm" y2="3.4cm" /><line x1="16.0850174327cm" x2="16.0748043511cm" y1="3.4cm" y2="3.32cm" /><line x1="16.0748043511cm" x2="16.0659844091cm" y1="3.32cm" y2="3.24cm" /><line x1="16.0659844091cm" x2="16.0585752561cm" y1="3.24cm" y2="3.16cm" /><line x1="16.0585752561cm" x2="16.0525973348cm" y1="3.16cm" y2="3.08cm" /><line x1="16.0525973348cm" x2="16.0480741105cm" y1="3.08cm" y2="3.0cm" /><line x1="16.0480741105cm" x2="16.0450323338cm" y1="3.0cm" y2="2.92cm" /><line x1="16.0450323338cm" x2="16.0435023407cm" y1="2.92cm" y2="2.84cm" /><line x1="16.0435023407cm" x2="16.0435183975cm" y1="2.84cm" y2="2.76cm" /><line x1="16.0435183975cm" x2="16.0451190972cm" y1="2.76cm" y2="2.68cm" /><line x1="16.0451190972cm" x2="16.0483478166cm" y1="2.68cm" y2="2.6cm" /><line x1="16.0483478166cm" x2="16.0532532459cm" y1="2.6cm" y2="2.52cm" /><line x1="16.0532532459cm" x2="16.0598900033cm" y1="2.52cm" y2="2.44cm" /><line x1="16.0598900033cm" x2="16.0683193512cm" y1="2.44cm" y2="2.36cm" /><line x1="16.0683193512cm" x2="16.0786100351cm" y1="2.36cm" y2="2.28cm" /><line x1="16.0786100351cm" x2="16.0908392698cm" y1="2.28cm" y2="2.2cm" /><line x1="16.0908392698cm" x2="16.1050939045cm" y1="2.2cm" y2="2.12cm" /><line x1="16.1050939045cm" x2="16.1214718069cm" y1="2.12cm" y2="2.04cm" /><line x1="16.1214718069cm" x2="16.1400835167cm" y1="2.04cm" y2="1.96cm" /><line x1="16.1400835167cm" x2="16.161054233cm" y1="1.96cm" y2="1.88cm" /><line x1="16.161054233cm" x2="16.1845262192cm" y1="1.88cm" y2="1.8cm" /><line x1="16.1845262192cm" x2="16.2106617338cm" y1="1.8cm" y2="1.72cm" /><line x1="16.2106617338cm" x2="16.2396466312cm" y1="1.72cm" y2="1.64cm" /><line x1="16.2396466312cm" x2="16.2716948216cm" y1="1.64cm" y2="1.56cm" /><line x1="16.2716948216cm" x2="16.3070538487cm" y1="1.56cm" y2="1.48cm" /><line x1="16.3070538487cm" x2="16.3460119356cm" y1="1.48cm" y2="1.4cm" /><line x1="16.3460119356cm" x2="16.3889069844cm" y1="1.4cm" y2="1.32cm" /><line x1="16.3889069844cm" x2="16.4361382153cm" y1="1.32cm" y2="1.24cm" /><line x1="16.4361382153cm" x2="16.4881814248cm" y1="1.24cm" y2="1.16cm" /><line x1="16.4881814248cm" x2="16.5456092942cm" y1="1.16cm" y2="1.08cm" /><line x1="16.5456092942cm" x2="16.6091188841cm" y1="1.08cm" y2="1.0cm" /><line x1="1.03576972558cm" x2="1.07326084926cm" y1="5.0cm" y2="4.92cm" /><line x1="1.07326084926cm" x2="1.10931147025cm" y1="4.92cm" y2="4.84cm" /><line x1="1.10931147025cm" x2="1.14393826033cm" y1="4.84cm" y2="4.76cm" /><line x1="1.14393826033cm" x2="1.17715652861cm" y1="4.76cm" y2="4.68cm" /><line x1="1.17715652861cm" x2="1.20898022103cm" y1="4.68cm" y2="4.6cm" /><line x1="1.20898022103cm" x2="1.23942191547cm" y1="4.6cm" y2="4.52cm" /><line x1="1.23942191547cm" x2="1.26849281239cm" y1="4.52cm" y2="4.44cm" /><line x1="1.26849281239cm" x2="1.2962027207cm" y1="4.44cm" y2="4.36cm" /><line x1="1.2962027207cm" x2="1.3225600385cm" y1="4.36cm" y2="4.28cm" /><line x1="1.3225600385cm" x2="1.34757172829cm" y1="4.28cm" y2="4.2cm" /><line x1="1.34757172829cm" x2="1.37124328639cm" y1="4.2cm" y2="4.12cm" /><line x1="1.37124328639cm" x2="1.39357870579cm" y1="4.12cm" y2="4.04cm" /><line x1="1.39357870579cm" x2="1.41458043211cm" y1="4.04cm" y2="3.96cm" /><line x1="1.41458043211cm" x2="1.43424931187cm" y1="3.96cm" y2="3.88cm" /><line x1="1.43424931187cm" x2="1.4525845322cm" y1="3.88cm" y2="3.8cm" /><line x1="1.4525845322cm" x2="1.46958355135cm" y1="3.8cm" y2="3.72cm" /><line x1="1.46958355135cm" x2="1.48524201863cm" y1="3.72cm" y2="3.64cm" /><line x1="1.48524201863cm" x2="1.4995536828cm" y1="3.64cm" y2="3.56cm" /><line x1="1.4995536828cm" x2="1.51251028742cm" y1="3.56cm" y2="3.48cm" /><line x1="1.51251028742cm" x2="1.5241014514cm" y1="3.48cm" y2="3.4cm" /><line x1="1.5241014514cm" x2="1.53431453302cm" y1="3.4cm" y2="3.32cm" /><line x1="1.53431453302cm" x2="1.54313447498cm" y1="3.32cm" y2="3.24cm" /><line x1="1.54313447498cm" x2="1.55054362793cm" y1="3.24cm" y2="3.16cm" /><line x1="1.55054362793cm" x2="1.55652154926cm" y1="3.16cm" y2="3.08cm" /><line x1="1.55652154926cm" x2="1.56104477357cm" y1="3.08cm" y2="3.0cm" /><line x1="1.56104477357cm" x2="1.56408655032cm" y1="3.0cm" y2="2.92cm" /><line x1="1.56408655032cm" x2="1.56561654341cm" y1="2.92cm" y2="2.84cm" /><line x1="1.56561654341cm" x2="1.56560048658cm" y1="2.84cm" y2="2.76cm" /><line x1="1.56560048658cm" x2="1.56399978692cm" y1="2.76cm" y2="2.68cm" /><line x1="1.56399978692cm" x2="1.5607710675cm" y1="2.68cm" y2="2.6cm" /><line x1="1.5607710675cm" x2="1.55586563814cm" y1="2.6cm" y2="2.52cm" /><line x1="1.55586563814cm" x2="1.54922888076cm" y1="2.52cm" y2="2.44cm" /><line x1="1.54922888076cm" x2="1.54079953288cm" y1="2.44cm" y2="2.36cm" /><line x1="1.54079953288cm" x2="1.53050884896cm" y1="2.36cm" y2="2.28cm" /><line x1="1.53050884896cm" x2="1.51827961426cm" y1="2.28cm" y2="2.2cm" /><line x1="1.51827961426cm" x2="1.50402497957cm" y1="2.2cm" y2="2.12cm" /><line x1="1.50402497957cm" x2="1.48764707718cm" y1="2.12cm" y2="2.04cm" /><line x1="1.48764707718cm" x2="1.46903536739cm" y1="2.04cm" y2="1.96cm" /><line x1="1.46903536739cm" x2="1.44806465109cm" y1="1.96cm" y2="1.88cm" /><line x1="1.44806465109cm" x2="1.42459266491cm" y1="1.88cm" y2="1.8cm" /><line x1="1.42459266491cm" x2="1.39845715024cm" y1="1.8cm" y2="1.72cm" /><line x1="1.39845715024cm" x2="1.36947225287cm" y1="1.72cm" y2="1.64cm" /><line x1="1.36947225287cm" x2="1.33742406252cm" y1="1.64cm" y2="1.56cm" /><line x1="1.33742406252cm" x2="1.30206503538cm" y1="1.56cm" y2="1.48cm" /><line x1="1.30206503538cm" x2="1.26310694848cm" y1="1.48cm" y2="1.4cm" /><line x1="1.26310694848cm" x2="1.22021189968cm" y1="1.4cm" y2="1.32cm" /><line x1="1.22021189968cm" x2="1.17298066874cm" y1="1.32cm" y2="1.24cm" /><line x1="1.17298066874cm" x2="1.12093745924cm" y1="1.24cm" y2="1.16cm" /><line x1="1.12093745924cm" x2="1.0635095899cm" y1="1.16cm" y2="1.08cm" /><line x1="1.0635095899cm" x2="1.0cm" y1="1.08cm" y2="1.0cm" /><line x1="13.9837525863cm" x2="13.9587585039cm" y1="5.0cm" y2="4.92cm" /><line x1="13.9587585039cm" x2="13.9347247566cm" y1="4.92cm" y2="4.84cm" /><line x1="13.9347247566cm" x2="13.9116402298cm" y1="4.84cm" y2="4.76cm" /><line x1="13.9116402298cm" x2="13.8894947177cm" y1="4.76cm" y2="4.68cm" /><line x1="13.8894947177cm" x2="13.8682789227cm" y1="4.68cm" y2="4.6cm" /><line x1="13.8682789227cm" x2="13.8479844598cm" y1="4.6cm" y2="4.52cm" /><line x1="13.8479844598cm" x2="13.8286038618cm" y1="4.52cm" y2="4.44cm" /><line x1="13.8286038618cm" x2="13.8101305896cm" y1="4.44cm" y2="4.36cm" /><line x1="13.8101305896cm" x2="13.7925590444cm" y1="4.36cm" y2="4.28cm" /><line x1="13.7925590444cm" x2="13.7758845845cm" y1="4.28cm" y2="4.2cm" /><line x1="13.7758845845cm" x2="13.7601035458cm" y1="4.2cm" y2="4.12cm" /><line x1="13.7601035458cm" x2="13.7452132662cm" y1="4.12cm" y2="4.04cm" /><line x1="13.7452132662cm" x2="13.7312121153cm" y1="4.04cm" y2="3.96cm" /><line x1="13.7312121153cm" x2="13.7180995288cm" y1="3.96cm" y2="3.88cm" /><line x1="13.7180995288cm" x2="13.7058760486cm" y1="3.88cm" y2="3.8cm" /><line x1="13.7058760486cm" x2="13.6945433692cm" y1="3.8cm" y2="3.72cm" /><line x1="13.6945433692cm" x2="13.684104391cm" y1="3.72cm" y2="3.64cm" /><line x1="13.684104391cm" x2="13.6745632815cm" y1="3.64cm" y2="3.56cm" /><line x1="13.6745632815cm" x2="13.6659255451cm" y1="3.56cm" y2="3.48cm" /><line x1="13.6659255451cm" x2="13.6581981025cm" y1="3.48cm" y2="3.4cm" /><line x1="13.6581981025cm" x2="13.6513893814cm" y1="3.4cm" y2="3.32cm" /><line x1="13.6513893814cm" x2="13.6455094201cm" y1="3.32cm" y2="3.24cm" /><line x1="13.6455094201cm" x2="13.6405699848cm" y1="3.24cm" y2="3.16cm" /><line x1="13.6405699848cm" x2="13.6365847039cm" y1="3.16cm" y2="3.08cm" /><line x1="13.6365847039cm" x2="13.633569221cm" y1="3.08cm" y2="3.0cm" /><line x1="13.633569221cm" x2="13.6315413699cm" y1="3.0cm" y2="2.92cm" /><line x1="13.6315413699cm" x2="13.6305213745cm" y1="2.92cm" y2="2.84cm" /><line x1="13.6305213745cm" x2="13.630532079cm" y1="2.84cm" y2="2.76cm" /><line x1="13.630532079cm" x2="13.6315992121cm" y1="2.76cm" y2="2.68cm" /><line x1="13.6315992121cm" x2="13.6337516917cm" y1="2.68cm" y2="2.6cm" /><line x1="13.6337516917cm" x2="13.637021978cm" y1="2.6cm" y2="2.52cm" /><line x1="13.637021978cm" x2="13.6414464829cm" y1="2.52cm" y2="2.44cm" /><line x1="13.6414464829cm" x2="13.6470660481cm" y1="2.44cm" y2="2.36cm" /><line x1="13.6470660481cm" x2="13.6539265041cm" y1="2.36cm" y2="2.28cm" /><line x1="13.6539265041cm" x2="13.6620793272cm" y1="2.28cm" y2="2.2cm" /><line x1="13.6620793272cm" x2="13.671582417cm" y1="2.2cm" y2="2.12cm" /><line x1="13.671582417cm" x2="13.6825010186cm" y1="2.12cm" y2="2.04cm" /><line x1="13.6825010186cm" x2="13.6949088251cm" y1="2.04cm" y2="1.96cm" /><line x1="13.6949088251cm" x2="13.7088893027cm" y1="1.96cm" y2="1.88cm" /><line x1="13.7088893027cm" x2="13.7245372935cm" y1="1.88cm" y2="1.8cm" /><line x1="13.7245372935cm" x2="13.7419609699cm" y1="1.8cm" y2="1.72cm" /><line x1="13.7419609699cm" x2="13.7612842348cm" y1="1.72cm" y2="1.64cm" /><line x1="13.7612842348cm" x2="13.7826496951cm" y1="1.64cm" y2="1.56cm" /><line x1="13.7826496951cm" x2="13.8062223798cm" y1="1.56cm" y2="1.48cm" /><line x1="13.8062223798cm" x2="13.8321944377cm" y1="1.48cm" y2="1.4cm" /><line x1="13.8321944377cm" x2="13.8607911369cm" y1="1.4cm" y2="1.32cm" /><line x1="13.8607911369cm" x2="13.8922786242cm" y1="1.32cm" y2="1.24cm" /><line x1="13.8922786242cm" x2="13.9269740972cm" y1="1.24cm" y2="1.16cm" /><line x1="13.9269740972cm" x2="13.9652593435cm" y1="1.16cm" y2="1.08cm" /><line x1="13.9652593435cm" x2="14.0075990701cm" y1="1.08cm" y2="1.0cm" /><line x1="3.62536629773cm" x2="3.65036038019cm" y1="5.0cm" y2="4.92cm" /><line x1="3.65036038019cm" x2="3.67439412751cm" y1="4.92cm" y2="4.84cm" /><line x1="3.67439412751cm" x2="3.69747865423cm" y1="4.84cm" y2="4.76cm" /><line x1="3.69747865423cm" x2="3.71962416642cm" y1="4.76cm" y2="4.68cm" /><line x1="3.71962416642cm" x2="3.74083996137cm" y1="4.68cm" y2="4.6cm" /><line x1="3.74083996137cm" x2="3.76113442432cm" y1="4.6cm" y2="4.52cm" /><line x1="3.76113442432cm" x2="3.78051502227cm" y1="4.52cm" y2="4.44cm" /><line x1="3.78051502227cm" x2="3.79898829448cm" y1="4.44cm" y2="4.36cm" /><line x1="3.79898829448cm" x2="3.81655983968cm" y1="4.36cm" y2="4.28cm" /><line x1="3.81655983968cm" x2="3.83323429954cm" y1="4.28cm" y2="4.2cm" /><line x1="3.83323429954cm" x2="3.84901533827cm" y1="4.2cm" y2="4.12cm" /><line x1="3.84901533827cm" x2="3.86390561787cm" y1="4.12cm" y2="4.04cm" /><line x1="3.86390561787cm" x2="3.87790676876cm" y1="4.04cm" y2="3.96cm" /><line x1="3.87790676876cm" x2="3.89101935526cm" y1="3.96cm" y2="3.88cm" /><line x1="3.89101935526cm" x2="3.90324283548cm" y1="3.88cm" y2="3.8cm" /><line x1="3.90324283548cm" x2="3.91457551491cm" y1="3.8cm" y2="3.72cm" /><line x1="3.91457551491cm" x2="3.9250144931cm" y1="3.72cm" y2="3.64cm" /><line x1="3.9250144931cm" x2="3.93455560255cm" y1="3.64cm" y2="3.56cm" /><line x1="3.93455560255cm" x2="3.94319333896cm" y1="3.56cm" y2="3.48cm" /><line x1="3.94319333896cm" x2="3.95092078161cm" y1="3.48cm" y2="3.4cm" /><line x1="3.95092078161cm" x2="3.95772950269cm" y1="3.4cm" y2="3.32cm" /><line x1="3.95772950269cm" x2="3.963609464cm" y1="3.32cm" y2="3.24cm" /><line x1="3.963609464cm" x2="3.9685488993cm" y1="3.24cm" y2="3.16cm" /><line x1="3.9685488993cm" x2="3.97253418019cm" y1="3.16cm" y2="3.08cm" /><line x1="3.97253418019cm" x2="3.97554966306cm" y1="3.08cm" y2="3.0cm" /><line x1="3.97554966306cm" x2="3.97757751423cm" y1="3.0cm" y2="2.92cm" /><line x1="3.97757751423cm" x2="3.97859750962cm" y1="2.92cm" y2="2.84cm" /><line x1="3.97859750962cm" x2="3.97858680507cm" y1="2.84cm" y2="2.76cm" /><line x1="3.97858680507cm" x2="3.97751967196cm" y1="2.76cm" y2="2.68cm" /><line x1="3.97751967196cm" x2="3.97536719235cm" y1="2.68cm" y2="2.6cm" /><line x1="3.97536719235cm" x2="3.97209690611cm" y1="2.6cm" y2="2.52cm" /><line x1="3.97209690611cm" x2="3.96767240119cm" y1="2.52cm" y2="2.44cm" /><line x1="3.96767240119cm" x2="3.96205283593cm" y1="2.44cm" y2="2.36cm" /><line x1="3.96205283593cm" x2="3.95519237998cm" y1="2.36cm" y2="2.28cm" /><line x1="3.95519237998cm" x2="3.94703955685cm" y1="2.28cm" y2="2.2cm" /><line x1="3.94703955685cm" x2="3.93753646706cm" y1="2.2cm" y2="2.12cm" /><line x1="3.93753646706cm" x2="3.92661786547cm" y1="2.12cm" y2="2.04cm" /><line x1="3.92661786547cm" x2="3.91421005894cm" y1="2.04cm" y2="1.96cm" /><line x1="3.91421005894cm" x2="3.9002295814cm" y1="1.96cm" y2="1.88cm" /><line x1="3.9002295814cm" x2="3.88458159062cm" y1="1.88cm" y2="1.8cm" /><line x1="3.88458159062cm" x2="3.86715791418cm" y1="1.8cm" y2="1.72cm" /><line x1="3.86715791418cm" x2="3.84783464926cm" y1="1.72cm" y2="1.64cm" /><line x1="3.84783464926cm" x2="3.82646918902cm" y1="1.64cm" y2="1.56cm" /><line x1="3.82646918902cm" x2="3.80289650426cm" y1="1.56cm" y2="1.48cm" /><line x1="3.80289650426cm" x2="3.77692444633cm" y1="1.48cm" y2="1.4cm" /><line x1="3.77692444633cm" x2="3.74832774713cm" y1="1.4cm" y2="1.32cm" /><line x1="3.74832774713cm" x2="3.71684025984cm" y1="1.32cm" y2="1.24cm" /><line x1="3.71684025984cm" x2="3.68214478684cm" y1="1.24cm" y2="1.16cm" /><line x1="3.68214478684cm" x2="3.64385954061cm" y1="1.16cm" y2="1.08cm" /><line x1="3.64385954061cm" x2="3.60151981401cm" y1="1.08cm" y2="1.0cm" /><line x1="11.3941560142cm" x2="11.381658973cm" y1="5.0cm" y2="4.92cm" /><line x1="11.381658973cm" x2="11.3696420993cm" y1="4.92cm" y2="4.84cm" /><line x1="11.3696420993cm" x2="11.3580998359cm" y1="4.84cm" y2="4.76cm" /><line x1="11.3580998359cm" x2="11.3470270798cm" y1="4.76cm" y2="4.68cm" /><line x1="11.3470270798cm" x2="11.3364191824cm" y1="4.68cm" y2="4.6cm" /><line x1="11.3364191824cm" x2="11.3262719509cm" y1="4.6cm" y2="4.52cm" /><line x1="11.3262719509cm" x2="11.3165816519cm" y1="4.52cm" y2="4.44cm" /><line x1="11.3165816519cm" x2="11.3073450158cm" y1="4.44cm" y2="4.36cm" /><line x1="11.3073450158cm" x2="11.2985592432cm" y1="4.36cm" y2="4.28cm" /><line x1="11.2985592432cm" x2="11.2902220133cm" y1="4.28cm" y2="4.2cm" /><line x1="11.2902220133cm" x2="11.2823314939cm" y1="4.2cm" y2="4.12cm" /><line x1="11.2823314939cm" x2="11.2748863541cm" y1="4.12cm" y2="4.04cm" /><line x1="11.2748863541cm" x2="11.2678857787cm" y1="4.04cm" y2="3.96cm" /><line x1="11.2678857787cm" x2="11.2613294854cm" y1="3.96cm" y2="3.88cm" /><line x1="11.2613294854cm" x2="11.2552177453cm" y1="3.88cm" y2="3.8cm" /><line x1="11.2552177453cm" x2="11.2495514056cm" y1="3.8cm" y2="3.72cm" /><line x1="11.2495514056cm" x2="11.2443319165cm" y1="3.72cm" y2="3.64cm" /><line x1="11.2443319165cm" x2="11.2395613618cm" y1="3.64cm" y2="3.56cm" /><line x1="11.2395613618cm" x2="11.2352424936cm" y1="3.56cm" y2="3.48cm" /><line x1="11.2352424936cm" x2="11.2313787723cm" y1="3.48cm" y2="3.4cm" /><line x1="11.2313787723cm" x2="11.2279744117cm" y1="3.4cm" y2="3.32cm" /><line x1="11.2279744117cm" x2="11.2250344311cm" y1="3.32cm" y2="3.24cm" /><line x1="11.2250344311cm" x2="11.2225647134cm" y1="3.24cm" y2="3.16cm" /><line x1="11.2225647134cm" x2="11.220572073cm" y1="3.16cm" y2="3.08cm" /><line x1="11.220572073cm" x2="11.2190643315cm" y1="3.08cm" y2="3.0cm" /><line x1="11.2190643315cm" x2="11.2180504059cm" y1="3.0cm" y2="2.92cm" /><line x1="11.2180504059cm" x2="11.2175404082cm" y1="2.92cm" y2="2.84cm" /><line x1="11.2175404082cm" x2="11.2175457605cm" y1="2.84cm" y2="2.76cm" /><line x1="11.2175457605cm" x2="11.2180793271cm" y1="2.76cm" y2="2.68cm" /><line x1="11.2180793271cm" x2="11.2191555669cm" y1="2.68cm" y2="2.6cm" /><line x1="11.2191555669cm" x2="11.22079071cm" y1="2.6cm" y2="2.52cm" /><line x1="11.22079071cm" x2="11.2230029625cm" y1="2.52cm" y2="2.44cm" /><line x1="11.2230029625cm" x2="11.2258127451cm" y1="2.44cm" y2="2.36cm" /><line x1="11.2258127451cm" x2="11.2292429731cm" y1="2.36cm" y2="2.28cm" /><line x1="11.2292429731cm" x2="11.2333193846cm" y1="2.28cm" y2="2.2cm" /><line x1="11.2333193846cm" x2="11.2380709295cm" y1="2.2cm" y2="2.12cm" /><line x1="11.2380709295cm" x2="11.2435302303cm" y1="2.12cm" y2="2.04cm" /><line x1="11.2435302303cm" x2="11.2497341336cm" y1="2.04cm" y2="1.96cm" /><line x1="11.2497341336cm" x2="11.2567243724cm" y1="1.96cm" y2="1.88cm" /><line x1="11.2567243724cm" x2="11.2645483677cm" y1="1.88cm" y2="1.8cm" /><line x1="11.2645483677cm" x2="11.273260206cm" y1="1.8cm" y2="1.72cm" /><line x1="11.273260206cm" x2="11.2829218384cm" y1="1.72cm" y2="1.64cm" /><line x1="11.2829218384cm" x2="11.2936045685cm" y1="1.64cm" y2="1.56cm" /><line x1="11.2936045685cm" x2="11.3053909109cm" y1="1.56cm" y2="1.48cm" /><line x1="11.3053909109cm" x2="11.3183769399cm" y1="1.48cm" y2="1.4cm" /><line x1="11.3183769399cm" x2="11.3326752895cm" y1="1.4cm" y2="1.32cm" /><line x1="11.3326752895cm" x2="11.3484190331cm" y1="1.32cm" y2="1.24cm" /><line x1="11.3484190331cm" x2="11.3657667696cm" y1="1.24cm" y2="1.16cm" /><line x1="11.3657667696cm" x2="11.3849093928cm" y1="1.16cm" y2="1.08cm" /><line x1="11.3849093928cm" x2="11.4060792561cm" y1="1.08cm" y2="1.0cm" /><line x1="6.21496286989cm" x2="6.22745991111cm" y1="5.0cm" y2="4.92cm" /><line x1="6.22745991111cm" x2="6.23947678478cm" y1="4.92cm" y2="4.84cm" /><line x1="6.23947678478cm" x2="6.25101904813cm" y1="4.84cm" y2="4.76cm" /><line x1="6.25101904813cm" x2="6.26209180423cm" y1="4.76cm" y2="4.68cm" /><line x1="6.26209180423cm" x2="6.2726997017cm" y1="4.68cm" y2="4.6cm" /><line x1="6.2726997017cm" x2="6.28284693318cm" y1="4.6cm" y2="4.52cm" /><line x1="6.28284693318cm" x2="6.29253723215cm" y1="4.52cm" y2="4.44cm" /><line x1="6.29253723215cm" x2="6.30177386826cm" y1="4.44cm" y2="4.36cm" /><line x1="6.30177386826cm" x2="6.31055964086cm" y1="4.36cm" y2="4.28cm" /><line x1="6.31055964086cm" x2="6.31889687079cm" y1="4.28cm" y2="4.2cm" /><line x1="6.31889687079cm" x2="6.32678739016cm" y1="4.2cm" y2="4.12cm" /><line x1="6.32678739016cm" x2="6.33423252995cm" y1="4.12cm" y2="4.04cm" /><line x1="6.33423252995cm" x2="6.3412331054cm" y1="4.04cm" y2="3.96cm" /><line x1="6.3412331054cm" x2="6.34778939865cm" y1="3.96cm" y2="3.88cm" /><line x1="6.34778939865cm" x2="6.35390113876cm" y1="3.88cm" y2="3.8cm" /><line x1="6.35390113876cm" x2="6.35956747848cm" y1="3.8cm" y2="3.72cm" /><line x1="6.35956747848cm" x2="6.36478696757cm" y1="3.72cm" y2="3.64cm" /><line x1="6.36478696757cm" x2="6.36955752229cm" y1="3.64cm" y2="3.56cm" /><line x1="6.36955752229cm" x2="6.3738763905cm" y1="3.56cm" y2="3.48cm" /><line x1="6.3738763905cm" x2="6.37774011183cm" y1="3.48cm" y2="3.4cm" /><line x1="6.37774011183cm" x2="6.38114447237cm" y1="3.4cm" y2="3.32cm" /><line x1="6.38114447237cm" x2="6.38408445302cm" y1="3.32cm" y2="3.24cm" /><line x1="6.38408445302cm" x2="6.38655417067cm" y1="3.24cm" y2="3.16cm" /><line x1="6.38655417067cm" x2="6.38854681111cm" y1="3.16cm" y2="3.08cm" /><line x1="6.38854681111cm" x2="6.39005455255cm" y1="3.08cm" y2="3.0cm" /><line x1="6.39005455255cm" x2="6.39106847813cm" y1="3.0cm" y2="2.92cm" /><line x1="6.39106847813cm" x2="6.39157847583cm" y1="2.92cm" y2="2.84cm" /><line x1="6.39157847583cm" x2="6.39157312355cm" y1="2.84cm" y2="2.76cm" /><line x1="6.39157312355cm" x2="6.391039557cm" y1="2.76cm" y2="2.68cm" /><line x1="6.391039557cm" x2="6.38996331719cm" y1="2.68cm" y2="2.6cm" /><line x1="6.38996331719cm" x2="6.38832817407cm" y1="2.6cm" y2="2.52cm" /><line x1="6.38832817407cm" x2="6.38611592161cm" y1="2.52cm" y2="2.44cm" /><line x1="6.38611592161cm" x2="6.38330613898cm" y1="2.44cm" y2="2.36cm" /><line x1="6.38330613898cm" x2="6.37987591101cm" y1="2.36cm" y2="2.28cm" /><line x1="6.37987591101cm" x2="6.37579949944cm" y1="2.28cm" y2="2.2cm" /><line x1="6.37579949944cm" x2="6.37104795455cm" y1="2.2cm" y2="2.12cm" /><line x1="6.37104795455cm" x2="6.36558865375cm" y1="2.12cm" y2="2.04cm" /><line x1="6.36558865375cm" x2="6.35938475049cm" y1="2.04cm" y2="1.96cm" /><line x1="6.35938475049cm" x2="6.35239451172cm" y1="1.96cm" y2="1.88cm" /><line x1="6.35239451172cm" x2="6.34457051633cm" y1="1.88cm" y2="1.8cm" /><line x1="6.34457051633cm" x2="6.33585867811cm" y1="1.8cm" y2="1.72cm" /><line x1="6.33585867811cm" x2="6.32619704565cm" y1="1.72cm" y2="1.64cm" /><line x1="6.32619704565cm" x2="6.31551431553cm" y1="1.64cm" y2="1.56cm" /><line x1="6.31551431553cm" x2="6.30372797315cm" y1="1.56cm" y2="1.48cm" /><line x1="6.30372797315cm" x2="6.29074194419cm" y1="1.48cm" y2="1.4cm" /><line x1="6.29074194419cm" x2="6.27644359459cm" y1="1.4cm" y2="1.32cm" /><line x1="6.27644359459cm" x2="6.26069985094cm" y1="1.32cm" y2="1.24cm" /><line x1="6.26069985094cm" x2="6.24335211444cm" y1="1.24cm" y2="1.16cm" /><line x1="6.24335211444cm" x2="6.22420949133cm" y1="1.16cm" y2="1.08cm" /><line x1="6.22420949133cm" x2="6.20303962803cm" y1="1.08cm" y2="1.0cm" /><line x1="10.0993577281cm" x2="10.0931092075cm" y1="5.0cm" y2="4.92cm" /><line x1="10.0931092075cm" x2="10.0871007707cm" y1="4.92cm" y2="4.84cm" /><line x1="10.0871007707cm" x2="10.081329639cm" y1="4.84cm" y2="4.76cm" /><line x1="10.081329639cm" x2="10.0757932609cm" y1="4.76cm" y2="4.68cm" /><line x1="10.0757932609cm" x2="10.0704893122cm" y1="4.68cm" y2="4.6cm" /><line x1="10.0704893122cm" x2="10.0654156965cm" y1="4.6cm" y2="4.52cm" /><line x1="10.0654156965cm" x2="10.060570547cm" y1="4.52cm" y2="4.44cm" /><line x1="10.060570547cm" x2="10.0559522289cm" y1="4.44cm" y2="4.36cm" /><line x1="10.0559522289cm" x2="10.0515593426cm" y1="4.36cm" y2="4.28cm" /><line x1="10.0515593426cm" x2="10.0473907277cm" y1="4.28cm" y2="4.2cm" /><line x1="10.0473907277cm" x2="10.043445468cm" y1="4.2cm" y2="4.12cm" /><line x1="10.043445468cm" x2="10.0397228981cm" y1="4.12cm" y2="4.04cm" /><line x1="10.0397228981cm" x2="10.0362226104cm" y1="4.04cm" y2="3.96cm" /><line x1="10.0362226104cm" x2="10.0329444637cm" y1="3.96cm" y2="3.88cm" /><line x1="10.0329444637cm" x2="10.0298885937cm" y1="3.88cm" y2="3.8cm" /><line x1="10.0298885937cm" x2="10.0270554238cm" y1="3.8cm" y2="3.72cm" /><line x1="10.0270554238cm" x2="10.0244456793cm" y1="3.72cm" y2="3.64cm" /><line x1="10.0244456793cm" x2="10.0220604019cm" y1="3.64cm" y2="3.56cm" /><line x1="10.0220604019cm" x2="10.0199009678cm" y1="3.56cm" y2="3.48cm" /><line x1="10.0199009678cm" x2="10.0179691071cm" y1="3.48cm" y2="3.4cm" /><line x1="10.0179691071cm" x2="10.0162669269cm" y1="3.4cm" y2="3.32cm" /><line x1="10.0162669269cm" x2="10.0147969365cm" y1="3.32cm" y2="3.24cm" /><line x1="10.0147969365cm" x2="10.0135620777cm" y1="3.24cm" y2="3.16cm" /><line x1="10.0135620777cm" x2="10.0125657575cm" y1="3.16cm" y2="3.08cm" /><line x1="10.0125657575cm" x2="10.0118118868cm" y1="3.08cm" y2="3.0cm" /><line x1="10.0118118868cm" x2="10.011304924cm" y1="3.0cm" y2="2.92cm" /><line x1="10.011304924cm" x2="10.0110499251cm" y1="2.92cm" y2="2.84cm" /><line x1="10.0110499251cm" x2="10.0110526013cm" y1="2.84cm" y2="2.76cm" /><line x1="10.0110526013cm" x2="10.0113193846cm" y1="2.76cm" y2="2.68cm" /><line x1="10.0113193846cm" x2="10.0118575045cm" y1="2.68cm" y2="2.6cm" /><line x1="10.0118575045cm" x2="10.012675076cm" y1="2.6cm" y2="2.52cm" /><line x1="10.012675076cm" x2="10.0137812023cm" y1="2.52cm" y2="2.44cm" /><line x1="10.0137812023cm" x2="10.0151860936cm" y1="2.44cm" y2="2.36cm" /><line x1="10.0151860936cm" x2="10.0169012076cm" y1="2.36cm" y2="2.28cm" /><line x1="10.0169012076cm" x2="10.0189394133cm" y1="2.28cm" y2="2.2cm" /><line x1="10.0189394133cm" x2="10.0213151858cm" y1="2.2cm" y2="2.12cm" /><line x1="10.0213151858cm" x2="10.0240448362cm" y1="2.12cm" y2="2.04cm" /><line x1="10.0240448362cm" x2="10.0271467878cm" y1="2.04cm" y2="1.96cm" /><line x1="10.0271467878cm" x2="10.0306419072cm" y1="1.96cm" y2="1.88cm" /><line x1="10.0306419072cm" x2="10.0345539049cm" y1="1.88cm" y2="1.8cm" /><line x1="10.0345539049cm" x2="10.038909824cm" y1="1.8cm" y2="1.72cm" /><line x1="10.038909824cm" x2="10.0437406402cm" y1="1.72cm" y2="1.64cm" /><line x1="10.0437406402cm" x2="10.0490820053cm" y1="1.64cm" y2="1.56cm" /><line x1="10.0490820053cm" x2="10.0549751765cm" y1="1.56cm" y2="1.48cm" /><line x1="10.0549751765cm" x2="10.061468191cm" y1="1.48cm" y2="1.4cm" /><line x1="10.061468191cm" x2="10.0686173658cm" y1="1.4cm" y2="1.32cm" /><line x1="10.0686173658cm" x2="10.0764892376cm" y1="1.32cm" y2="1.24cm" /><line x1="10.0764892376cm" x2="10.0851631058cm" y1="1.24cm" y2="1.16cm" /><line x1="10.0851631058cm" x2="10.0947344174cm" y1="1.16cm" y2="1.08cm" /><line x1="10.0947344174cm" x2="10.105319349cm" y1="1.08cm" y2="1.0cm" /><line x1="7.50976115596cm" x2="7.51600967658cm" y1="5.0cm" y2="4.92cm" /><line x1="7.51600967658cm" x2="7.52201811341cm" y1="4.92cm" y2="4.84cm" /><line x1="7.52201811341cm" x2="7.52778924509cm" y1="4.84cm" y2="4.76cm" /><line x1="7.52778924509cm" x2="7.53332562313cm" y1="4.76cm" y2="4.68cm" /><line x1="7.53332562313cm" x2="7.53862957187cm" y1="4.68cm" y2="4.6cm" /><line x1="7.53862957187cm" x2="7.54370318761cm" y1="4.6cm" y2="4.52cm" /><line x1="7.54370318761cm" x2="7.5485483371cm" y1="4.52cm" y2="4.44cm" /><line x1="7.5485483371cm" x2="7.55316665515cm" y1="4.44cm" y2="4.36cm" /><line x1="7.55316665515cm" x2="7.55755954145cm" y1="4.36cm" y2="4.28cm" /><line x1="7.55755954145cm" x2="7.56172815641cm" y1="4.28cm" y2="4.2cm" /><line x1="7.56172815641cm" x2="7.5656734161cm" y1="4.2cm" y2="4.12cm" /><line x1="7.5656734161cm" x2="7.569395986cm" y1="4.12cm" y2="4.04cm" /><line x1="7.569395986cm" x2="7.57289627372cm" y1="4.04cm" y2="3.96cm" /><line x1="7.57289627372cm" x2="7.57617442034cm" y1="3.96cm" y2="3.88cm" /><line x1="7.57617442034cm" x2="7.5792302904cm" y1="3.88cm" y2="3.8cm" /><line x1="7.5792302904cm" x2="7.58206346026cm" y1="3.8cm" y2="3.72cm" /><line x1="7.58206346026cm" x2="7.5846732048cm" y1="3.72cm" y2="3.64cm" /><line x1="7.5846732048cm" x2="7.58705848217cm" y1="3.64cm" y2="3.56cm" /><line x1="7.58705848217cm" x2="7.58921791627cm" y1="3.56cm" y2="3.48cm" /><line x1="7.58921791627cm" x2="7.59114977693cm" y1="3.48cm" y2="3.4cm" /><line x1="7.59114977693cm" x2="7.5928519572cm" y1="3.4cm" y2="3.32cm" /><line x1="7.5928519572cm" x2="7.59432194753cm" y1="3.32cm" y2="3.24cm" /><line x1="7.59432194753cm" x2="7.59555680635cm" y1="3.24cm" y2="3.16cm" /><line x1="7.59555680635cm" x2="7.59655312657cm" y1="3.16cm" y2="3.08cm" /><line x1="7.59655312657cm" x2="7.59730699729cm" y1="3.08cm" y2="3.0cm" /><line x1="7.59730699729cm" x2="7.59781396008cm" y1="3.0cm" y2="2.92cm" /><line x1="7.59781396008cm" x2="7.59806895893cm" y1="2.92cm" y2="2.84cm" /><line x1="7.59806895893cm" x2="7.5980662828cm" y1="2.84cm" y2="2.76cm" /><line x1="7.5980662828cm" x2="7.59779949952cm" y1="2.76cm" y2="2.68cm" /><line x1="7.59779949952cm" x2="7.59726137961cm" y1="2.68cm" y2="2.6cm" /><line x1="7.59726137961cm" x2="7.59644380806cm" y1="2.6cm" y2="2.52cm" /><line x1="7.59644380806cm" x2="7.59533768182cm" y1="2.52cm" y2="2.44cm" /><line x1="7.59533768182cm" x2="7.59393279051cm" y1="2.44cm" y2="2.36cm" /><line x1="7.59393279051cm" x2="7.59221767652cm" y1="2.36cm" y2="2.28cm" /><line x1="7.59221767652cm" x2="7.59017947074cm" y1="2.28cm" y2="2.2cm" /><line x1="7.59017947074cm" x2="7.58780369829cm" y1="2.2cm" y2="2.12cm" /><line x1="7.58780369829cm" x2="7.5850740479cm" y1="2.12cm" y2="2.04cm" /><line x1="7.5850740479cm" x2="7.58197209626cm" y1="2.04cm" y2="1.96cm" /><line x1="7.58197209626cm" x2="7.57847697688cm" y1="1.96cm" y2="1.88cm" /><line x1="7.57847697688cm" x2="7.57456497918cm" y1="1.88cm" y2="1.8cm" /><line x1="7.57456497918cm" x2="7.57020906007cm" y1="1.8cm" y2="1.72cm" /><line x1="7.57020906007cm" x2="7.56537824384cm" y1="1.72cm" y2="1.64cm" /><line x1="7.56537824384cm" x2="7.56003687878cm" y1="1.64cm" y2="1.56cm" /><line x1="7.56003687878cm" x2="7.55414370759cm" y1="1.56cm" y2="1.48cm" /><line x1="7.55414370759cm" x2="7.54765069311cm" y1="1.48cm" y2="1.4cm" /><line x1="7.54765069311cm" x2="7.54050151831cm" y1="1.4cm" y2="1.32cm" /><line x1="7.54050151831cm" x2="7.53262964649cm" y1="1.32cm" y2="1.24cm" /><line x1="7.53262964649cm" x2="7.52395577824cm" y1="1.24cm" y2="1.16cm" /><line x1="7.52395577824cm" x2="7.51438446668cm" y1="1.16cm" y2="1.08cm" /><line x1="7.51438446668cm" x2="7.50379953503cm" y1="1.08cm" y2="1.0cm" /></g><text x="16.5733491585cm" y="5.3cm">75km</text><text x="1.03576972558cm" y="5.3cm">75km</text><text x="13.9837525863cm" y="5.3cm">50km</text><text x="3.62536629773cm" y="5.3cm">50km</text><text x="11.3941560142cm" y="5.3cm">25km</text><text x="6.21496286989cm" y="5.3cm">25km</text><g id="horizontal_tick" stroke="black"><line x1="8.80455944204cm" x2="16.6091188841cm" y1="5.0cm" y2="5.0cm" /><line x1="1.0cm" x2="8.80455944204cm" y1="5.0cm" y2="5.0cm" /><line x1="8.80455944204cm" x2="16.6091188841cm" y1="4.61995249406cm" y2="4.61995249406cm" /><line x1="1.0cm" x2="8.80455944204cm" y1="4.61995249406cm" y2="4.61995249406cm" /><line x1="8.80455944204cm" x2="16.6091188841cm" y1="4.14489311164cm" y2="4.14489311164cm" /><line x1="1.0cm" x2="8.80455944204cm" y1="4.14489311164cm" y2="4.14489311164cm" /><line x1="8.80455944204cm" x2="16.6091188841cm" y1="3.66983372922cm" y2="3.66983372922cm" /><line x1="1.0cm" x2="8.80455944204cm" y1="3.66983372922cm" y2="3.66983372922cm" /><line x1="8.80455944204cm" x2="16.6091188841cm" y1="3.19477434679cm" y2="3.19477434679cm" /><line x1="1.0cm" x2="8.80455944204cm" y1="3.19477434679cm" y2="3.19477434679cm" /><line x1="8.80455944204cm" x2="16.6091188841cm" y1="2.71971496437cm" y2="2.71971496437cm" /><line x1="1.0cm" x2="8.80455944204cm" y1="2.71971496437cm" y2="2.71971496437cm" /><line x1="8.80455944204cm" x2="16.6091188841cm" y1="2.24465558195cm" y2="2.24465558195cm" /><line x1="1.0cm" x2="8.80455944204cm" y1="2.24465558195cm" y2="2.24465558195cm" /><line x1="8.80455944204cm" x2="16.6091188841cm" y1="1.76959619952cm" y2="1.76959619952cm" /><line x1="1.0cm" x2="8.80455944204cm" y1="1.76959619952cm" y2="1.76959619952cm" /><line x1="8.80455944204cm" x2="16.6091188841cm" y1="1.2945368171cm" y2="1.2945368171cm" /><line x1="1.0cm" x2="8.80455944204cm" y1="1.2945368171cm" y2="1.2945368171cm" /><line x1="8.80455944204cm" x2="16.6091188841cm" y1="1.0cm" y2="1.0cm" /><line x1="1.0cm" x2="8.80455944204cm" y1="1.0cm" y2="1.0cm" /></g></svg>