<?xml version="1.0" encoding="utf-8" ?>
<svg baseProfile="full" height="6.0cm" version="1.1" width="37.4930237473cm" xmlns="http://www.w3.org/2000/svg" xmlns:ev="http://www.w3.org/2001/xml-events" xmlns:xlink="http://www.w3.org/1999/xlink"><defs /><g font-size="12"><text x="36.4930237473cm" y="5.0cm">0.0°</text><text x="0.0cm" y="5.0cm">0.0°</text><text x="36.4930237473cm" y="4.38461538462cm">10.0°</text><text x="0.0cm" y="4.38461538462cm">10.0°</text><text x="36.4930237473cm" y="3.76923076923cm">20.0°</text><text x="0.0cm" y="3.76923076923cm">20.0°</text><text x="36.4930237473cm" y="3.15384615385cm">30.0°</text><text x="0.0cm" y="3.15384615385cm">30.0°</text><text x="36.4930237473cm" y="2.53846153846cm">40.0°</text><text x="0.0cm" y="2.53846153846cm">40.0°</text><text x="36.4930237473cm" y="1.92307692308cm">50.0°</text><text x="0.0cm" y="1.92307692308cm">50.0°</text><text x="36.4930237473cm" y="1.30769230769cm">60.0°</text><text x="0.0cm" y="1.30769230769cm">60.0°</text></g><g id="vertical" stroke="black"><line x1="18.7465118736cm" x2="18.7465118736cm" y1="1.0cm" y2="1.08cm" /><line x1="18.7465118736cm" x2="18.7465118736cm" y1="1.08cm" y2="1.16cm" /><line x1="18.7465118736cm" x2="18.7465118736cm" y1="1.16cm" y2="1.24cm" /><line x1="18.7465118736cm" x2="18.7465118736cm" y1="1.24cm" y2="1.32cm" /><line x1="18.7465118736cm" x2="18.7465118736cm" y1="1.32cm" y2="1.4cm" /><line x1="18.7465118736cm" x2="18.7465118736cm" y1="1.4cm" y2="1.48cm" /><line x1="18.7465118736cm" x2="18.7465118736cm" y1="1.48cm" y2="1.56cm" /><line x1="18.7465118736cm" x2="18.7465118736cm" y1="1.56cm" y2="1.64cm" /><line x1="18.7465118736cm" x2="18.7465118736cm" y1="1.64cm" y2="1.72cm" /><line x1="18.7465118736cm" x2="18.7465118736cm" y1="1.72cm" y2="1.8cm" /><line x1="18.7465118736cm" x2="18.7465118736cm" y1="1.8cm" y2="1.88cm" /><line x1="18.7465118736cm" x2="18.7465118736cm" y1="1.88cm" y2="1.96cm" /><line x1="18.7465118736cm" x2="18.7465118736cm" y1="1.96cm" y2="2.04cm" /><line x1="18.7465118736cm" x2="18.7465118736cm" y1="2.04cm" y2="2.12cm" /><line x1="18.7465118736cm" x2="18.7465118736cm" y1="2.12cm" y2="2.2cm" /><line x1="18.7465118736cm" x2="18.7465118736cm" y1="2.2cm" y2="2.28cm" /><line x1="18.7465118736cm" x2="18.7465118736cm" y1="2.28cm" y2="2.36cm" /><line x1="18.7465118736cm" x2="18.7465118736cm" y1="2.36cm" y2="2.44cm" /><line x1="18.7465118736cm" x2="18.7465118736cm" y1="2.44cm" y2="2.52cm" /><line x1="18.7465118736cm" x2="18.7465118736cm" y1="2.52cm" y2="2.6cm" /><line x1="18.7465118736cm" x2="18.7465118736cm" y1="2.6cm" y2="2.68cm" /><line x1="18.7465118736cm" x2="18.7465118736cm" y1="2.68cm" y2="2.76cm" /><line x1="18.7465118736cm" x2="18.7465118736cm" y1="2.76cm" y2="2.84cm" /><line x1="18.7465118736cm" x2="18.7465118736cm" y1="2.84cm" y2="2.92cm" /><line x1="18.7465118736cm" x2="18.7465118736cm" y1="2.92cm" y2="3.0cm" /><line x1="18.7465118736cm" x2="18.7465118736cm" y1="3.0cm" y2="3.08cm" /><line x1="18.7465118736cm" x2="18.7465118736cm" y1="3.08cm" y2="3.16cm" /><line x1="18.7465118736cm" x2="18.7465118736cm" y1="3.16cm" y2="3.24cm" /><line x1="18.7465118736cm" x2="18.7465118736cm" y1="3.24cm" y2="3.32cm" /><line x1="18.7465118736cm" x2="18.7465118736cm" y1="3.32cm" y2="3.4cm" /><line x1="18.7465118736cm" x2="18.7465118736cm" y1="3.4cm" y2="3.48cm" /><line x1="18.7465118736cm" x2="18.7465118736cm" y1="3.48cm" y2="3.56cm" /><line x1="18.7465118736cm" x2="18.7465118736cm" y1="3.56cm" y2="3.64cm" /><line x1="18.7465118736cm" x2="18.7465118736cm" y1="3.64cm" y2="3.72cm" /><line x1="18.7465118736cm" x2="18.7465118736cm" y1="3.72cm" y2="3.8cm" /><line x1="18.7465118736cm" x2="18.7465118736cm" y1="3.8cm" y2="3.88cm" /><line x1="18.7465118736cm" x2="18.7465118736cm" y1="3.88cm" y2="3.96cm" /><line x1="18.7465118736cm" x2="18.7465118736cm" y1="3.96cm" y2="4.04cm" /><line x1="18.7465118736cm" x2="18.7465118736cm" y1="4.04cm" y2="4.12cm" /><line x1="18.7465118736cm" x2="18.7465118736cm" y1="4.12cm" y2="4.2cm" /><line x1="18.7465118736cm" x2="18.7465118736cm" y1="4.2cm" y2="4.28cm" /><line x1="18.7465118736cm" x2="18.7465118736cm" y1="4.28cm" y2="4.36cm" /><line x1="18.7465118736cm" x2="18.7465118736cm" y1="4.36cm" y2="4.44cm" /><line x1="18.7465118736cm" x2="18.7465118736cm" y1="4.44cm" y2="4.52cm" /><line x1="18.7465118736cm" x2="18.7465118736cm" y1="4.52cm" y2="4.6cm" /><line x1="18.7465118736cm" x2="18.7465118736cm" y1="4.6cm" y2="4.68cm" /><line x1="18.7465118736cm" x2="18.7465118736cm" y1="4.68cm" y2="4.76cm" /><line x1="18.7465118736cm" x2="18.7465118736cm" y1="4.76cm" y2="4.84cm" /><line x1="18.7465118736cm" x2="18.7465118736cm" y1="4.84cm" y2="4.92cm" /><line x1="18.7465118736cm" x2="18.7465118736cm" y1="4.92cm" y2="5.0cm" /><line x1="26.2465118736cm" x2="26.2484428007cm" y1="5.0cm" y2="4.92cm" /><line x1="26.2484428007cm" x2="26.2542405564cm" y1="4.92cm" y2="4.84cm" /><line x1="26.2542405564cm" x2="26.263920095cm" y1="4.84cm" y2="4.76cm" /><line x1="26.263920095cm" x2="26.2775064453cm" y1="4.76cm" y2="4.68cm" /><line x1="26.2775064453cm" x2="26.2950348689cm" y1="4.68cm" y2="4.6cm" /><line x1="26.2950348689cm" x2="26.3165510841cm" y1="4.6cm" y2="4.52cm" /><line x1="26.3165510841cm" x2="26.3421115591cm" y1="4.52cm" y2="4.44cm" /><line x1="26.3421115591cm" x2="26.3717838773cm" y1="4.44cm" y2="4.36cm" /><line x1="26.3717838773cm" x2="26.4056471783cm" y1="4.36cm" y2="4.28cm" /><line x1="26.4056471783cm" x2="26.4437926821cm" y1="4.28cm" y2="4.2cm" /><line x1="26.4437926821cm" x2="26.4863243007cm" y1="4.2cm" y2="4.12cm" /><line x1="26.4863243007cm" x2="26.5333593473cm" y1="4.12cm" y2="4.04cm" /><line x1="26.5333593473cm" x2="26.5850293497cm" y1="4.04cm" y2="3.96cm" /><line x1="26.5850293497cm" x2="26.6414809814cm" y1="3.96cm" y2="3.88cm" /><line x1="26.6414809814cm" x2="26.7028771205cm" y1="3.88cm" y2="3.8cm" /><line x1="26.7028771205cm" x2="26.7693980538cm" y1="3.8cm" y2="3.72cm" /><line x1="26.7693980538cm" x2="26.8412428405cm" y1="3.72cm" y2="3.64cm" /><line x1="26.8412428405cm" x2="26.9186308585cm" y1="3.64cm" y2="3.56cm" /><line x1="26.9186308585cm" x2="27.0018035546cm" y1="3.56cm" y2="3.48cm" /><line x1="27.0018035546cm" x2="27.0910264272cm" y1="3.48cm" y2="3.4cm" /><line x1="27.0910264272cm" x2="27.1865912739cm" y1="3.4cm" y2="3.32cm" /><line x1="27.1865912739cm" x2="27.2888187405cm" y1="3.32cm" y2="3.24cm" /><line x1="27.2888187405cm" x2="27.3980612181cm" y1="3.24cm" y2="3.16cm" /><line x1="27.3980612181cm" x2="27.5147061381cm" y1="3.16cm" y2="3.08cm" /><line x1="27.5147061381cm" x2="27.6391797294cm" y1="3.08cm" y2="3.0cm" /><line x1="27.6391797294cm" x2="27.77195131cm" y1="3.0cm" y2="2.92cm" /><line x1="27.77195131cm" x2="27.9135382018cm" y1="2.92cm" y2="2.84cm" /><line x1="27.9135382018cm" x2="28.064511372cm" y1="2.84cm" y2="2.76cm" /><line x1="28.064511372cm" x2="28.2255019283cm" y1="2.76cm" y2="2.68cm" /><line x1="28.2255019283cm" x2="28.3972086178cm" y1="2.68cm" y2="2.6cm" /><line x1="28.3972086178cm" x2="28.5804065143cm" y1="2.6cm" y2="2.52cm" /><line x1="28.5804065143cm" x2="28.7759571147cm" y1="2.52cm" y2="2.44cm" /><line x1="28.7759571147cm" x2="28.984820118cm" y1="2.44cm" y2="2.36cm" /><line x1="28.984820118cm" x2="29.2080672195cm" y1="2.36cm" y2="2.28cm" /><line x1="29.2080672195cm" x2="29.4468983316cm" y1="2.28cm" y2="2.2cm" /><line x1="29.4468983316cm" x2="29.7026607421cm" y1="2.2cm" y2="2.12cm" /><line x1="29.7026607421cm" x2="29.9768718472cm" y1="2.12cm" y2="2.04cm" /><line x1="29.9768718472cm" x2="30.2712462608cm" y1="2.04cm" y2="1.96cm" /><line x1="30.2712462608cm" x2="30.5877283109cm" y1="1.96cm" y2="1.88cm" /><line x1="30.5877283109cm" x2="30.9285312148cm" y1="1.88cm" y2="1.8cm" /><line x1="30.9285312148cm" x2="31.2961845873cm" y1="1.8cm" y2="1.72cm" /><line x1="31.2961845873cm" x2="31.6935924246cm" y1="1.72cm" y2="1.64cm" /><line x1="31.6935924246cm" x2="32.1241043578cm" y1="1.64cm" y2="1.56cm" /><line x1="32.1241043578cm" x2="32.5916038579cm" y1="1.56cm" y2="1.48cm" /><line x1="32.5916038579cm" x2="33.1006182894cm" y1="1.48cm" y2="1.4cm" /><line x1="33.1006182894cm" x2="33.6564573942cm" y1="1.4cm" y2="1.32cm" /><line x1="33.6564573942cm" x2="34.2653891592cm" y1="1.32cm" y2="1.24cm" /><line x1="34.2653891592cm" x2="34.9348653916cm" y1="1.24cm" y2="1.16cm" /><line x1="34.9348653916cm" x2="35.6738142019cm" y1="1.16cm" y2="1.08cm" /><line x1="35.6738142019cm" x2="36.4930237473cm" y1="1.08cm" y2="1.0cm" /><line x1="11.2465118736cm" x2="11.2445809466cm" y1="5.0cm" y2="4.92cm" /><line x1="11.2445809466cm" x2="11.2387831909cm" y1="4.92cm" y2="4.84cm" /><line x1="11.2387831909cm" x2="11.2291036523cm" y1="4.84cm" y2="4.76cm" /><line x1="11.2291036523cm" x2="11.215517302cm" y1="4.76cm" y2="4.68cm" /><line x1="11.215517302cm" x2="11.1979888784cm" y1="4.68cm" y2="4.6cm" /><line x1="11.1979888784cm" x2="11.1764726632cm" y1="4.6cm" y2="4.52cm" /><line x1="11.1764726632cm" x2="11.1509121882cm" y1="4.52cm" y2="4.44cm" /><line x1="11.1509121882cm" x2="11.12123987cm" y1="4.44cm" y2="4.36cm" /><line x1="11.12123987cm" x2="11.0873765689cm" y1="4.36cm" y2="4.28cm" /><line x1="11.0873765689cm" x2="11.0492310652cm" y1="4.28cm" y2="4.2cm" /><line x1="11.0492310652cm" x2="11.0066994465cm" y1="4.2cm" y2="4.12cm" /><line x1="11.0066994465cm" x2="10.9596644cm" y1="4.12cm" y2="4.04cm" /><line x1="10.9596644cm" x2="10.9079943975cm" y1="4.04cm" y2="3.96cm" /><line x1="10.9079943975cm" x2="10.8515427659cm" y1="3.96cm" y2="3.88cm" /><line x1="10.8515427659cm" x2="10.7901466268cm" y1="3.88cm" y2="3.8cm" /><line x1="10.7901466268cm" x2="10.7236256935cm" y1="3.8cm" y2="3.72cm" /><line x1="10.7236256935cm" x2="10.6517809068cm" y1="3.72cm" y2="3.64cm" /><line x1="10.6517809068cm" x2="10.5743928888cm" y1="3.64cm" y2="3.56cm" /><line x1="10.5743928888cm" x2="10.4912201927cm" y1="3.56cm" y2="3.48cm" /><line x1="10.4912201927cm" x2="10.4019973201cm" y1="3.48cm" y2="3.4cm" /><line x1="10.4019973201cm" x2="10.3064324734cm" y1="3.4cm" y2="3.32cm" /><line x1="10.3064324734cm" x2="10.2042050068cm" y1="3.32cm" y2="3.24cm" /><line x1="10.2042050068cm" x2="10.0949625291cm" y1="3.24cm" y2="3.16cm" /><line x1="10.0949625291cm" x2="9.97831760914cm" y1="3.16cm" y2="3.08cm" /><line x1="9.97831760914cm" x2="9.85384401789cm" y1="3.08cm" y2="3.0cm" /><line x1="9.85384401789cm" x2="9.72107243727cm" y1="3.0cm" y2="2.92cm" /><line x1="9.72107243727cm" x2="9.5794855455cm" y1="2.92cm" y2="2.84cm" /><line x1="9.5794855455cm" x2="9.42851237528cm" y1="2.84cm" y2="2.76cm" /><line x1="9.42851237528cm" x2="9.267521819cm" y1="2.76cm" y2="2.68cm" /><line x1="9.267521819cm" x2="9.09581512944cm" y1="2.68cm" y2="2.6cm" /><line x1="9.09581512944cm" x2="8.91261723298cm" y1="2.6cm" y2="2.52cm" /><line x1="8.91261723298cm" x2="8.71706663262cm" y1="2.52cm" y2="2.44cm" /><line x1="8.71706663262cm" x2="8.50820362929cm" y1="2.44cm" y2="2.36cm" /><line x1="8.50820362929cm" x2="8.28495652774cm" y1="2.36cm" y2="2.28cm" /><line x1="8.28495652774cm" x2="8.04612541564cm" y1="2.28cm" y2="2.2cm" /><line x1="8.04612541564cm" x2="7.79036300522cm" y1="2.2cm" y2="2.12cm" /><line x1="7.79036300522cm" x2="7.51615190009cm" y1="2.12cm" y2="2.04cm" /><line x1="7.51615190009cm" x2="7.22177748649cm" y1="2.04cm" y2="1.96cm" /><line x1="7.22177748649cm" x2="6.90529543639cm" y1="1.96cm" y2="1.88cm" /><line x1="6.90529543639cm" x2="6.56449253252cm" y1="1.88cm" y2="1.8cm" /><line x1="6.56449253252cm" x2="6.19683915998cm" y1="1.8cm" y2="1.72cm" /><line x1="6.19683915998cm" x2="5.79943132264cm" y1="1.72cm" y2="1.64cm" /><line x1="5.79943132264cm" x2="5.36891938948cm" y1="1.64cm" y2="1.56cm" /><line x1="5.36891938948cm" x2="4.90141988937cm" y1="1.56cm" y2="1.48cm" /><line x1="4.90141988937cm" x2="4.39240545791cm" y1="1.48cm" y2="1.4cm" /><line x1="4.39240545791cm" x2="3.83656635311cm" y1="1.4cm" y2="1.32cm" /><line x1="3.83656635311cm" x2="3.2276345881cm" y1="1.32cm" y2="1.24cm" /><line x1="3.2276345881cm" x2="2.55815835566cm" y1="1.24cm" y2="1.16cm" /><line x1="2.55815835566cm" x2="1.81920954544cm" y1="1.16cm" y2="1.08cm" /><line x1="1.81920954544cm" x2="1.0cm" y1="1.08cm" y2="1.0cm" /><line x1="23.7465118736cm" x2="23.7477991584cm" y1="5.0cm" y2="4.92cm" /><line x1="23.7477991584cm" x2="23.7516643288cm" y1="4.92cm" y2="4.84cm" /><line x1="23.7516643288cm" x2="23.7581173545cm" y1="4.84cm" y2="4.76cm" /><line x1="23.7581173545cm" x2="23.7671749214cm" y1="4.76cm" y2="4.68cm" /><line x1="23.7671749214cm" x2="23.7788605371cm" y1="4.68cm" y2="4.6cm" /><line x1="23.7788605371cm" x2="23.7932046806cm" y1="4.6cm" y2="4.52cm" /><line x1="23.7932046806cm" x2="23.8102449973cm" y1="4.52cm" y2="4.44cm" /><line x1="23.8102449973cm" x2="23.8300265428cm" y1="4.44cm" y2="4.36cm" /><line x1="23.8300265428cm" x2="23.8526020768cm" y1="4.36cm" y2="4.28cm" /><line x1="23.8526020768cm" x2="23.8780324126cm" y1="4.28cm" y2="4.2cm" /><line x1="23.8780324126cm" x2="23.906386825cm" y1="4.2cm" y2="4.12cm" /><line x1="23.906386825cm" x2="23.9377435228cm" y1="4.12cm" y2="4.04cm" /><line x1="23.9377435228cm" x2="23.972190191cm" y1="4.04cm" y2="3.96cm" /><line x1="23.972190191cm" x2="24.0098246121cm" y1="3.96cm" y2="3.88cm" /><line x1="24.0098246121cm" x2="24.0507553716cm" y1="3.88cm" y2="3.8cm" /><line x1="24.0507553716cm" x2="24.0951026604cm" y1="3.8cm" y2="3.72cm" /><line x1="24.0951026604cm" x2="24.1429991849cm" y1="3.72cm" y2="3.64cm" /><line x1="24.1429991849cm" x2="24.1945911969cm" y1="3.64cm" y2="3.56cm" /><line x1="24.1945911969cm" x2="24.2500396609cm" y1="3.56cm" y2="3.48cm" /><line x1="24.2500396609cm" x2="24.309521576cm" y1="3.48cm" y2="3.4cm" /><line x1="24.309521576cm" x2="24.3732314738cm" y1="3.4cm" y2="3.32cm" /><line x1="24.3732314738cm" x2="24.4413831182cm" y1="3.32cm" y2="3.24cm" /><line x1="24.4413831182cm" x2="24.5142114366cm" y1="3.24cm" y2="3.16cm" /><line x1="24.5142114366cm" x2="24.5919747166cm" y1="3.16cm" y2="3.08cm" /><line x1="24.5919747166cm" x2="24.6749571108cm" y1="3.08cm" y2="3.0cm" /><line x1="24.6749571108cm" x2="24.7634714979cm" y1="3.0cm" y2="2.92cm" /><line x1="24.7634714979cm" x2="24.8578627591cm" y1="2.92cm" y2="2.84cm" /><line x1="24.8578627591cm" x2="24.9585115392cm" y1="2.84cm" y2="2.76cm" /><line x1="24.9585115392cm" x2="25.0658385767cm" y1="2.76cm" y2="2.68cm" /><line x1="25.0658385767cm" x2="25.1803097031cm" y1="2.68cm" y2="2.6cm" /><line x1="25.1803097031cm" x2="25.3024416341cm" y1="2.6cm" y2="2.52cm" /><line x1="25.3024416341cm" x2="25.432808701cm" y1="2.52cm" y2="2.44cm" /><line x1="25.432808701cm" x2="25.5720507032cm" y1="2.44cm" y2="2.36cm" /><line x1="25.5720507032cm" x2="25.7208821042cm" y1="2.36cm" y2="2.28cm" /><line x1="25.7208821042cm" x2="25.8801028456cm" y1="2.28cm" y2="2.2cm" /><line x1="25.8801028456cm" x2="26.0506111193cm" y1="2.2cm" y2="2.12cm" /><line x1="26.0506111193cm" x2="26.2334185227cm" y1="2.12cm" y2="2.04cm" /><line x1="26.2334185227cm" x2="26.4296681317cm" y1="2.04cm" y2="1.96cm" /><line x1="26.4296681317cm" x2="26.6406561651cm" y1="1.96cm" y2="1.88cm" /><line x1="26.6406561651cm" x2="26.8678581011cm" y1="1.88cm" y2="1.8cm" /><line x1="26.8678581011cm" x2="27.1129603494cm" y1="1.8cm" y2="1.72cm" /><line x1="27.1129603494cm" x2="27.3778989076cm" y1="1.72cm" y2="1.64cm" /><line x1="27.3778989076cm" x2="27.6649068631cm" y1="1.64cm" y2="1.56cm" /><line x1="27.6649068631cm" x2="27.9765731965cm" y1="1.56cm" y2="1.48cm" /><line x1="27.9765731965cm" x2="28.3159161508cm" y1="1.48cm" y2="1.4cm" /><line x1="28.3159161508cm" x2="28.686475554cm" y1="1.4cm" y2="1.32cm" /><line x1="28.686475554cm" x2="29.092430064cm" y1="1.32cm" y2="1.24cm" /><line x1="29.092430064cm" x2="29.5387475523cm" y1="1.24cm" y2="1.16cm" /><line x1="29.5387475523cm" x2="30.0313800924cm" y1="1.16cm" y2="1.08cm" /><line x1="30.0313800924cm" x2="30.5775197894cm" y1="1.08cm" y2="1.0cm" /><line x1="13.7465118736cm" x2="13.7452245889cm" y1="5.0cm" y2="4.92cm" /><line x1="13.7452245889cm" x2="13.7413594185cm" y1="4.92cm" y2="4.84cm" /><line x1="13.7413594185cm" x2="13.7349063928cm" y1="4.84cm" y2="4.76cm" /><line x1="13.7349063928cm" x2="13.7258488259cm" y1="4.76cm" y2="4.68cm" /><line x1="13.7258488259cm" x2="13.7141632101cm" y1="4.68cm" y2="4.6cm" /><line x1="13.7141632101cm" x2="13.6998190667cm" y1="4.6cm" y2="4.52cm" /><line x1="13.6998190667cm" x2="13.68277875cm" y1="4.52cm" y2="4.44cm" /><line x1="13.68277875cm" x2="13.6629972045cm" y1="4.44cm" y2="4.36cm" /><line x1="13.6629972045cm" x2="13.6404216705cm" y1="4.36cm" y2="4.28cm" /><line x1="13.6404216705cm" x2="13.6149913347cm" y1="4.28cm" y2="4.2cm" /><line x1="13.6149913347cm" x2="13.5866369222cm" y1="4.2cm" y2="4.12cm" /><line x1="13.5866369222cm" x2="13.5552802245cm" y1="4.12cm" y2="4.04cm" /><line x1="13.5552802245cm" x2="13.5208335562cm" y1="4.04cm" y2="3.96cm" /><line x1="13.5208335562cm" x2="13.4831991352cm" y1="3.96cm" y2="3.88cm" /><line x1="13.4831991352cm" x2="13.4422683757cm" y1="3.88cm" y2="3.8cm" /><line x1="13.4422683757cm" x2="13.3979210869cm" y1="3.8cm" y2="3.72cm" /><line x1="13.3979210869cm" x2="13.3500245624cm" y1="3.72cm" y2="3.64cm" /><line x1="13.3500245624cm" x2="13.2984325504cm" y1="3.64cm" y2="3.56cm" /><line x1="13.2984325504cm" x2="13.2429840864cm" y1="3.56cm" y2="3.48cm" /><line x1="13.2429840864cm" x2="13.1835021713cm" y1="3.48cm" y2="3.4cm" /><line x1="13.1835021713cm" x2="13.1197922735cm" y1="3.4cm" y2="3.32cm" /><line x1="13.1197922735cm" x2="13.0516406291cm" y1="3.32cm" y2="3.24cm" /><line x1="13.0516406291cm" x2="12.9788123106cm" y1="3.24cm" y2="3.16cm" /><line x1="12.9788123106cm" x2="12.9010490306cm" y1="3.16cm" y2="3.08cm" /><line x1="12.9010490306cm" x2="12.8180666365cm" y1="3.08cm" y2="3.0cm" /><line x1="12.8180666365cm" x2="12.7295522494cm" y1="3.0cm" y2="2.92cm" /><line x1="12.7295522494cm" x2="12.6351609882cm" y1="2.92cm" y2="2.84cm" /><line x1="12.6351609882cm" x2="12.5345122081cm" y1="2.84cm" y2="2.76cm" /><line x1="12.5345122081cm" x2="12.4271851705cm" y1="2.76cm" y2="2.68cm" /><line x1="12.4271851705cm" x2="12.3127140442cm" y1="2.68cm" y2="2.6cm" /><line x1="12.3127140442cm" x2="12.1905821132cm" y1="2.6cm" y2="2.52cm" /><line x1="12.1905821132cm" x2="12.0602150463cm" y1="2.52cm" y2="2.44cm" /><line x1="12.0602150463cm" x2="11.9209730441cm" y1="2.44cm" y2="2.36cm" /><line x1="11.9209730441cm" x2="11.772141643cm" y1="2.36cm" y2="2.28cm" /><line x1="11.772141643cm" x2="11.6129209016cm" y1="2.28cm" y2="2.2cm" /><line x1="11.6129209016cm" x2="11.442412628cm" y1="2.2cm" y2="2.12cm" /><line x1="11.442412628cm" x2="11.2596052246cm" y1="2.12cm" y2="2.04cm" /><line x1="11.2596052246cm" x2="11.0633556155cm" y1="2.04cm" y2="1.96cm" /><line x1="11.0633556155cm" x2="10.8523675821cm" y1="1.96cm" y2="1.88cm" /><line x1="10.8523675821cm" x2="10.6251656462cm" y1="1.88cm" y2="1.8cm" /><line x1="10.6251656462cm" x2="10.3800633979cm" y1="1.8cm" y2="1.72cm" /><line x1="10.3800633979cm" x2="10.1151248396cm" y1="1.72cm" y2="1.64cm" /><line x1="10.1151248396cm" x2="9.8281168842cm" y1="1.64cm" y2="1.56cm" /><line x1="9.8281168842cm" x2="9.5164505508cm" y1="1.56cm" y2="1.48cm" /><line x1="9.5164505508cm" x2="9.17710759649cm" y1="1.48cm" y2="1.4cm" /><line x1="9.17710759649cm" x2="8.80654819329cm" y1="1.4cm" y2="1.32cm" /><line x1="8.80654819329cm" x2="8.40059368328cm" y1="1.32cm" y2="1.24cm" /><line x1="8.40059368328cm" x2="7.95427619499cm" y1="1.24cm" y2="1.16cm" /><line x1="7.95427619499cm" x2="7.46164365484cm" y1="1.16cm" y2="1.08cm" /><line x1="7.46164365484cm" x2="6.91550395788cm" y1="1.08cm" y2="1.0cm" /><line x1="21.2465118736cm" x2="21.247155516cm" y1="5.0cm" y2="4.92cm" /><line x1="21.247155516cm" x2="21.2490881012cm" y1="4.92cm" y2="4.84cm" /><line x1="21.2490881012cm" x2="21.2523146141cm" y1="4.84cm" y2="4.76cm" /><line x1="21.2523146141cm" x2="21.2568433975cm" y1="4.76cm" y2="4.68cm" /><line x1="21.2568433975cm" x2="21.2626862054cm" y1="4.68cm" y2="4.6cm" /><line x1="21.2626862054cm" x2="21.2698582771cm" y1="4.6cm" y2="4.52cm" /><line x1="21.2698582771cm" x2="21.2783784355cm" y1="4.52cm" y2="4.44cm" /><line x1="21.2783784355cm" x2="21.2882692082cm" y1="4.44cm" y2="4.36cm" /><line x1="21.2882692082cm" x2="21.2995569752cm" y1="4.36cm" y2="4.28cm" /><line x1="21.2995569752cm" x2="21.3122721431cm" y1="4.28cm" y2="4.2cm" /><line x1="21.3122721431cm" x2="21.3264493493cm" y1="4.2cm" y2="4.12cm" /><line x1="21.3264493493cm" x2="21.3421276982cm" y1="4.12cm" y2="4.04cm" /><line x1="21.3421276982cm" x2="21.3593510323cm" y1="4.04cm" y2="3.96cm" /><line x1="21.3593510323cm" x2="21.3781682429cm" y1="3.96cm" y2="3.88cm" /><line x1="21.3781682429cm" x2="21.3986336226cm" y1="3.88cm" y2="3.8cm" /><line x1="21.3986336226cm" x2="21.420807267cm" y1="3.8cm" y2="3.72cm" /><line x1="21.420807267cm" x2="21.4447555293cm" y1="3.72cm" y2="3.64cm" /><line x1="21.4447555293cm" x2="21.4705515353cm" y1="3.64cm" y2="3.56cm" /><line x1="21.4705515353cm" x2="21.4982757673cm" y1="3.56cm" y2="3.48cm" /><line x1="21.4982757673cm" x2="21.5280167248cm" y1="3.48cm" y2="3.4cm" /><line x1="21.5280167248cm" x2="21.5598716737cm" y1="3.4cm" y2="3.32cm" /><line x1="21.5598716737cm" x2="21.5939474959cm" y1="3.32cm" y2="3.24cm" /><line x1="21.5939474959cm" x2="21.6303616551cm" y1="3.24cm" y2="3.16cm" /><line x1="21.6303616551cm" x2="21.6692432951cm" y1="3.16cm" y2="3.08cm" /><line x1="21.6692432951cm" x2="21.7107344922cm" y1="3.08cm" y2="3.0cm" /><line x1="21.7107344922cm" x2="21.7549916858cm" y1="3.0cm" y2="2.92cm" /><line x1="21.7549916858cm" x2="21.8021873164cm" y1="2.92cm" y2="2.84cm" /><line x1="21.8021873164cm" x2="21.8525117064cm" y1="2.84cm" y2="2.76cm" /><line x1="21.8525117064cm" x2="21.9061752252cm" y1="2.76cm" y2="2.68cm" /><line x1="21.9061752252cm" x2="21.9634107884cm" y1="2.68cm" y2="2.6cm" /><line x1="21.9634107884cm" x2="22.0244767539cm" y1="2.6cm" y2="2.52cm" /><line x1="22.0244767539cm" x2="22.0896602873cm" y1="2.52cm" y2="2.44cm" /><line x1="22.0896602873cm" x2="22.1592812884cm" y1="2.44cm" y2="2.36cm" /><line x1="22.1592812884cm" x2="22.2336969889cm" y1="2.36cm" y2="2.28cm" /><line x1="22.2336969889cm" x2="22.3133073596cm" y1="2.28cm" y2="2.2cm" /><line x1="22.3133073596cm" x2="22.3985614965cm" y1="2.2cm" y2="2.12cm" /><line x1="22.3985614965cm" x2="22.4899651982cm" y1="2.12cm" y2="2.04cm" /><line x1="22.4899651982cm" x2="22.5880900027cm" y1="2.04cm" y2="1.96cm" /><line x1="22.5880900027cm" x2="22.6935840194cm" y1="1.96cm" y2="1.88cm" /><line x1="22.6935840194cm" x2="22.8071849874cm" y1="1.88cm" y2="1.8cm" /><line x1="22.8071849874cm" x2="22.9297361115cm" y1="1.8cm" y2="1.72cm" /><line x1="22.9297361115cm" x2="23.0622053906cm" y1="1.72cm" y2="1.64cm" /><line x1="23.0622053906cm" x2="23.2057093684cm" y1="1.64cm" y2="1.56cm" /><line x1="23.2057093684cm" x2="23.3615425351cm" y1="1.56cm" y2="1.48cm" /><line x1="23.3615425351cm" x2="23.5312140122cm" y1="1.48cm" y2="1.4cm" /><line x1="23.5312140122cm" x2="23.7164937138cm" y1="1.4cm" y2="1.32cm" /><line x1="23.7164937138cm" x2="23.9194709688cm" y1="1.32cm" y2="1.24cm" /><line x1="23.9194709688cm" x2="24.142629713cm" y1="1.24cm" y2="1.16cm" /><line x1="24.142629713cm" x2="24.388945983cm" y1="1.16cm" y2="1.08cm" /><line x1="24.388945983cm" x2="24.6620158315cm" y1="1.08cm" y2="1.0cm" /><line x1="16.2465118736cm" x2="16.2458682313cm" y1="5.0cm" y2="4.92cm" /><line x1="16.2458682313cm" x2="16.2439356461cm" y1="4.92cm" y2="4.84cm" /><line x1="16.2439356461cm" x2="16.2407091332cm" y1="4.84cm" y2="4.76cm" /><line x1="16.2407091332cm" x2="16.2361803497cm" y1="4.76cm" y2="4.68cm" /><line x1="16.2361803497cm" x2="16.2303375419cm" y1="4.68cm" y2="4.6cm" /><line x1="16.2303375419cm" x2="16.2231654702cm" y1="4.6cm" y2="4.52cm" /><line x1="16.2231654702cm" x2="16.2146453118cm" y1="4.52cm" y2="4.44cm" /><line x1="16.2146453118cm" x2="16.2047545391cm" y1="4.44cm" y2="4.36cm" /><line x1="16.2047545391cm" x2="16.1934667721cm" y1="4.36cm" y2="4.28cm" /><line x1="16.1934667721cm" x2="16.1807516042cm" y1="4.28cm" y2="4.2cm" /><line x1="16.1807516042cm" x2="16.1665743979cm" y1="4.2cm" y2="4.12cm" /><line x1="16.1665743979cm" x2="16.1508960491cm" y1="4.12cm" y2="4.04cm" /><line x1="16.1508960491cm" x2="16.1336727149cm" y1="4.04cm" y2="3.96cm" /><line x1="16.1336727149cm" x2="16.1148555044cm" y1="3.96cm" y2="3.88cm" /><line x1="16.1148555044cm" x2="16.0943901247cm" y1="3.88cm" y2="3.8cm" /><line x1="16.0943901247cm" x2="16.0722164803cm" y1="3.8cm" y2="3.72cm" /><line x1="16.0722164803cm" x2="16.048268218cm" y1="3.72cm" y2="3.64cm" /><line x1="16.048268218cm" x2="16.022472212cm" y1="3.64cm" y2="3.56cm" /><line x1="16.022472212cm" x2="15.99474798cm" y1="3.56cm" y2="3.48cm" /><line x1="15.99474798cm" x2="15.9650070225cm" y1="3.48cm" y2="3.4cm" /><line x1="15.9650070225cm" x2="15.9331520736cm" y1="3.4cm" y2="3.32cm" /><line x1="15.9331520736cm" x2="15.8990762514cm" y1="3.32cm" y2="3.24cm" /><line x1="15.8990762514cm" x2="15.8626620921cm" y1="3.24cm" y2="3.16cm" /><line x1="15.8626620921cm" x2="15.8237804521cm" y1="3.16cm" y2="3.08cm" /><line x1="15.8237804521cm" x2="15.7822892551cm" y1="3.08cm" y2="3.0cm" /><line x1="15.7822892551cm" x2="15.7380320615cm" y1="3.0cm" y2="2.92cm" /><line x1="15.7380320615cm" x2="15.6908364309cm" y1="2.92cm" y2="2.84cm" /><line x1="15.6908364309cm" x2="15.6405120409cm" y1="2.84cm" y2="2.76cm" /><line x1="15.6405120409cm" x2="15.5868485221cm" y1="2.76cm" y2="2.68cm" /><line x1="15.5868485221cm" x2="15.5296129589cm" y1="2.68cm" y2="2.6cm" /><line x1="15.5296129589cm" x2="15.4685469934cm" y1="2.6cm" y2="2.52cm" /><line x1="15.4685469934cm" x2="15.40336346cm" y1="2.52cm" y2="2.44cm" /><line x1="15.40336346cm" x2="15.3337424589cm" y1="2.44cm" y2="2.36cm" /><line x1="15.3337424589cm" x2="15.2593267583cm" y1="2.36cm" y2="2.28cm" /><line x1="15.2593267583cm" x2="15.1797163876cm" y1="2.28cm" y2="2.2cm" /><line x1="15.1797163876cm" x2="15.0944622508cm" y1="2.2cm" y2="2.12cm" /><line x1="15.0944622508cm" x2="15.0030585491cm" y1="2.12cm" y2="2.04cm" /><line x1="15.0030585491cm" x2="14.9049337446cm" y1="2.04cm" y2="1.96cm" /><line x1="14.9049337446cm" x2="14.7994397279cm" y1="1.96cm" y2="1.88cm" /><line x1="14.7994397279cm" x2="14.6858387599cm" y1="1.88cm" y2="1.8cm" /><line x1="14.6858387599cm" x2="14.5632876358cm" y1="1.8cm" y2="1.72cm" /><line x1="14.5632876358cm" x2="14.4308183566cm" y1="1.72cm" y2="1.64cm" /><line x1="14.4308183566cm" x2="14.2873143789cm" y1="1.64cm" y2="1.56cm" /><line x1="14.2873143789cm" x2="14.1314812122cm" y1="1.56cm" y2="1.48cm" /><line x1="14.1314812122cm" x2="13.9618097351cm" y1="1.48cm" y2="1.4cm" /><line x1="13.9618097351cm" x2="13.7765300335cm" y1="1.4cm" y2="1.32cm" /><line x1="13.7765300335cm" x2="13.5735527785cm" y1="1.32cm" y2="1.24cm" /><line x1="13.5735527785cm" x2="13.3503940343cm" y1="1.24cm" y2="1.16cm" /><line x1="13.3503940343cm" x2="13.1040777642cm" y1="1.16cm" y2="1.08cm" /><line x1="13.1040777642cm" x2="12.8310079158cm" y1="1.08cm" y2="1.0cm" /><line x1="19.9965118736cm" x2="19.9968336948cm" y1="5.0cm" y2="4.92cm" /><line x1="19.9968336948cm" x2="19.9977999874cm" y1="4.92cm" y2="4.84cm" /><line x1="19.9977999874cm" x2="19.9994132439cm" y1="4.84cm" y2="4.76cm" /><line x1="19.9994132439cm" x2="20.0016776356cm" y1="4.76cm" y2="4.68cm" /><line x1="20.0016776356cm" x2="20.0045990395cm" y1="4.68cm" y2="4.6cm" /><line x1="20.0045990395cm" x2="20.0081850754cm" y1="4.6cm" y2="4.52cm" /><line x1="20.0081850754cm" x2="20.0124451546cm" y1="4.52cm" y2="4.44cm" /><line x1="20.0124451546cm" x2="20.0173905409cm" y1="4.44cm" y2="4.36cm" /><line x1="20.0173905409cm" x2="20.0230344244cm" y1="4.36cm" y2="4.28cm" /><line x1="20.0230344244cm" x2="20.0293920084cm" y1="4.28cm" y2="4.2cm" /><line x1="20.0293920084cm" x2="20.0364806115cm" y1="4.2cm" y2="4.12cm" /><line x1="20.0364806115cm" x2="20.0443197859cm" y1="4.12cm" y2="4.04cm" /><line x1="20.0443197859cm" x2="20.052931453cm" y1="4.04cm" y2="3.96cm" /><line x1="20.052931453cm" x2="20.0623400583cm" y1="3.96cm" y2="3.88cm" /><line x1="20.0623400583cm" x2="20.0725727481cm" y1="3.88cm" y2="3.8cm" /><line x1="20.0725727481cm" x2="20.0836595703cm" y1="3.8cm" y2="3.72cm" /><line x1="20.0836595703cm" x2="20.0956337015cm" y1="3.72cm" y2="3.64cm" /><line x1="20.0956337015cm" x2="20.1085317045cm" y1="3.64cm" y2="3.56cm" /><line x1="20.1085317045cm" x2="20.1223938205cm" y1="3.56cm" y2="3.48cm" /><line x1="20.1223938205cm" x2="20.1372642992cm" y1="3.48cm" y2="3.4cm" /><line x1="20.1372642992cm" x2="20.1531917737cm" y1="3.4cm" y2="3.32cm" /><line x1="20.1531917737cm" x2="20.1702296848cm" y1="3.32cm" y2="3.24cm" /><line x1="20.1702296848cm" x2="20.1884367644cm" y1="3.24cm" y2="3.16cm" /><line x1="20.1884367644cm" x2="20.2078775844cm" y1="3.16cm" y2="3.08cm" /><line x1="20.2078775844cm" x2="20.2286231829cm" y1="3.08cm" y2="3.0cm" /><line x1="20.2286231829cm" x2="20.2507517797cm" y1="3.0cm" y2="2.92cm" /><line x1="20.2507517797cm" x2="20.274349595cm" y1="2.92cm" y2="2.84cm" /><line x1="20.274349595cm" x2="20.29951179cm" y1="2.84cm" y2="2.76cm" /><line x1="20.29951179cm" x2="20.3263435494cm" y1="2.76cm" y2="2.68cm" /><line x1="20.3263435494cm" x2="20.354961331cm" y1="2.68cm" y2="2.6cm" /><line x1="20.354961331cm" x2="20.3854943138cm" y1="2.6cm" y2="2.52cm" /><line x1="20.3854943138cm" x2="20.4180860805cm" y1="2.52cm" y2="2.44cm" /><line x1="20.4180860805cm" x2="20.452896581cm" y1="2.44cm" y2="2.36cm" /><line x1="20.452896581cm" x2="20.4901044313cm" y1="2.36cm" y2="2.28cm" /><line x1="20.4901044313cm" x2="20.5299096166cm" y1="2.28cm" y2="2.2cm" /><line x1="20.5299096166cm" x2="20.572536685cm" y1="2.2cm" y2="2.12cm" /><line x1="20.572536685cm" x2="20.6182385359cm" y1="2.12cm" y2="2.04cm" /><line x1="20.6182385359cm" x2="20.6673009382cm" y1="2.04cm" y2="1.96cm" /><line x1="20.6673009382cm" x2="20.7200479465cm" y1="1.96cm" y2="1.88cm" /><line x1="20.7200479465cm" x2="20.7768484305cm" y1="1.88cm" y2="1.8cm" /><line x1="20.7768484305cm" x2="20.8381239926cm" y1="1.8cm" y2="1.72cm" /><line x1="20.8381239926cm" x2="20.9043586321cm" y1="1.72cm" y2="1.64cm" /><line x1="20.9043586321cm" x2="20.976110621cm" y1="1.64cm" y2="1.56cm" /><line x1="20.976110621cm" x2="21.0540272044cm" y1="1.56cm" y2="1.48cm" /><line x1="21.0540272044cm" x2="21.1388629429cm" y1="1.48cm" y2="1.4cm" /><line x1="21.1388629429cm" x2="21.2315027937cm" y1="1.4cm" y2="1.32cm" /><line x1="21.2315027937cm" x2="21.3329914212cm" y1="1.32cm" y2="1.24cm" /><line x1="21.3329914212cm" x2="21.4445707933cm" y1="1.24cm" y2="1.16cm" /><line x1="21.4445707933cm" x2="21.5677289283cm" y1="1.16cm" y2="1.08cm" /><line x1="21.5677289283cm" x2="21.7042638526cm" y1="1.08cm" y2="1.0cm" /><line x1="17.4965118736cm" x2="17.4961900525cm" y1="5.0cm" y2="4.92cm" /><line x1="17.4961900525cm" x2="17.4952237599cm" y1="4.92cm" y2="4.84cm" /><line x1="17.4952237599cm" x2="17.4936105034cm" y1="4.84cm" y2="4.76cm" /><line x1="17.4936105034cm" x2="17.4913461117cm" y1="4.76cm" y2="4.68cm" /><line x1="17.4913461117cm" x2="17.4884247078cm" y1="4.68cm" y2="4.6cm" /><line x1="17.4884247078cm" x2="17.4848386719cm" y1="4.6cm" y2="4.52cm" /><line x1="17.4848386719cm" x2="17.4805785927cm" y1="4.52cm" y2="4.44cm" /><line x1="17.4805785927cm" x2="17.4756332064cm" y1="4.44cm" y2="4.36cm" /><line x1="17.4756332064cm" x2="17.4699893229cm" y1="4.36cm" y2="4.28cm" /><line x1="17.4699893229cm" x2="17.4636317389cm" y1="4.28cm" y2="4.2cm" /><line x1="17.4636317389cm" x2="17.4565431358cm" y1="4.2cm" y2="4.12cm" /><line x1="17.4565431358cm" x2="17.4487039614cm" y1="4.12cm" y2="4.04cm" /><line x1="17.4487039614cm" x2="17.4400922943cm" y1="4.04cm" y2="3.96cm" /><line x1="17.4400922943cm" x2="17.430683689cm" y1="3.96cm" y2="3.88cm" /><line x1="17.430683689cm" x2="17.4204509992cm" y1="3.88cm" y2="3.8cm" /><line x1="17.4204509992cm" x2="17.409364177cm" y1="3.8cm" y2="3.72cm" /><line x1="17.409364177cm" x2="17.3973900458cm" y1="3.72cm" y2="3.64cm" /><line x1="17.3973900458cm" x2="17.3844920428cm" y1="3.64cm" y2="3.56cm" /><line x1="17.3844920428cm" x2="17.3706299268cm" y1="3.56cm" y2="3.48cm" /><line x1="17.3706299268cm" x2="17.355759448cm" y1="3.48cm" y2="3.4cm" /><line x1="17.355759448cm" x2="17.3398319736cm" y1="3.4cm" y2="3.32cm" /><line x1="17.3398319736cm" x2="17.3227940625cm" y1="3.32cm" y2="3.24cm" /><line x1="17.3227940625cm" x2="17.3045869829cm" y1="3.24cm" y2="3.16cm" /><line x1="17.3045869829cm" x2="17.2851461629cm" y1="3.16cm" y2="3.08cm" /><line x1="17.2851461629cm" x2="17.2644005644cm" y1="3.08cm" y2="3.0cm" /><line x1="17.2644005644cm" x2="17.2422719676cm" y1="3.0cm" y2="2.92cm" /><line x1="17.2422719676cm" x2="17.2186741523cm" y1="2.92cm" y2="2.84cm" /><line x1="17.2186741523cm" x2="17.1935119572cm" y1="2.84cm" y2="2.76cm" /><line x1="17.1935119572cm" x2="17.1666801979cm" y1="2.76cm" y2="2.68cm" /><line x1="17.1666801979cm" x2="17.1380624163cm" y1="2.68cm" y2="2.6cm" /><line x1="17.1380624163cm" x2="17.1075294335cm" y1="2.6cm" y2="2.52cm" /><line x1="17.1075294335cm" x2="17.0749376668cm" y1="2.52cm" y2="2.44cm" /><line x1="17.0749376668cm" x2="17.0401271663cm" y1="2.44cm" y2="2.36cm" /><line x1="17.0401271663cm" x2="17.002919316cm" y1="2.36cm" y2="2.28cm" /><line x1="17.002919316cm" x2="16.9631141306cm" y1="2.28cm" y2="2.2cm" /><line x1="16.9631141306cm" x2="16.9204870622cm" y1="2.2cm" y2="2.12cm" /><line x1="16.9204870622cm" x2="16.8747852114cm" y1="2.12cm" y2="2.04cm" /><line x1="16.8747852114cm" x2="16.8257228091cm" y1="2.04cm" y2="1.96cm" /><line x1="16.8257228091cm" x2="16.7729758008cm" y1="1.96cm" y2="1.88cm" /><line x1="16.7729758008cm" x2="16.7161753168cm" y1="1.88cm" y2="1.8cm" /><line x1="16.7161753168cm" x2="16.6548997547cm" y1="1.8cm" y2="1.72cm" /><line x1="16.6548997547cm" x2="16.5886651151cm" y1="1.72cm" y2="1.64cm" /><line x1="16.5886651151cm" x2="16.5169131263cm" y1="1.64cm" y2="1.56cm" /><line x1="16.5169131263cm" x2="16.4389965429cm" y1="1.56cm" y2="1.48cm" /><line x1="16.4389965429cm" x2="16.3541608044cm" y1="1.48cm" y2="1.4cm" /><line x1="16.3541608044cm" x2="16.2615209536cm" y1="1.4cm" y2="1.32cm" /><line x1="16.2615209536cm" x2="16.1600323261cm" y1="1.32cm" y2="1.24cm" /><line x1="16.1600323261cm" x2="16.048452954cm" y1="1.24cm" y2="1.16cm" /><line x1="16.048452954cm" x2="15.9252948189cm" y1="1.16cm" y2="1.08cm" /><line x1="15.9252948189cm" x2="15.7887598947cm" y1="1.08cm" y2="1.0cm" /></g><text x="26.2465118736cm" y="5.3cm">75km</text><text x="11.2465118736cm" y="5.3cm">75km</text><text x="23.7465118736cm" y="5.3cm">50km</text><text x="13.7465118736cm" y="5.3cm">50km</text><text x="21.2465118736cm" y="5.3cm">25km</text><text x="16.2465118736cm" y="5.3cm">25km</text><g id="horizontal_tick" stroke="black"><line x1="18.7465118736cm" x2="36.4930237473cm" y1="5.0cm" y2="5.0cm" /><line x1="1.0cm" x2="18.7465118736cm" y1="5.0cm" y2="5.0cm" /><line x1="18.7465118736cm" x2="36.4930237473cm" y1="4.69230769231cm" y2="4.69230769231cm" /><line x1="1.0cm" x2="18.7465118736cm" y1="4.69230769231cm" y2="4.69230769231cm" /><line x1="18.7465118736cm" x2="36.4930237473cm" y1="4.38461538462cm" y2="4.38461538462cm" /><line x1="1.0cm" x2="18.7465118736cm" y1="4.38461538462cm" y2="4.38461538462cm" /><line x1="18.7465118736cm" x2="36.4930237473cm" y1="4.07692307692cm" y2="4.07692307692cm" /><line x1="1.0cm" x2="18.7465118736cm" y1="4.07692307692cm" y2="4.07692307692cm" /><line x1="18.7465118736cm" x2="36.4930237473cm" y1="3.76923076923cm" y2="3.76923076923cm" /><line x1="1.0cm" x2="18.7465118736cm" y1="3.76923076923cm" y2="3.76923076923cm" /><line x1="18.7465118736cm" x2="36.4930237473cm" y1="3.46153846154cm" y2="3.46153846154cm" /><line x1="1.0cm" x2="18.7465118736cm" y1="3.46153846154cm" y2="3.46153846154cm" /><line x1="18.7465118736cm" x2="36.4930237473cm" y1="3.15384615385cm" y2="3.15384615385cm" /><line x1="1.0cm" x2="18.7465118736cm" y1="3.15384615385cm" y2="3.15384615385cm" /><line x1="18.7465118736cm" x2="36.4930237473cm" y1="2.84615384615cm" y2="2.84615384615cm" /><line x1="1.0cm" x2="18.7465118736cm" y1="2.84615384615cm" y2="2.84615384615cm" /><line x1="18.7465118736cm" x2="36.4930237473cm" y1="2.53846153846cm" y2="2.53846153846cm" /><line x1="1.0cm" x2="18.7465118736cm" y1="2.53846153846cm" y2="2.53846153846cm" /><line x1="18.7465118736cm" x2="36.4930237473cm" y1="2.23076923077cm" y2="2.23076923077cm" /><line x1="1.0cm" x2="18.7465118736cm" y1="2.23076923077cm" y2="2.23076923077cm" /><line x1="18.7465118736cm" x2="36.4930237473cm" y1="1.92307692308cm" y2="1.92307692308cm" /><line x1="1.0cm" x2="18.7465118736cm" y1="1.92307692308cm" y2="1.92307692308cm" /><line x1="18.7465118736cm" x2="36.4930237473cm" y1="1.61538461538cm" y2="1.61538461538cm" /><line x1="1.0cm" x2="18.7465118736cm" y1="1.61538461538cm" y2="1.61538461538cm" /><line x1="18.7465118736cm" x2="36.4930237473cm" y1="1.30769230769cm" y2="1.30769230769cm" /><line x1="1.0cm" x2="18.7465118736cm" y1="1.30769230769cm" y2="1.30769230769cm" /><line x1="18.7465118736cm" x2="36.4930237473cm" y1="1.0cm" y2="1.0cm" /><line x1="1.0cm" x2="18.7465118736cm" y1="1.0cm" y2="1.0cm" /></g></svg>