<?xml version="1.0" encoding="utf-8" ?>
<svg baseProfile="full" height="6.0cm" version="1.1" width="28.3705609639cm" xmlns="http://www.w3.org/2000/svg" xmlns:ev="http://www.w3.org/2001/xml-events" xmlns:xlink="http://www.w3.org/1999/xlink"><defs /><g font-size="12"><text x="27.3705609639cm" y="5.0cm">0.0°</text><text x="0.0cm" y="5.0cm">0.0°</text><text x="27.3705609639cm" y="4.27667269439cm">10.0°</text><text x="0.0cm" y="4.27667269439cm">10.0°</text><text x="27.3705609639cm" y="3.55334538879cm">20.0°</text><text x="0.0cm" y="3.55334538879cm">20.0°</text><text x="27.3705609639cm" y="2.83001808318cm">30.0°</text><text x="0.0cm" y="2.83001808318cm">30.0°</text><text x="27.3705609639cm" y="2.10669077758cm">40.0°</text><text x="0.0cm" y="2.10669077758cm">40.0°</text><text x="27.3705609639cm" y="1.38336347197cm">50.0°</text><text x="0.0cm" y="1.38336347197cm">50.0°</text></g><g id="vertical" stroke="black"><line x1="14.185280482cm" x2="14.185280482cm" y1="1.0cm" y2="1.16cm" /><line x1="14.185280482cm" x2="14.185280482cm" y1="1.16cm" y2="1.32cm" /><line x1="14.185280482cm" x2="14.185280482cm" y1="1.32cm" y2="1.48cm" /><line x1="14.185280482cm" x2="14.185280482cm" y1="1.48cm" y2="1.64cm" /><line x1="14.185280482cm" x2="14.185280482cm" y1="1.64cm" y2="1.8cm" /><line x1="14.185280482cm" x2="14.185280482cm" y1="1.8cm" y2="1.96cm" /><line x1="14.185280482cm" x2="14.185280482cm" y1="1.96cm" y2="2.12cm" /><line x1="14.185280482cm" x2="14.185280482cm" y1="2.12cm" y2="2.28cm" /><line x1="14.185280482cm" x2="14.185280482cm" y1="2.28cm" y2="2.44cm" /><line x1="14.185280482cm" x2="14.185280482cm" y1="2.44cm" y2="2.6cm" /><line x1="14.185280482cm" x2="14.185280482cm" y1="2.6cm" y2="2.76cm" /><line x1="14.185280482cm" x2="14.185280482cm" y1="2.76cm" y2="2.92cm" /><line x1="14.185280482cm" x2="14.185280482cm" y1="2.92cm" y2="3.08cm" /><line x1="14.185280482cm" x2="14.185280482cm" y1="3.08cm" y2="3.24cm" /><line x1="14.185280482cm" x2="14.185280482cm" y1="3.24cm" y2="3.4cm" /><line x1="14.185280482cm" x2="14.185280482cm" y1="3.4cm" y2="3.56cm" /><line x1="14.185280482cm" x2="14.185280482cm" y1="3.56cm" y2="3.72cm" /><line x1="14.185280482cm" x2="14.185280482cm" y1="3.72cm" y2="3.88cm" /><line x1="14.185280482cm" x2="14.185280482cm" y1="3.88cm" y2="4.04cm" /><line x1="14.185280482cm" x2="14.185280482cm" y1="4.04cm" y2="4.2cm" /><line x1="14.185280482cm" x2="14.185280482cm" y1="4.2cm" y2="4.36cm" /><line x1="14.185280482cm" x2="14.185280482cm" y1="4.36cm" y2="4.52cm" /><line x1="14.185280482cm" x2="14.185280482cm" y1="4.52cm" y2="4.68cm" /><line x1="14.185280482cm" x2="14.185280482cm" y1="4.68cm" y2="4.84cm" /><line x1="14.185280482cm" x2="14.185280482cm" y1="4.84cm" y2="5.0cm" /><line x1="21.685280482cm" x2="21.6934731052cm" y1="5.0cm" y2="4.84cm" /><line x1="21.6934731052cm" x2="21.7180671983cm" y1="4.84cm" y2="4.68cm" /><line x1="21.7180671983cm" x2="21.7591114963cm" y1="4.68cm" y2="4.52cm" /><line x1="21.7591114963cm" x2="21.8166874404cm" y1="4.52cm" y2="4.36cm" /><line x1="21.8166874404cm" x2="21.8909094967cm" y1="4.36cm" y2="4.2cm" /><line x1="21.8909094967cm" x2="21.981925595cm" y1="4.2cm" y2="4.04cm" /><line x1="21.981925595cm" x2="22.0899176768cm" y1="4.04cm" y2="3.88cm" /><line x1="22.0899176768cm" x2="22.2151023476cm" y1="3.88cm" y2="3.72cm" /><line x1="22.2151023476cm" x2="22.3577316196cm" y1="3.72cm" y2="3.56cm" /><line x1="22.3577316196cm" x2="22.5180937393cm" y1="3.56cm" y2="3.4cm" /><line x1="22.5180937393cm" x2="22.6965140901cm" y1="3.4cm" y2="3.24cm" /><line x1="22.6965140901cm" x2="22.8933561619cm" y1="3.24cm" y2="3.08cm" /><line x1="22.8933561619cm" x2="23.1090225854cm" y1="3.08cm" y2="2.92cm" /><line x1="23.1090225854cm" x2="23.3439562245cm" y1="2.92cm" y2="2.76cm" /><line x1="23.3439562245cm" x2="23.5986413267cm" y1="2.76cm" y2="2.6cm" /><line x1="23.5986413267cm" x2="23.8736047324cm" y1="2.6cm" y2="2.44cm" /><line x1="23.8736047324cm" x2="24.1694171434cm" y1="2.44cm" y2="2.28cm" /><line x1="24.1694171434cm" x2="24.4866944546cm" y1="2.28cm" y2="2.12cm" /><line x1="24.4866944546cm" x2="24.8260991539cm" y1="2.12cm" y2="1.96cm" /><line x1="24.8260991539cm" x2="25.1883417945cm" y1="1.96cm" y2="1.8cm" /><line x1="25.1883417945cm" x2="25.5741825465cm" y1="1.8cm" y2="1.64cm" /><line x1="25.5741825465cm" x2="25.984432834cm" y1="1.64cm" y2="1.48cm" /><line x1="25.984432834cm" x2="26.4199570638cm" y1="1.48cm" y2="1.32cm" /><line x1="26.4199570638cm" x2="26.8816744533cm" y1="1.32cm" y2="1.16cm" /><line x1="26.8816744533cm" x2="27.3705609639cm" y1="1.16cm" y2="1.0cm" /><line x1="6.68528048197cm" x2="6.67708785873cm" y1="5.0cm" y2="4.84cm" /><line x1="6.67708785873cm" x2="6.65249376567cm" y1="4.84cm" y2="4.68cm" /><line x1="6.65249376567cm" x2="6.61144946766cm" y1="4.68cm" y2="4.52cm" /><line x1="6.61144946766cm" x2="6.55387352359cm" y1="4.52cm" y2="4.36cm" /><line x1="6.55387352359cm" x2="6.47965146719cm" y1="4.36cm" y2="4.2cm" /><line x1="6.47965146719cm" x2="6.38863536898cm" y1="4.2cm" y2="4.04cm" /><line x1="6.38863536898cm" x2="6.28064328711cm" y1="4.04cm" y2="3.88cm" /><line x1="6.28064328711cm" x2="6.15545861636cm" y1="3.88cm" y2="3.72cm" /><line x1="6.15545861636cm" x2="6.01282934439cm" y1="3.72cm" y2="3.56cm" /><line x1="6.01282934439cm" x2="5.85246722459cm" y1="3.56cm" y2="3.4cm" /><line x1="5.85246722459cm" x2="5.67404687386cm" y1="3.4cm" y2="3.24cm" /><line x1="5.67404687386cm" x2="5.47720480202cm" y1="3.24cm" y2="3.08cm" /><line x1="5.47720480202cm" x2="5.2615383785cm" y1="3.08cm" y2="2.92cm" /><line x1="5.2615383785cm" x2="5.02660473949cm" y1="2.92cm" y2="2.76cm" /><line x1="5.02660473949cm" x2="4.77191963728cm" y1="2.76cm" y2="2.6cm" /><line x1="4.77191963728cm" x2="4.49695623153cm" y1="2.6cm" y2="2.44cm" /><line x1="4.49695623153cm" x2="4.20114382052cm" y1="2.44cm" y2="2.28cm" /><line x1="4.20114382052cm" x2="3.8838665093cm" y1="2.28cm" y2="2.12cm" /><line x1="3.8838665093cm" x2="3.54446181004cm" y1="2.12cm" y2="1.96cm" /><line x1="3.54446181004cm" x2="3.18221916948cm" y1="1.96cm" y2="1.8cm" /><line x1="3.18221916948cm" x2="2.79637841746cm" y1="1.8cm" y2="1.64cm" /><line x1="2.79637841746cm" x2="2.38612812995cm" y1="1.64cm" y2="1.48cm" /><line x1="2.38612812995cm" x2="1.95060390015cm" y1="1.48cm" y2="1.32cm" /><line x1="1.95060390015cm" x2="1.48888651067cm" y1="1.32cm" y2="1.16cm" /><line x1="1.48888651067cm" x2="1.0cm" y1="1.16cm" y2="1.0cm" /><line x1="19.185280482cm" x2="19.1907422308cm" y1="5.0cm" y2="4.84cm" /><line x1="19.1907422308cm" x2="19.2071382928cm" y1="4.84cm" y2="4.68cm" /><line x1="19.2071382928cm" x2="19.2345011582cm" y1="4.68cm" y2="4.52cm" /><line x1="19.2345011582cm" x2="19.2728851209cm" y1="4.52cm" y2="4.36cm" /><line x1="19.2728851209cm" x2="19.3223664918cm" y1="4.36cm" y2="4.2cm" /><line x1="19.3223664918cm" x2="19.3830438906cm" y1="4.2cm" y2="4.04cm" /><line x1="19.3830438906cm" x2="19.4550386119cm" y1="4.04cm" y2="3.88cm" /><line x1="19.4550386119cm" x2="19.538495059cm" y1="3.88cm" y2="3.72cm" /><line x1="19.538495059cm" x2="19.6335812404cm" y1="3.72cm" y2="3.56cm" /><line x1="19.6335812404cm" x2="19.7404893202cm" y1="3.56cm" y2="3.4cm" /><line x1="19.7404893202cm" x2="19.8594362207cm" y1="3.4cm" y2="3.24cm" /><line x1="19.8594362207cm" x2="19.9906642686cm" y1="3.24cm" y2="3.08cm" /><line x1="19.9906642686cm" x2="20.1344418843cm" y1="3.08cm" y2="2.92cm" /><line x1="20.1344418843cm" x2="20.2910643103cm" y1="2.92cm" y2="2.76cm" /><line x1="20.2910643103cm" x2="20.4608543784cm" y1="2.76cm" y2="2.6cm" /><line x1="20.4608543784cm" x2="20.6441633156cm" y1="2.6cm" y2="2.44cm" /><line x1="20.6441633156cm" x2="20.8413715896cm" y1="2.44cm" y2="2.28cm" /><line x1="20.8413715896cm" x2="21.0528897971cm" y1="2.28cm" y2="2.12cm" /><line x1="21.0528897971cm" x2="21.2791595966cm" y1="2.12cm" y2="1.96cm" /><line x1="21.2791595966cm" x2="21.5206546903cm" y1="1.96cm" y2="1.8cm" /><line x1="21.5206546903cm" x2="21.7778818583cm" y1="1.8cm" y2="1.64cm" /><line x1="21.7778818583cm" x2="22.05138205cm" y1="1.64cm" y2="1.48cm" /><line x1="22.05138205cm" x2="22.3417315365cm" y1="1.48cm" y2="1.32cm" /><line x1="22.3417315365cm" x2="22.6495431295cm" y1="1.32cm" y2="1.16cm" /><line x1="22.6495431295cm" x2="22.9754674699cm" y1="1.16cm" y2="1.0cm" /><line x1="9.18528048197cm" x2="9.17981873314cm" y1="5.0cm" y2="4.84cm" /><line x1="9.17981873314cm" x2="9.16342267111cm" y1="4.84cm" y2="4.68cm" /><line x1="9.16342267111cm" x2="9.13605980576cm" y1="4.68cm" y2="4.52cm" /><line x1="9.13605980576cm" x2="9.09767584305cm" y1="4.52cm" y2="4.36cm" /><line x1="9.09767584305cm" x2="9.04819447212cm" y1="4.36cm" y2="4.2cm" /><line x1="9.04819447212cm" x2="8.98751707331cm" y1="4.2cm" y2="4.04cm" /><line x1="8.98751707331cm" x2="8.91552235207cm" y1="4.04cm" y2="3.88cm" /><line x1="8.91552235207cm" x2="8.8320659049cm" y1="3.88cm" y2="3.72cm" /><line x1="8.8320659049cm" x2="8.73697972358cm" y1="3.72cm" y2="3.56cm" /><line x1="8.73697972358cm" x2="8.63007164372cm" y1="3.56cm" y2="3.4cm" /><line x1="8.63007164372cm" x2="8.51112474323cm" y1="3.4cm" y2="3.24cm" /><line x1="8.51112474323cm" x2="8.37989669534cm" y1="3.24cm" y2="3.08cm" /><line x1="8.37989669534cm" x2="8.23611907966cm" y1="3.08cm" y2="2.92cm" /><line x1="8.23611907966cm" x2="8.07949665365cm" y1="2.92cm" y2="2.76cm" /><line x1="8.07949665365cm" x2="7.90970658551cm" y1="2.76cm" y2="2.6cm" /><line x1="7.90970658551cm" x2="7.72639764834cm" y1="2.6cm" y2="2.44cm" /><line x1="7.72639764834cm" x2="7.52918937434cm" y1="2.44cm" y2="2.28cm" /><line x1="7.52918937434cm" x2="7.31767116686cm" y1="2.28cm" y2="2.12cm" /><line x1="7.31767116686cm" x2="7.09140136735cm" y1="2.12cm" y2="1.96cm" /><line x1="7.09140136735cm" x2="6.84990627365cm" y1="1.96cm" y2="1.8cm" /><line x1="6.84990627365cm" x2="6.59267910563cm" y1="1.8cm" y2="1.64cm" /><line x1="6.59267910563cm" x2="6.31917891396cm" y1="1.64cm" y2="1.48cm" /><line x1="6.31917891396cm" x2="6.02882942742cm" y1="1.48cm" y2="1.32cm" /><line x1="6.02882942742cm" x2="5.72101783444cm" y1="1.32cm" y2="1.16cm" /><line x1="5.72101783444cm" x2="5.39509349399cm" y1="1.16cm" y2="1.0cm" /><line x1="16.685280482cm" x2="16.6880113564cm" y1="5.0cm" y2="4.84cm" /><line x1="16.6880113564cm" x2="16.6962093874cm" y1="4.84cm" y2="4.68cm" /><line x1="16.6962093874cm" x2="16.7098908201cm" y1="4.68cm" y2="4.52cm" /><line x1="16.7098908201cm" x2="16.7290828014cm" y1="4.52cm" y2="4.36cm" /><line x1="16.7290828014cm" x2="16.7538234869cm" y1="4.36cm" y2="4.2cm" /><line x1="16.7538234869cm" x2="16.7841621863cm" y1="4.2cm" y2="4.04cm" /><line x1="16.7841621863cm" x2="16.8201595469cm" y1="4.04cm" y2="3.88cm" /><line x1="16.8201595469cm" x2="16.8618877705cm" y1="3.88cm" y2="3.72cm" /><line x1="16.8618877705cm" x2="16.9094308612cm" y1="3.72cm" y2="3.56cm" /><line x1="16.9094308612cm" x2="16.9628849011cm" y1="3.56cm" y2="3.4cm" /><line x1="16.9628849011cm" x2="17.0223583513cm" y1="3.4cm" y2="3.24cm" /><line x1="17.0223583513cm" x2="17.0879723753cm" y1="3.24cm" y2="3.08cm" /><line x1="17.0879723753cm" x2="17.1598611831cm" y1="3.08cm" y2="2.92cm" /><line x1="17.1598611831cm" x2="17.2381723961cm" y1="2.92cm" y2="2.76cm" /><line x1="17.2381723961cm" x2="17.3230674302cm" y1="2.76cm" y2="2.6cm" /><line x1="17.3230674302cm" x2="17.4147218988cm" y1="2.6cm" y2="2.44cm" /><line x1="17.4147218988cm" x2="17.5133260358cm" y1="2.44cm" y2="2.28cm" /><line x1="17.5133260358cm" x2="17.6190851395cm" y1="2.28cm" y2="2.12cm" /><line x1="17.6190851395cm" x2="17.7322200393cm" y1="2.12cm" y2="1.96cm" /><line x1="17.7322200393cm" x2="17.8529675861cm" y1="1.96cm" y2="1.8cm" /><line x1="17.8529675861cm" x2="17.9815811701cm" y1="1.8cm" y2="1.64cm" /><line x1="17.9815811701cm" x2="18.118331266cm" y1="1.64cm" y2="1.48cm" /><line x1="18.118331266cm" x2="18.2635060092cm" y1="1.48cm" y2="1.32cm" /><line x1="18.2635060092cm" x2="18.4174118057cm" y1="1.32cm" y2="1.16cm" /><line x1="18.4174118057cm" x2="18.580373976cm" y1="1.16cm" y2="1.0cm" /><line x1="11.685280482cm" x2="11.6825496076cm" y1="5.0cm" y2="4.84cm" /><line x1="11.6825496076cm" x2="11.6743515765cm" y1="4.84cm" y2="4.68cm" /><line x1="11.6743515765cm" x2="11.6606701439cm" y1="4.68cm" y2="4.52cm" /><line x1="11.6606701439cm" x2="11.6414781625cm" y1="4.52cm" y2="4.36cm" /><line x1="11.6414781625cm" x2="11.616737477cm" y1="4.36cm" y2="4.2cm" /><line x1="11.616737477cm" x2="11.5863987776cm" y1="4.2cm" y2="4.04cm" /><line x1="11.5863987776cm" x2="11.550401417cm" y1="4.04cm" y2="3.88cm" /><line x1="11.550401417cm" x2="11.5086731934cm" y1="3.88cm" y2="3.72cm" /><line x1="11.5086731934cm" x2="11.4611301028cm" y1="3.72cm" y2="3.56cm" /><line x1="11.4611301028cm" x2="11.4076760628cm" y1="3.56cm" y2="3.4cm" /><line x1="11.4076760628cm" x2="11.3482026126cm" y1="3.4cm" y2="3.24cm" /><line x1="11.3482026126cm" x2="11.2825885887cm" y1="3.24cm" y2="3.08cm" /><line x1="11.2825885887cm" x2="11.2106997808cm" y1="3.08cm" y2="2.92cm" /><line x1="11.2106997808cm" x2="11.1323885678cm" y1="2.92cm" y2="2.76cm" /><line x1="11.1323885678cm" x2="11.0474935337cm" y1="2.76cm" y2="2.6cm" /><line x1="11.0474935337cm" x2="10.9558390652cm" y1="2.6cm" y2="2.44cm" /><line x1="10.9558390652cm" x2="10.8572349282cm" y1="2.44cm" y2="2.28cm" /><line x1="10.8572349282cm" x2="10.7514758244cm" y1="2.28cm" y2="2.12cm" /><line x1="10.7514758244cm" x2="10.6383409247cm" y1="2.12cm" y2="1.96cm" /><line x1="10.6383409247cm" x2="10.5175933778cm" y1="1.96cm" y2="1.8cm" /><line x1="10.5175933778cm" x2="10.3889797938cm" y1="1.8cm" y2="1.64cm" /><line x1="10.3889797938cm" x2="10.252229698cm" y1="1.64cm" y2="1.48cm" /><line x1="10.252229698cm" x2="10.1070549547cm" y1="1.48cm" y2="1.32cm" /><line x1="10.1070549547cm" x2="9.9531491582cm" y1="1.32cm" y2="1.16cm" /><line x1="9.9531491582cm" x2="9.79018698798cm" y1="1.16cm" y2="1.0cm" /><line x1="15.435280482cm" x2="15.4366459192cm" y1="5.0cm" y2="4.84cm" /><line x1="15.4366459192cm" x2="15.4407449347cm" y1="4.84cm" y2="4.68cm" /><line x1="15.4407449347cm" x2="15.447585651cm" y1="4.68cm" y2="4.52cm" /><line x1="15.447585651cm" x2="15.4571816417cm" y1="4.52cm" y2="4.36cm" /><line x1="15.4571816417cm" x2="15.4695519844cm" y1="4.36cm" y2="4.2cm" /><line x1="15.4695519844cm" x2="15.4847213341cm" y1="4.2cm" y2="4.04cm" /><line x1="15.4847213341cm" x2="15.5027200144cm" y1="4.04cm" y2="3.88cm" /><line x1="15.5027200144cm" x2="15.5235841262cm" y1="3.88cm" y2="3.72cm" /><line x1="15.5235841262cm" x2="15.5473556716cm" y1="3.72cm" y2="3.56cm" /><line x1="15.5473556716cm" x2="15.5740826915cm" y1="3.56cm" y2="3.4cm" /><line x1="15.5740826915cm" x2="15.6038194167cm" y1="3.4cm" y2="3.24cm" /><line x1="15.6038194167cm" x2="15.6366264286cm" y1="3.24cm" y2="3.08cm" /><line x1="15.6366264286cm" x2="15.6725708325cm" y1="3.08cm" y2="2.92cm" /><line x1="15.6725708325cm" x2="15.7117264391cm" y1="2.92cm" y2="2.76cm" /><line x1="15.7117264391cm" x2="15.7541739561cm" y1="2.76cm" y2="2.6cm" /><line x1="15.7541739561cm" x2="15.8000011904cm" y1="2.6cm" y2="2.44cm" /><line x1="15.8000011904cm" x2="15.8493032589cm" y1="2.44cm" y2="2.28cm" /><line x1="15.8493032589cm" x2="15.9021828107cm" y1="2.28cm" y2="2.12cm" /><line x1="15.9021828107cm" x2="15.9587502606cm" y1="2.12cm" y2="1.96cm" /><line x1="15.9587502606cm" x2="16.0191240341cm" y1="1.96cm" y2="1.8cm" /><line x1="16.0191240341cm" x2="16.0834308261cm" y1="1.8cm" y2="1.64cm" /><line x1="16.0834308261cm" x2="16.151805874cm" y1="1.64cm" y2="1.48cm" /><line x1="16.151805874cm" x2="16.2243932456cm" y1="1.48cm" y2="1.32cm" /><line x1="16.2243932456cm" x2="16.3013461439cm" y1="1.32cm" y2="1.16cm" /><line x1="16.3013461439cm" x2="16.382827229cm" y1="1.16cm" y2="1.0cm" /><line x1="12.935280482cm" x2="12.9339150448cm" y1="5.0cm" y2="4.84cm" /><line x1="12.9339150448cm" x2="12.9298160293cm" y1="4.84cm" y2="4.68cm" /><line x1="12.9298160293cm" x2="12.9229753129cm" y1="4.68cm" y2="4.52cm" /><line x1="12.9229753129cm" x2="12.9133793222cm" y1="4.52cm" y2="4.36cm" /><line x1="12.9133793222cm" x2="12.9010089795cm" y1="4.36cm" y2="4.2cm" /><line x1="12.9010089795cm" x2="12.8858396298cm" y1="4.2cm" y2="4.04cm" /><line x1="12.8858396298cm" x2="12.8678409495cm" y1="4.04cm" y2="3.88cm" /><line x1="12.8678409495cm" x2="12.8469768377cm" y1="3.88cm" y2="3.72cm" /><line x1="12.8469768377cm" x2="12.8232052924cm" y1="3.72cm" y2="3.56cm" /><line x1="12.8232052924cm" x2="12.7964782724cm" y1="3.56cm" y2="3.4cm" /><line x1="12.7964782724cm" x2="12.7667415473cm" y1="3.4cm" y2="3.24cm" /><line x1="12.7667415473cm" x2="12.7339345353cm" y1="3.24cm" y2="3.08cm" /><line x1="12.7339345353cm" x2="12.6979901314cm" y1="3.08cm" y2="2.92cm" /><line x1="12.6979901314cm" x2="12.6588345249cm" y1="2.92cm" y2="2.76cm" /><line x1="12.6588345249cm" x2="12.6163870079cm" y1="2.76cm" y2="2.6cm" /><line x1="12.6163870079cm" x2="12.5705597736cm" y1="2.6cm" y2="2.44cm" /><line x1="12.5705597736cm" x2="12.5212577051cm" y1="2.44cm" y2="2.28cm" /><line x1="12.5212577051cm" x2="12.4683781532cm" y1="2.28cm" y2="2.12cm" /><line x1="12.4683781532cm" x2="12.4118107033cm" y1="2.12cm" y2="1.96cm" /><line x1="12.4118107033cm" x2="12.3514369299cm" y1="1.96cm" y2="1.8cm" /><line x1="12.3514369299cm" x2="12.2871301379cm" y1="1.8cm" y2="1.64cm" /><line x1="12.2871301379cm" x2="12.21875509cm" y1="1.64cm" y2="1.48cm" /><line x1="12.21875509cm" x2="12.1461677183cm" y1="1.48cm" y2="1.32cm" /><line x1="12.1461677183cm" x2="12.0692148201cm" y1="1.32cm" y2="1.16cm" /><line x1="12.0692148201cm" x2="11.987733735cm" y1="1.16cm" y2="1.0cm" /></g><text x="21.685280482cm" y="5.3cm">75km</text><text x="6.68528048197cm" y="5.3cm">75km</text><text x="19.185280482cm" y="5.3cm">50km</text><text x="9.18528048197cm" y="5.3cm">50km</text><text x="16.685280482cm" y="5.3cm">25km</text><text x="11.685280482cm" y="5.3cm">25km</text><g id="horizontal_tick" stroke="black"><line x1="14.185280482cm" x2="27.3705609639cm" y1="5.0cm" y2="5.0cm" /><line x1="1.0cm" x2="14.185280482cm" y1="5.0cm" y2="5.0cm" /><line x1="14.185280482cm" x2="27.3705609639cm" y1="4.6383363472cm" y2="4.6383363472cm" /><line x1="1.0cm" x2="14.185280482cm" y1="4.6383363472cm" y2="4.6383363472cm" /><line x1="14.185280482cm" x2="27.3705609639cm" y1="4.27667269439cm" y2="4.27667269439cm" /><line x1="1.0cm" x2="14.185280482cm" y1="4.27667269439cm" y2="4.27667269439cm" /><line x1="14.185280482cm" x2="27.3705609639cm" y1="3.91500904159cm" y2="3.91500904159cm" /><line x1="1.0cm" x2="14.185280482cm" y1="3.91500904159cm" y2="3.91500904159cm" /><line x1="14.185280482cm" x2="27.3705609639cm" y1="3.55334538879cm" y2="3.55334538879cm" /><line x1="1.0cm" x2="14.185280482cm" y1="3.55334538879cm" y2="3.55334538879cm" /><line x1="14.185280482cm" x2="27.3705609639cm" y1="3.19168173599cm" y2="3.19168173599cm" /><line x1="1.0cm" x2="14.185280482cm" y1="3.19168173599cm" y2="3.19168173599cm" /><line x1="14.185280482cm" x2="27.3705609639cm" y1="2.83001808318cm" y2="2.83001808318cm" /><line x1="1.0cm" x2="14.185280482cm" y1="2.83001808318cm" y2="2.83001808318cm" /><line x1="14.185280482cm" x2="27.3705609639cm" y1="2.46835443038cm" y2="2.46835443038cm" /><line x1="1.0cm" x2="14.185280482cm" y1="2.46835443038cm" y2="2.46835443038cm" /><line x1="14.185280482cm" x2="27.3705609639cm" y1="2.10669077758cm" y2="2.10669077758cm" /><line x1="1.0cm" x2="14.185280482cm" y1="2.10669077758cm" y2="2.10669077758cm" /><line x1="14.185280482cm" x2="27.3705609639cm" y1="1.74502712477cm" y2="1.74502712477cm" /><line x1="1.0cm" x2="14.185280482cm" y1="1.74502712477cm" y2="1.74502712477cm" /><line x1="14.185280482cm" x2="27.3705609639cm" y1="1.38336347197cm" y2="1.38336347197cm" /><line x1="1.0cm" x2="14.185280482cm" y1="1.38336347197cm" y2="1.38336347197cm" /><line x1="14.185280482cm" x2="27.3705609639cm" y1="1.0cm" y2="1.0cm" /><line x1="1.0cm" x2="14.185280482cm" y1="1.0cm" y2="1.0cm" /></g></svg>