<?xml version="1.0" encoding="utf-8" ?>
<svg baseProfile="full" height="6.0cm" version="1.1" width="20.2616424808cm" xmlns="http://www.w3.org/2000/svg" xmlns:ev="http://www.w3.org/2001/xml-events" xmlns:xlink="http://www.w3.org/1999/xlink"><defs /><g font-size="12"><text x="19.2616424808cm" y="1.0cm">-40.0°</text><text x="0.0cm" y="1.0cm">-40.0°</text><text x="19.2616424808cm" y="4.6cm">-85.0°</text><text x="0.0cm" y="4.6cm">-85.0°</text><text x="19.2616424808cm" y="3.8cm">-75.0°</text><text x="0.0cm" y="3.8cm">-75.0°</text><text x="19.2616424808cm" y="3.0cm">-65.0°</text><text x="0.0cm" y="3.0cm">-65.0°</text><text x="19.2616424808cm" y="2.2cm">-55.0°</text><text x="0.0cm" y="2.2cm">-55.0°</text><text x="19.2616424808cm" y="1.4cm">-45.0°</text><text x="0.0cm" y="1.4cm">-45.0°</text><text x="19.2616424808cm" y="5.0cm">-90.0°</text><text x="0.0cm" y="5.0cm">-90.0°</text></g><g id="vertical" stroke="black"><line x1="10.1308212404cm" x2="10.1308212404cm" y1="5.0cm" y2="4.92cm" /><line x1="10.1308212404cm" x2="10.1308212404cm" y1="4.92cm" y2="4.84cm" /><line x1="10.1308212404cm" x2="10.1308212404cm" y1="4.84cm" y2="4.76cm" /><line x1="10.1308212404cm" x2="10.1308212404cm" y1="4.76cm" y2="4.68cm" /><line x1="10.1308212404cm" x2="10.1308212404cm" y1="4.68cm" y2="4.6cm" /><line x1="10.1308212404cm" x2="10.1308212404cm" y1="4.6cm" y2="4.52cm" /><line x1="10.1308212404cm" x2="10.1308212404cm" y1="4.52cm" y2="4.44cm" /><line x1="10.1308212404cm" x2="10.1308212404cm" y1="4.44cm" y2="4.36cm" /><line x1="10.1308212404cm" x2="10.1308212404cm" y1="4.36cm" y2="4.28cm" /><line x1="10.1308212404cm" x2="10.1308212404cm" y1="4.28cm" y2="4.2cm" /><line x1="10.1308212404cm" x2="10.1308212404cm" y1="4.2cm" y2="4.12cm" /><line x1="10.1308212404cm" x2="10.1308212404cm" y1="4.12cm" y2="4.04cm" /><line x1="10.1308212404cm" x2="10.1308212404cm" y1="4.04cm" y2="3.96cm" /><line x1="10.1308212404cm" x2="10.1308212404cm" y1="3.96cm" y2="3.88cm" /><line x1="10.1308212404cm" x2="10.1308212404cm" y1="3.88cm" y2="3.8cm" /><line x1="10.1308212404cm" x2="10.1308212404cm" y1="3.8cm" y2="3.72cm" /><line x1="10.1308212404cm" x2="10.1308212404cm" y1="3.72cm" y2="3.64cm" /><line x1="10.1308212404cm" x2="10.1308212404cm" y1="3.64cm" y2="3.56cm" /><line x1="10.1308212404cm" x2="10.1308212404cm" y1="3.56cm" y2="3.48cm" /><line x1="10.1308212404cm" x2="10.1308212404cm" y1="3.48cm" y2="3.4cm" /><line x1="10.1308212404cm" x2="10.1308212404cm" y1="3.4cm" y2="3.32cm" /><line x1="10.1308212404cm" x2="10.1308212404cm" y1="3.32cm" y2="3.24cm" /><line x1="10.1308212404cm" x2="10.1308212404cm" y1="3.24cm" y2="3.16cm" /><line x1="10.1308212404cm" x2="10.1308212404cm" y1="3.16cm" y2="3.08cm" /><line x1="10.1308212404cm" x2="10.1308212404cm" y1="3.08cm" y2="3.0cm" /><line x1="10.1308212404cm" x2="10.1308212404cm" y1="3.0cm" y2="2.92cm" /><line x1="10.1308212404cm" x2="10.1308212404cm" y1="2.92cm" y2="2.84cm" /><line x1="10.1308212404cm" x2="10.1308212404cm" y1="2.84cm" y2="2.76cm" /><line x1="10.1308212404cm" x2="10.1308212404cm" y1="2.76cm" y2="2.68cm" /><line x1="10.1308212404cm" x2="10.1308212404cm" y1="2.68cm" y2="2.6cm" /><line x1="10.1308212404cm" x2="10.1308212404cm" y1="2.6cm" y2="2.52cm" /><line x1="10.1308212404cm" x2="10.1308212404cm" y1="2.52cm" y2="2.44cm" /><line x1="10.1308212404cm" x2="10.1308212404cm" y1="2.44cm" y2="2.36cm" /><line x1="10.1308212404cm" x2="10.1308212404cm" y1="2.36cm" y2="2.28cm" /><line x1="10.1308212404cm" x2="10.1308212404cm" y1="2.28cm" y2="2.2cm" /><line x1="10.1308212404cm" x2="10.1308212404cm" y1="2.2cm" y2="2.12cm" /><line x1="10.1308212404cm" x2="10.1308212404cm" y1="2.12cm" y2="2.04cm" /><line x1="10.1308212404cm" x2="10.1308212404cm" y1="2.04cm" y2="1.96cm" /><line x1="10.1308212404cm" x2="10.1308212404cm" y1="1.96cm" y2="1.88cm" /><line x1="10.1308212404cm" x2="10.1308212404cm" y1="1.88cm" y2="1.8cm" /><line x1="10.1308212404cm" x2="10.1308212404cm" y1="1.8cm" y2="1.72cm" /><line x1="10.1308212404cm" x2="10.1308212404cm" y1="1.72cm" y2="1.64cm" /><line x1="10.1308212404cm" x2="10.1308212404cm" y1="1.64cm" y2="1.56cm" /><line x1="10.1308212404cm" x2="10.1308212404cm" y1="1.56cm" y2="1.48cm" /><line x1="10.1308212404cm" x2="10.1308212404cm" y1="1.48cm" y2="1.4cm" /><line x1="10.1308212404cm" x2="10.1308212404cm" y1="1.4cm" y2="1.32cm" /><line x1="10.1308212404cm" x2="10.1308212404cm" y1="1.32cm" y2="1.24cm" /><line x1="10.1308212404cm" x2="10.1308212404cm" y1="1.24cm" y2="1.16cm" /><line x1="10.1308212404cm" x2="10.1308212404cm" y1="1.16cm" y2="1.08cm" /><line x1="10.1308212404cm" x2="10.1308212404cm" y1="1.08cm" y2="1.0cm" /><line x1="19.2616424808cm" x2="19.1884693903cm" y1="1.0cm" y2="1.08cm" /><line x1="19.1884693903cm" x2="19.1175356071cm" y1="1.08cm" y2="1.16cm" /><line x1="19.1175356071cm" x2="19.048784751cm" y1="1.16cm" y2="1.24cm" /><line x1="19.048784751cm" x2="18.9821627624cm" y1="1.24cm" y2="1.32cm" /><line x1="18.9821627624cm" x2="18.9176178048cm" y1="1.32cm" y2="1.4cm" /><line x1="18.9176178048cm" x2="18.8551001741cm" y1="1.4cm" y2="1.48cm" /><line x1="18.8551001741cm" x2="18.7945622114cm" y1="1.48cm" y2="1.56cm" /><line x1="18.7945622114cm" x2="18.7359582209cm" y1="1.56cm" y2="1.64cm" /><line x1="18.7359582209cm" x2="18.6792443921cm" y1="1.64cm" y2="1.72cm" /><line x1="18.6792443921cm" x2="18.6243787261cm" y1="1.72cm" y2="1.8cm" /><line x1="18.6243787261cm" x2="18.571320966cm" y1="1.8cm" y2="1.88cm" /><line x1="18.571320966cm" x2="18.52003253cm" y1="1.88cm" y2="1.96cm" /><line x1="18.52003253cm" x2="18.4704764492cm" y1="1.96cm" y2="2.04cm" /><line x1="18.4704764492cm" x2="18.4226173079cm" y1="2.04cm" y2="2.12cm" /><line x1="18.4226173079cm" x2="18.3764211874cm" y1="2.12cm" y2="2.2cm" /><line x1="18.3764211874cm" x2="18.3318556123cm" y1="2.2cm" y2="2.28cm" /><line x1="18.3318556123cm" x2="18.2888894999cm" y1="2.28cm" y2="2.36cm" /><line x1="18.2888894999cm" x2="18.2474931123cm" y1="2.36cm" y2="2.44cm" /><line x1="18.2474931123cm" x2="18.2076380109cm" y1="2.44cm" y2="2.52cm" /><line x1="18.2076380109cm" x2="18.1692970133cm" y1="2.52cm" y2="2.6cm" /><line x1="18.1692970133cm" x2="18.1324441524cm" y1="2.6cm" y2="2.68cm" /><line x1="18.1324441524cm" x2="18.0970546379cm" y1="2.68cm" y2="2.76cm" /><line x1="18.0970546379cm" x2="18.0631048196cm" y1="2.76cm" y2="2.84cm" /><line x1="18.0631048196cm" x2="18.030572153cm" y1="2.84cm" y2="2.92cm" /><line x1="18.030572153cm" x2="17.9994351662cm" y1="2.92cm" y2="3.0cm" /><line x1="17.9994351662cm" x2="17.9696734297cm" y1="3.0cm" y2="3.08cm" /><line x1="17.9696734297cm" x2="17.9412675265cm" y1="3.08cm" y2="3.16cm" /><line x1="17.9412675265cm" x2="17.9141990248cm" y1="3.16cm" y2="3.24cm" /><line x1="17.9141990248cm" x2="17.8884504522cm" y1="3.24cm" y2="3.32cm" /><line x1="17.8884504522cm" x2="17.8640052713cm" y1="3.32cm" y2="3.4cm" /><line x1="17.8640052713cm" x2="17.8408478565cm" y1="3.4cm" y2="3.48cm" /><line x1="17.8408478565cm" x2="17.8189634724cm" y1="3.48cm" y2="3.56cm" /><line x1="17.8189634724cm" x2="17.7983382539cm" y1="3.56cm" y2="3.64cm" /><line x1="17.7983382539cm" x2="17.778959187cm" y1="3.64cm" y2="3.72cm" /><line x1="17.778959187cm" x2="17.7608140913cm" y1="3.72cm" y2="3.8cm" /><line x1="17.7608140913cm" x2="17.7438916034cm" y1="3.8cm" y2="3.88cm" /><line x1="17.7438916034cm" x2="17.7281811617cm" y1="3.88cm" y2="3.96cm" /><line x1="17.7281811617cm" x2="17.7136729924cm" y1="3.96cm" y2="4.04cm" /><line x1="17.7136729924cm" x2="17.7003580964cm" y1="4.04cm" y2="4.12cm" /><line x1="17.7003580964cm" x2="17.6882282372cm" y1="4.12cm" y2="4.2cm" /><line x1="17.6882282372cm" x2="17.6772759303cm" y1="4.2cm" y2="4.28cm" /><line x1="17.6772759303cm" x2="17.6674944331cm" y1="4.28cm" y2="4.36cm" /><line x1="17.6674944331cm" x2="17.6588777362cm" y1="4.36cm" y2="4.44cm" /><line x1="17.6588777362cm" x2="17.6514205554cm" y1="4.44cm" y2="4.52cm" /><line x1="17.6514205554cm" x2="17.6451183249cm" y1="4.52cm" y2="4.6cm" /><line x1="17.6451183249cm" x2="17.6399671915cm" y1="4.6cm" y2="4.68cm" /><line x1="17.6399671915cm" x2="17.6359640091cm" y1="4.68cm" y2="4.76cm" /><line x1="17.6359640091cm" x2="17.6331063351cm" y1="4.76cm" y2="4.84cm" /><line x1="17.6331063351cm" x2="17.6313924271cm" y1="4.84cm" y2="4.92cm" /><line x1="17.6313924271cm" x2="17.6308212404cm" y1="4.92cm" y2="5.0cm" /><line x1="1.0cm" x2="1.07317309054cm" y1="1.0cm" y2="1.08cm" /><line x1="1.07317309054cm" x2="1.14410687374cm" y1="1.08cm" y2="1.16cm" /><line x1="1.14410687374cm" x2="1.21285772976cm" y1="1.16cm" y2="1.24cm" /><line x1="1.21285772976cm" x2="1.27947971843cm" y1="1.24cm" y2="1.32cm" /><line x1="1.27947971843cm" x2="1.344024676cm" y1="1.32cm" y2="1.4cm" /><line x1="1.344024676cm" x2="1.40654230669cm" y1="1.4cm" y2="1.48cm" /><line x1="1.40654230669cm" x2="1.46708026941cm" y1="1.48cm" y2="1.56cm" /><line x1="1.46708026941cm" x2="1.52568425995cm" y1="1.56cm" y2="1.64cm" /><line x1="1.52568425995cm" x2="1.58239808875cm" y1="1.64cm" y2="1.72cm" /><line x1="1.58239808875cm" x2="1.63726375467cm" y1="1.72cm" y2="1.8cm" /><line x1="1.63726375467cm" x2="1.69032151482cm" y1="1.8cm" y2="1.88cm" /><line x1="1.69032151482cm" x2="1.74160995085cm" y1="1.88cm" y2="1.96cm" /><line x1="1.74160995085cm" x2="1.79116603166cm" y1="1.96cm" y2="2.04cm" /><line x1="1.79116603166cm" x2="1.8390251729cm" y1="2.04cm" y2="2.12cm" /><line x1="1.8390251729cm" x2="1.88522129339cm" y1="2.12cm" y2="2.2cm" /><line x1="1.88522129339cm" x2="1.92978686852cm" y1="2.2cm" y2="2.28cm" /><line x1="1.92978686852cm" x2="1.97275298092cm" y1="2.28cm" y2="2.36cm" /><line x1="1.97275298092cm" x2="2.0141493685cm" y1="2.36cm" y2="2.44cm" /><line x1="2.0141493685cm" x2="2.05400446987cm" y1="2.44cm" y2="2.52cm" /><line x1="2.05400446987cm" x2="2.09234546747cm" y1="2.52cm" y2="2.6cm" /><line x1="2.09234546747cm" x2="2.12919832837cm" y1="2.6cm" y2="2.68cm" /><line x1="2.12919832837cm" x2="2.16458784289cm" y1="2.68cm" y2="2.76cm" /><line x1="2.16458784289cm" x2="2.19853766119cm" y1="2.76cm" y2="2.84cm" /><line x1="2.19853766119cm" x2="2.23107032785cm" y1="2.84cm" y2="2.92cm" /><line x1="2.23107032785cm" x2="2.26220731457cm" y1="2.92cm" y2="3.0cm" /><line x1="2.26220731457cm" x2="2.29196905109cm" y1="3.0cm" y2="3.08cm" /><line x1="2.29196905109cm" x2="2.32037495435cm" y1="3.08cm" y2="3.16cm" /><line x1="2.32037495435cm" x2="2.34744345605cm" y1="3.16cm" y2="3.24cm" /><line x1="2.34744345605cm" x2="2.37319202858cm" y1="3.24cm" y2="3.32cm" /><line x1="2.37319202858cm" x2="2.39763720946cm" y1="3.32cm" y2="3.4cm" /><line x1="2.39763720946cm" x2="2.4207946243cm" y1="3.4cm" y2="3.48cm" /><line x1="2.4207946243cm" x2="2.44267900838cm" y1="3.48cm" y2="3.56cm" /><line x1="2.44267900838cm" x2="2.46330422687cm" y1="3.56cm" y2="3.64cm" /><line x1="2.46330422687cm" x2="2.48268329376cm" y1="3.64cm" y2="3.72cm" /><line x1="2.48268329376cm" x2="2.5008283895cm" y1="3.72cm" y2="3.8cm" /><line x1="2.5008283895cm" x2="2.51775087743cm" y1="3.8cm" y2="3.88cm" /><line x1="2.51775087743cm" x2="2.53346131911cm" y1="3.88cm" y2="3.96cm" /><line x1="2.53346131911cm" x2="2.54796948837cm" y1="3.96cm" y2="4.04cm" /><line x1="2.54796948837cm" x2="2.56128438438cm" y1="4.04cm" y2="4.12cm" /><line x1="2.56128438438cm" x2="2.57341424356cm" y1="4.12cm" y2="4.2cm" /><line x1="2.57341424356cm" x2="2.58436655048cm" y1="4.2cm" y2="4.28cm" /><line x1="2.58436655048cm" x2="2.59414804769cm" y1="4.28cm" y2="4.36cm" /><line x1="2.59414804769cm" x2="2.60276474463cm" y1="4.36cm" y2="4.44cm" /><line x1="2.60276474463cm" x2="2.61022192543cm" y1="4.44cm" y2="4.52cm" /><line x1="2.61022192543cm" x2="2.61652415589cm" y1="4.52cm" y2="4.6cm" /><line x1="2.61652415589cm" x2="2.62167528934cm" y1="4.6cm" y2="4.68cm" /><line x1="2.62167528934cm" x2="2.62567847174cm" y1="4.68cm" y2="4.76cm" /><line x1="2.62567847174cm" x2="2.62853614572cm" y1="4.76cm" y2="4.84cm" /><line x1="2.62853614572cm" x2="2.63025005374cm" y1="4.84cm" y2="4.92cm" /><line x1="2.63025005374cm" x2="2.6308212404cm" y1="4.92cm" y2="5.0cm" /><line x1="16.2180354007cm" x2="16.1692533403cm" y1="1.0cm" y2="1.08cm" /><line x1="16.1692533403cm" x2="16.1219641515cm" y1="1.08cm" y2="1.16cm" /><line x1="16.1219641515cm" x2="16.0761302475cm" y1="1.16cm" y2="1.24cm" /><line x1="16.0761302475cm" x2="16.0317155884cm" y1="1.24cm" y2="1.32cm" /><line x1="16.0317155884cm" x2="15.9886856167cm" y1="1.32cm" y2="1.4cm" /><line x1="15.9886856167cm" x2="15.9470071962cm" y1="1.4cm" y2="1.48cm" /><line x1="15.9470071962cm" x2="15.9066485544cm" y1="1.48cm" y2="1.56cm" /><line x1="15.9066485544cm" x2="15.8675792274cm" y1="1.56cm" y2="1.64cm" /><line x1="15.8675792274cm" x2="15.8297700082cm" y1="1.64cm" y2="1.72cm" /><line x1="15.8297700082cm" x2="15.7931928976cm" y1="1.72cm" y2="1.8cm" /><line x1="15.7931928976cm" x2="15.7578210575cm" y1="1.8cm" y2="1.88cm" /><line x1="15.7578210575cm" x2="15.7236287668cm" y1="1.88cm" y2="1.96cm" /><line x1="15.7236287668cm" x2="15.6905913796cm" y1="1.96cm" y2="2.04cm" /><line x1="15.6905913796cm" x2="15.6586852854cm" y1="2.04cm" y2="2.12cm" /><line x1="15.6586852854cm" x2="15.6278878717cm" y1="2.12cm" y2="2.2cm" /><line x1="15.6278878717cm" x2="15.5981774883cm" y1="2.2cm" y2="2.28cm" /><line x1="15.5981774883cm" x2="15.5695334134cm" y1="2.28cm" y2="2.36cm" /><line x1="15.5695334134cm" x2="15.5419358217cm" y1="2.36cm" y2="2.44cm" /><line x1="15.5419358217cm" x2="15.5153657541cm" y1="2.44cm" y2="2.52cm" /><line x1="15.5153657541cm" x2="15.489805089cm" y1="2.52cm" y2="2.6cm" /><line x1="15.489805089cm" x2="15.4652365151cm" y1="2.6cm" y2="2.68cm" /><line x1="15.4652365151cm" x2="15.4416435054cm" y1="2.68cm" y2="2.76cm" /><line x1="15.4416435054cm" x2="15.4190102932cm" y1="2.76cm" y2="2.84cm" /><line x1="15.4190102932cm" x2="15.3973218488cm" y1="2.84cm" y2="2.92cm" /><line x1="15.3973218488cm" x2="15.3765638576cm" y1="2.92cm" y2="3.0cm" /><line x1="15.3765638576cm" x2="15.3567226999cm" y1="3.0cm" y2="3.08cm" /><line x1="15.3567226999cm" x2="15.3377854311cm" y1="3.08cm" y2="3.16cm" /><line x1="15.3377854311cm" x2="15.3197397633cm" y1="3.16cm" y2="3.24cm" /><line x1="15.3197397633cm" x2="15.3025740483cm" y1="3.24cm" y2="3.32cm" /><line x1="15.3025740483cm" x2="15.286277261cm" y1="3.32cm" y2="3.4cm" /><line x1="15.286277261cm" x2="15.2708389845cm" y1="3.4cm" y2="3.48cm" /><line x1="15.2708389845cm" x2="15.2562493951cm" y1="3.48cm" y2="3.56cm" /><line x1="15.2562493951cm" x2="15.2424992494cm" y1="3.56cm" y2="3.64cm" /><line x1="15.2424992494cm" x2="15.2295798715cm" y1="3.64cm" y2="3.72cm" /><line x1="15.2295798715cm" x2="15.217483141cm" y1="3.72cm" y2="3.8cm" /><line x1="15.217483141cm" x2="15.2062014824cm" y1="3.8cm" y2="3.88cm" /><line x1="15.2062014824cm" x2="15.1957278546cm" y1="3.88cm" y2="3.96cm" /><line x1="15.1957278546cm" x2="15.1860557418cm" y1="3.96cm" y2="4.04cm" /><line x1="15.1860557418cm" x2="15.1771791444cm" y1="4.04cm" y2="4.12cm" /><line x1="15.1771791444cm" x2="15.1690925716cm" y1="4.12cm" y2="4.2cm" /><line x1="15.1690925716cm" x2="15.1617910337cm" y1="4.2cm" y2="4.28cm" /><line x1="15.1617910337cm" x2="15.1552700355cm" y1="4.28cm" y2="4.36cm" /><line x1="15.1552700355cm" x2="15.1495255709cm" y1="4.36cm" y2="4.44cm" /><line x1="15.1495255709cm" x2="15.1445541171cm" y1="4.44cm" y2="4.52cm" /><line x1="15.1445541171cm" x2="15.1403526301cm" y1="4.52cm" y2="4.6cm" /><line x1="15.1403526301cm" x2="15.1369185411cm" y1="4.6cm" y2="4.68cm" /><line x1="15.1369185411cm" x2="15.1342497528cm" y1="4.68cm" y2="4.76cm" /><line x1="15.1342497528cm" x2="15.1323446369cm" y1="4.76cm" y2="4.84cm" /><line x1="15.1323446369cm" x2="15.1312020315cm" y1="4.84cm" y2="4.92cm" /><line x1="15.1312020315cm" x2="15.1308212404cm" y1="4.92cm" y2="5.0cm" /><line x1="4.04360708013cm" x2="4.0923891405cm" y1="1.0cm" y2="1.08cm" /><line x1="4.0923891405cm" x2="4.1396783293cm" y1="1.08cm" y2="1.16cm" /><line x1="4.1396783293cm" x2="4.18551223331cm" y1="1.16cm" y2="1.24cm" /><line x1="4.18551223331cm" x2="4.22992689242cm" y1="1.24cm" y2="1.32cm" /><line x1="4.22992689242cm" x2="4.27295686414cm" y1="1.32cm" y2="1.4cm" /><line x1="4.27295686414cm" x2="4.31463528459cm" y1="1.4cm" y2="1.48cm" /><line x1="4.31463528459cm" x2="4.35499392641cm" y1="1.48cm" y2="1.56cm" /><line x1="4.35499392641cm" x2="4.39406325344cm" y1="1.56cm" y2="1.64cm" /><line x1="4.39406325344cm" x2="4.43187247264cm" y1="1.64cm" y2="1.72cm" /><line x1="4.43187247264cm" x2="4.46844958325cm" y1="1.72cm" y2="1.8cm" /><line x1="4.46844958325cm" x2="4.50382142335cm" y1="1.8cm" y2="1.88cm" /><line x1="4.50382142335cm" x2="4.53801371404cm" y1="1.88cm" y2="1.96cm" /><line x1="4.53801371404cm" x2="4.57105110124cm" y1="1.96cm" y2="2.04cm" /><line x1="4.57105110124cm" x2="4.6029571954cm" y1="2.04cm" y2="2.12cm" /><line x1="4.6029571954cm" x2="4.63375460906cm" y1="2.12cm" y2="2.2cm" /><line x1="4.63375460906cm" x2="4.66346499248cm" y1="2.2cm" y2="2.28cm" /><line x1="4.66346499248cm" x2="4.69210906742cm" y1="2.28cm" y2="2.36cm" /><line x1="4.69210906742cm" x2="4.71970665914cm" y1="2.36cm" y2="2.44cm" /><line x1="4.71970665914cm" x2="4.74627672672cm" y1="2.44cm" y2="2.52cm" /><line x1="4.74627672672cm" x2="4.77183739178cm" y1="2.52cm" y2="2.6cm" /><line x1="4.77183739178cm" x2="4.79640596571cm" y1="2.6cm" y2="2.68cm" /><line x1="4.79640596571cm" x2="4.8199989754cm" y1="2.68cm" y2="2.76cm" /><line x1="4.8199989754cm" x2="4.8426321876cm" y1="2.76cm" y2="2.84cm" /><line x1="4.8426321876cm" x2="4.86432063204cm" y1="2.84cm" y2="2.92cm" /><line x1="4.86432063204cm" x2="4.88507862318cm" y1="2.92cm" y2="3.0cm" /><line x1="4.88507862318cm" x2="4.90491978086cm" y1="3.0cm" y2="3.08cm" /><line x1="4.90491978086cm" x2="4.9238570497cm" y1="3.08cm" y2="3.16cm" /><line x1="4.9238570497cm" x2="4.9419027175cm" y1="3.16cm" y2="3.24cm" /><line x1="4.9419027175cm" x2="4.95906843252cm" y1="3.24cm" y2="3.32cm" /><line x1="4.95906843252cm" x2="4.97536521978cm" y1="3.32cm" y2="3.4cm" /><line x1="4.97536521978cm" x2="4.99080349633cm" y1="3.4cm" y2="3.48cm" /><line x1="4.99080349633cm" x2="5.00539308572cm" y1="3.48cm" y2="3.56cm" /><line x1="5.00539308572cm" x2="5.01914323138cm" y1="3.56cm" y2="3.64cm" /><line x1="5.01914323138cm" x2="5.03206260931cm" y1="3.64cm" y2="3.72cm" /><line x1="5.03206260931cm" x2="5.0441593398cm" y1="3.72cm" y2="3.8cm" /><line x1="5.0441593398cm" x2="5.05544099842cm" y1="3.8cm" y2="3.88cm" /><line x1="5.05544099842cm" x2="5.06591462621cm" y1="3.88cm" y2="3.96cm" /><line x1="5.06591462621cm" x2="5.07558673905cm" y1="3.96cm" y2="4.04cm" /><line x1="5.07558673905cm" x2="5.08446333639cm" y1="4.04cm" y2="4.12cm" /><line x1="5.08446333639cm" x2="5.09254990918cm" y1="4.12cm" y2="4.2cm" /><line x1="5.09254990918cm" x2="5.09985144712cm" y1="4.2cm" y2="4.28cm" /><line x1="5.09985144712cm" x2="5.10637244526cm" y1="4.28cm" y2="4.36cm" /><line x1="5.10637244526cm" x2="5.11211690989cm" y1="4.36cm" y2="4.44cm" /><line x1="5.11211690989cm" x2="5.11708836376cm" y1="4.44cm" y2="4.52cm" /><line x1="5.11708836376cm" x2="5.12128985073cm" y1="4.52cm" y2="4.6cm" /><line x1="5.12128985073cm" x2="5.1247239397cm" y1="4.6cm" y2="4.68cm" /><line x1="5.1247239397cm" x2="5.12739272796cm" y1="4.68cm" y2="4.76cm" /><line x1="5.12739272796cm" x2="5.12929784395cm" y1="4.76cm" y2="4.84cm" /><line x1="5.12929784395cm" x2="5.1304404493cm" y1="4.84cm" y2="4.92cm" /><line x1="5.1304404493cm" x2="5.1308212404cm" y1="4.92cm" y2="5.0cm" /><line x1="13.1744283205cm" x2="13.1500372904cm" y1="1.0cm" y2="1.08cm" /><line x1="13.1500372904cm" x2="13.126392696cm" y1="1.08cm" y2="1.16cm" /><line x1="13.126392696cm" x2="13.103475744cm" y1="1.16cm" y2="1.24cm" /><line x1="13.103475744cm" x2="13.0812684144cm" y1="1.24cm" y2="1.32cm" /><line x1="13.0812684144cm" x2="13.0597534285cm" y1="1.32cm" y2="1.4cm" /><line x1="13.0597534285cm" x2="13.0389142183cm" y1="1.4cm" y2="1.48cm" /><line x1="13.0389142183cm" x2="13.0187348974cm" y1="1.48cm" y2="1.56cm" /><line x1="13.0187348974cm" x2="12.9992002339cm" y1="1.56cm" y2="1.64cm" /><line x1="12.9992002339cm" x2="12.9802956243cm" y1="1.64cm" y2="1.72cm" /><line x1="12.9802956243cm" x2="12.962007069cm" y1="1.72cm" y2="1.8cm" /><line x1="12.962007069cm" x2="12.9443211489cm" y1="1.8cm" y2="1.88cm" /><line x1="12.9443211489cm" x2="12.9272250036cm" y1="1.88cm" y2="1.96cm" /><line x1="12.9272250036cm" x2="12.91070631cm" y1="1.96cm" y2="2.04cm" /><line x1="12.91070631cm" x2="12.8947532629cm" y1="2.04cm" y2="2.12cm" /><line x1="12.8947532629cm" x2="12.8793545561cm" y1="2.12cm" y2="2.2cm" /><line x1="12.8793545561cm" x2="12.8644993644cm" y1="2.2cm" y2="2.28cm" /><line x1="12.8644993644cm" x2="12.8501773269cm" y1="2.28cm" y2="2.36cm" /><line x1="12.8501773269cm" x2="12.836378531cm" y1="2.36cm" y2="2.44cm" /><line x1="12.836378531cm" x2="12.8230934972cm" y1="2.44cm" y2="2.52cm" /><line x1="12.8230934972cm" x2="12.8103131647cm" y1="2.52cm" y2="2.6cm" /><line x1="12.8103131647cm" x2="12.7980288778cm" y1="2.6cm" y2="2.68cm" /><line x1="12.7980288778cm" x2="12.7862323729cm" y1="2.68cm" y2="2.76cm" /><line x1="12.7862323729cm" x2="12.7749157668cm" y1="2.76cm" y2="2.84cm" /><line x1="12.7749157668cm" x2="12.7640715446cm" y1="2.84cm" y2="2.92cm" /><line x1="12.7640715446cm" x2="12.753692549cm" y1="2.92cm" y2="3.0cm" /><line x1="12.753692549cm" x2="12.7437719702cm" y1="3.0cm" y2="3.08cm" /><line x1="12.7437719702cm" x2="12.7343033358cm" y1="3.08cm" y2="3.16cm" /><line x1="12.7343033358cm" x2="12.7252805019cm" y1="3.16cm" y2="3.24cm" /><line x1="12.7252805019cm" x2="12.7166976443cm" y1="3.24cm" y2="3.32cm" /><line x1="12.7166976443cm" x2="12.7085492507cm" y1="3.32cm" y2="3.4cm" /><line x1="12.7085492507cm" x2="12.7008301124cm" y1="3.4cm" y2="3.48cm" /><line x1="12.7008301124cm" x2="12.6935353177cm" y1="3.48cm" y2="3.56cm" /><line x1="12.6935353177cm" x2="12.6866602449cm" y1="3.56cm" y2="3.64cm" /><line x1="12.6866602449cm" x2="12.680200556cm" y1="3.64cm" y2="3.72cm" /><line x1="12.680200556cm" x2="12.6741521907cm" y1="3.72cm" y2="3.8cm" /><line x1="12.6741521907cm" x2="12.6685113614cm" y1="3.8cm" y2="3.88cm" /><line x1="12.6685113614cm" x2="12.6632745475cm" y1="3.88cm" y2="3.96cm" /><line x1="12.6632745475cm" x2="12.6584384911cm" y1="3.96cm" y2="4.04cm" /><line x1="12.6584384911cm" x2="12.6540001924cm" y1="4.04cm" y2="4.12cm" /><line x1="12.6540001924cm" x2="12.649956906cm" y1="4.12cm" y2="4.2cm" /><line x1="12.649956906cm" x2="12.646306137cm" y1="4.2cm" y2="4.28cm" /><line x1="12.646306137cm" x2="12.643045638cm" y1="4.28cm" y2="4.36cm" /><line x1="12.643045638cm" x2="12.6401734057cm" y1="4.36cm" y2="4.44cm" /><line x1="12.6401734057cm" x2="12.6376876787cm" y1="4.44cm" y2="4.52cm" /><line x1="12.6376876787cm" x2="12.6355869352cm" y1="4.52cm" y2="4.6cm" /><line x1="12.6355869352cm" x2="12.6338698908cm" y1="4.6cm" y2="4.68cm" /><line x1="12.6338698908cm" x2="12.6325354966cm" y1="4.68cm" y2="4.76cm" /><line x1="12.6325354966cm" x2="12.6315829386cm" y1="4.76cm" y2="4.84cm" /><line x1="12.6315829386cm" x2="12.631011636cm" y1="4.84cm" y2="4.92cm" /><line x1="12.631011636cm" x2="12.6308212404cm" y1="4.92cm" y2="5.0cm" /><line x1="7.08721416027cm" x2="7.11160519045cm" y1="1.0cm" y2="1.08cm" /><line x1="7.11160519045cm" x2="7.13524978485cm" y1="1.08cm" y2="1.16cm" /><line x1="7.13524978485cm" x2="7.15816673686cm" y1="1.16cm" y2="1.24cm" /><line x1="7.15816673686cm" x2="7.18037406641cm" y1="1.24cm" y2="1.32cm" /><line x1="7.18037406641cm" x2="7.20188905227cm" y1="1.32cm" y2="1.4cm" /><line x1="7.20188905227cm" x2="7.2227282625cm" y1="1.4cm" y2="1.48cm" /><line x1="7.2227282625cm" x2="7.24290758341cm" y1="1.48cm" y2="1.56cm" /><line x1="7.24290758341cm" x2="7.26244224692cm" y1="1.56cm" y2="1.64cm" /><line x1="7.26244224692cm" x2="7.28134685652cm" y1="1.64cm" y2="1.72cm" /><line x1="7.28134685652cm" x2="7.29963541183cm" y1="1.72cm" y2="1.8cm" /><line x1="7.29963541183cm" x2="7.31732133188cm" y1="1.8cm" y2="1.88cm" /><line x1="7.31732133188cm" x2="7.33441747722cm" y1="1.88cm" y2="1.96cm" /><line x1="7.33441747722cm" x2="7.35093617082cm" y1="1.96cm" y2="2.04cm" /><line x1="7.35093617082cm" x2="7.3668892179cm" y1="2.04cm" y2="2.12cm" /><line x1="7.3668892179cm" x2="7.38228792473cm" y1="2.12cm" y2="2.2cm" /><line x1="7.38228792473cm" x2="7.39714311644cm" y1="2.2cm" y2="2.28cm" /><line x1="7.39714311644cm" x2="7.41146515391cm" y1="2.28cm" y2="2.36cm" /><line x1="7.41146515391cm" x2="7.42526394977cm" y1="2.36cm" y2="2.44cm" /><line x1="7.42526394977cm" x2="7.43854898356cm" y1="2.44cm" y2="2.52cm" /><line x1="7.43854898356cm" x2="7.45132931609cm" y1="2.52cm" y2="2.6cm" /><line x1="7.45132931609cm" x2="7.46361360306cm" y1="2.6cm" y2="2.68cm" /><line x1="7.46361360306cm" x2="7.4754101079cm" y1="2.68cm" y2="2.76cm" /><line x1="7.4754101079cm" x2="7.486726714cm" y1="2.76cm" y2="2.84cm" /><line x1="7.486726714cm" x2="7.49757093622cm" y1="2.84cm" y2="2.92cm" /><line x1="7.49757093622cm" x2="7.50794993179cm" y1="2.92cm" y2="3.0cm" /><line x1="7.50794993179cm" x2="7.51787051063cm" y1="3.0cm" y2="3.08cm" /><line x1="7.51787051063cm" x2="7.52733914505cm" y1="3.08cm" y2="3.16cm" /><line x1="7.52733914505cm" x2="7.53636197895cm" y1="3.16cm" y2="3.24cm" /><line x1="7.53636197895cm" x2="7.54494483646cm" y1="3.24cm" y2="3.32cm" /><line x1="7.54494483646cm" x2="7.55309323009cm" y1="3.32cm" y2="3.4cm" /><line x1="7.55309323009cm" x2="7.56081236837cm" y1="3.4cm" y2="3.48cm" /><line x1="7.56081236837cm" x2="7.56810716306cm" y1="3.48cm" y2="3.56cm" /><line x1="7.56810716306cm" x2="7.57498223589cm" y1="3.56cm" y2="3.64cm" /><line x1="7.57498223589cm" x2="7.58144192486cm" y1="3.64cm" y2="3.72cm" /><line x1="7.58144192486cm" x2="7.5874902901cm" y1="3.72cm" y2="3.8cm" /><line x1="7.5874902901cm" x2="7.59313111941cm" y1="3.8cm" y2="3.88cm" /><line x1="7.59313111941cm" x2="7.59836793331cm" y1="3.88cm" y2="3.96cm" /><line x1="7.59836793331cm" x2="7.60320398973cm" y1="3.96cm" y2="4.04cm" /><line x1="7.60320398973cm" x2="7.6076422884cm" y1="4.04cm" y2="4.12cm" /><line x1="7.6076422884cm" x2="7.61168557479cm" y1="4.12cm" y2="4.2cm" /><line x1="7.61168557479cm" x2="7.61533634376cm" y1="4.2cm" y2="4.28cm" /><line x1="7.61533634376cm" x2="7.61859684283cm" y1="4.28cm" y2="4.36cm" /><line x1="7.61859684283cm" x2="7.62146907515cm" y1="4.36cm" y2="4.44cm" /><line x1="7.62146907515cm" x2="7.62395480208cm" y1="4.44cm" y2="4.52cm" /><line x1="7.62395480208cm" x2="7.62605554557cm" y1="4.52cm" y2="4.6cm" /><line x1="7.62605554557cm" x2="7.62777259005cm" y1="4.6cm" y2="4.68cm" /><line x1="7.62777259005cm" x2="7.62910698418cm" y1="4.68cm" y2="4.76cm" /><line x1="7.62910698418cm" x2="7.63005954218cm" y1="4.76cm" y2="4.84cm" /><line x1="7.63005954218cm" x2="7.63063084485cm" y1="4.84cm" y2="4.92cm" /><line x1="7.63063084485cm" x2="7.6308212404cm" y1="4.92cm" y2="5.0cm" /><line x1="11.6526247805cm" x2="11.6404292654cm" y1="1.0cm" y2="1.08cm" /><line x1="11.6404292654cm" x2="11.6286069682cm" y1="1.08cm" y2="1.16cm" /><line x1="11.6286069682cm" x2="11.6171484922cm" y1="1.16cm" y2="1.24cm" /><line x1="11.6171484922cm" x2="11.6060448274cm" y1="1.24cm" y2="1.32cm" /><line x1="11.6060448274cm" x2="11.5952873345cm" y1="1.32cm" y2="1.4cm" /><line x1="11.5952873345cm" x2="11.5848677294cm" y1="1.4cm" y2="1.48cm" /><line x1="11.5848677294cm" x2="11.5747780689cm" y1="1.48cm" y2="1.56cm" /><line x1="11.5747780689cm" x2="11.5650107371cm" y1="1.56cm" y2="1.64cm" /><line x1="11.5650107371cm" x2="11.5555584323cm" y1="1.64cm" y2="1.72cm" /><line x1="11.5555584323cm" x2="11.5464141547cm" y1="1.72cm" y2="1.8cm" /><line x1="11.5464141547cm" x2="11.5375711947cm" y1="1.8cm" y2="1.88cm" /><line x1="11.5375711947cm" x2="11.529023122cm" y1="1.88cm" y2="1.96cm" /><line x1="11.529023122cm" x2="11.5207637752cm" y1="1.96cm" y2="2.04cm" /><line x1="11.5207637752cm" x2="11.5127872517cm" y1="2.04cm" y2="2.12cm" /><line x1="11.5127872517cm" x2="11.5050878982cm" y1="2.12cm" y2="2.2cm" /><line x1="11.5050878982cm" x2="11.4976603024cm" y1="2.2cm" y2="2.28cm" /><line x1="11.4976603024cm" x2="11.4904992837cm" y1="2.28cm" y2="2.36cm" /><line x1="11.4904992837cm" x2="11.4835998857cm" y1="2.36cm" y2="2.44cm" /><line x1="11.4835998857cm" x2="11.4769573688cm" y1="2.44cm" y2="2.52cm" /><line x1="11.4769573688cm" x2="11.4705672026cm" y1="2.52cm" y2="2.6cm" /><line x1="11.4705672026cm" x2="11.4644250591cm" y1="2.6cm" y2="2.68cm" /><line x1="11.4644250591cm" x2="11.4585268067cm" y1="2.68cm" y2="2.76cm" /><line x1="11.4585268067cm" x2="11.4528685036cm" y1="2.76cm" y2="2.84cm" /><line x1="11.4528685036cm" x2="11.4474463925cm" y1="2.84cm" y2="2.92cm" /><line x1="11.4474463925cm" x2="11.4422568947cm" y1="2.92cm" y2="3.0cm" /><line x1="11.4422568947cm" x2="11.4372966053cm" y1="3.0cm" y2="3.08cm" /><line x1="11.4372966053cm" x2="11.4325622881cm" y1="3.08cm" y2="3.16cm" /><line x1="11.4325622881cm" x2="11.4280508711cm" y1="3.16cm" y2="3.24cm" /><line x1="11.4280508711cm" x2="11.4237594424cm" y1="3.24cm" y2="3.32cm" /><line x1="11.4237594424cm" x2="11.4196852456cm" y1="3.32cm" y2="3.4cm" /><line x1="11.4196852456cm" x2="11.4158256764cm" y1="3.4cm" y2="3.48cm" /><line x1="11.4158256764cm" x2="11.4121782791cm" y1="3.48cm" y2="3.56cm" /><line x1="11.4121782791cm" x2="11.4087407427cm" y1="3.56cm" y2="3.64cm" /><line x1="11.4087407427cm" x2="11.4055108982cm" y1="3.64cm" y2="3.72cm" /><line x1="11.4055108982cm" x2="11.4024867156cm" y1="3.72cm" y2="3.8cm" /><line x1="11.4024867156cm" x2="11.3996663009cm" y1="3.8cm" y2="3.88cm" /><line x1="11.3996663009cm" x2="11.397047894cm" y1="3.88cm" y2="3.96cm" /><line x1="11.397047894cm" x2="11.3946298657cm" y1="3.96cm" y2="4.04cm" /><line x1="11.3946298657cm" x2="11.3924107164cm" y1="4.04cm" y2="4.12cm" /><line x1="11.3924107164cm" x2="11.3903890732cm" y1="4.12cm" y2="4.2cm" /><line x1="11.3903890732cm" x2="11.3885636887cm" y1="4.2cm" y2="4.28cm" /><line x1="11.3885636887cm" x2="11.3869334392cm" y1="4.28cm" y2="4.36cm" /><line x1="11.3869334392cm" x2="11.385497323cm" y1="4.36cm" y2="4.44cm" /><line x1="11.385497323cm" x2="11.3842544596cm" y1="4.44cm" y2="4.52cm" /><line x1="11.3842544596cm" x2="11.3832040878cm" y1="4.52cm" y2="4.6cm" /><line x1="11.3832040878cm" x2="11.3823455656cm" y1="4.6cm" y2="4.68cm" /><line x1="11.3823455656cm" x2="11.3816783685cm" y1="4.68cm" y2="4.76cm" /><line x1="11.3816783685cm" x2="11.3812020895cm" y1="4.76cm" y2="4.84cm" /><line x1="11.3812020895cm" x2="11.3809164382cm" y1="4.84cm" y2="4.92cm" /><line x1="11.3809164382cm" x2="11.3808212404cm" y1="4.92cm" y2="5.0cm" /><line x1="8.60901770034cm" x2="8.62121321543cm" y1="1.0cm" y2="1.08cm" /><line x1="8.62121321543cm" x2="8.63303551263cm" y1="1.08cm" y2="1.16cm" /><line x1="8.63303551263cm" x2="8.64449398863cm" y1="1.16cm" y2="1.24cm" /><line x1="8.64449398863cm" x2="8.65559765341cm" y1="1.24cm" y2="1.32cm" /><line x1="8.65559765341cm" x2="8.66635514634cm" y1="1.32cm" y2="1.4cm" /><line x1="8.66635514634cm" x2="8.67677475145cm" y1="1.4cm" y2="1.48cm" /><line x1="8.67677475145cm" x2="8.68686441191cm" y1="1.48cm" y2="1.56cm" /><line x1="8.68686441191cm" x2="8.69663174366cm" y1="1.56cm" y2="1.64cm" /><line x1="8.69663174366cm" x2="8.70608404846cm" y1="1.64cm" y2="1.72cm" /><line x1="8.70608404846cm" x2="8.71522832612cm" y1="1.72cm" y2="1.8cm" /><line x1="8.71522832612cm" x2="8.72407128614cm" y1="1.8cm" y2="1.88cm" /><line x1="8.72407128614cm" x2="8.73261935881cm" y1="1.88cm" y2="1.96cm" /><line x1="8.73261935881cm" x2="8.74087870561cm" y1="1.96cm" y2="2.04cm" /><line x1="8.74087870561cm" x2="8.74885522915cm" y1="2.04cm" y2="2.12cm" /><line x1="8.74885522915cm" x2="8.75655458257cm" y1="2.12cm" y2="2.2cm" /><line x1="8.75655458257cm" x2="8.76398217842cm" y1="2.2cm" y2="2.28cm" /><line x1="8.76398217842cm" x2="8.77114319716cm" y1="2.28cm" y2="2.36cm" /><line x1="8.77114319716cm" x2="8.77804259509cm" y1="2.36cm" y2="2.44cm" /><line x1="8.77804259509cm" x2="8.78468511198cm" y1="2.44cm" y2="2.52cm" /><line x1="8.78468511198cm" x2="8.79107527825cm" y1="2.52cm" y2="2.6cm" /><line x1="8.79107527825cm" x2="8.79721742173cm" y1="2.6cm" y2="2.68cm" /><line x1="8.79721742173cm" x2="8.80311567415cm" y1="2.68cm" y2="2.76cm" /><line x1="8.80311567415cm" x2="8.8087739772cm" y1="2.76cm" y2="2.84cm" /><line x1="8.8087739772cm" x2="8.81419608831cm" y1="2.84cm" y2="2.92cm" /><line x1="8.81419608831cm" x2="8.8193855861cm" y1="2.92cm" y2="3.0cm" /><line x1="8.8193855861cm" x2="8.82434587552cm" y1="3.0cm" y2="3.08cm" /><line x1="8.82434587552cm" x2="8.82908019273cm" y1="3.08cm" y2="3.16cm" /><line x1="8.82908019273cm" x2="8.83359160968cm" y1="3.16cm" y2="3.24cm" /><line x1="8.83359160968cm" x2="8.83788303843cm" y1="3.24cm" y2="3.32cm" /><line x1="8.83788303843cm" x2="8.84195723525cm" y1="3.32cm" y2="3.4cm" /><line x1="8.84195723525cm" x2="8.84581680439cm" y1="3.4cm" y2="3.48cm" /><line x1="8.84581680439cm" x2="8.84946420173cm" y1="3.48cm" y2="3.56cm" /><line x1="8.84946420173cm" x2="8.85290173815cm" y1="3.56cm" y2="3.64cm" /><line x1="8.85290173815cm" x2="8.85613158263cm" y1="3.64cm" y2="3.72cm" /><line x1="8.85613158263cm" x2="8.85915576525cm" y1="3.72cm" y2="3.8cm" /><line x1="8.85915576525cm" x2="8.86197617991cm" y1="3.8cm" y2="3.88cm" /><line x1="8.86197617991cm" x2="8.86459458686cm" y1="3.88cm" y2="3.96cm" /><line x1="8.86459458686cm" x2="8.86701261507cm" y1="3.96cm" y2="4.04cm" /><line x1="8.86701261507cm" x2="8.8692317644cm" y1="4.04cm" y2="4.12cm" /><line x1="8.8692317644cm" x2="8.8712534076cm" y1="4.12cm" y2="4.2cm" /><line x1="8.8712534076cm" x2="8.87307879208cm" y1="4.2cm" y2="4.28cm" /><line x1="8.87307879208cm" x2="8.87470904162cm" y1="4.28cm" y2="4.36cm" /><line x1="8.87470904162cm" x2="8.87614515778cm" y1="4.36cm" y2="4.44cm" /><line x1="8.87614515778cm" x2="8.87738802124cm" y1="4.44cm" y2="4.52cm" /><line x1="8.87738802124cm" x2="8.87843839299cm" y1="4.52cm" y2="4.6cm" /><line x1="8.87843839299cm" x2="8.87929691523cm" y1="4.6cm" y2="4.68cm" /><line x1="8.87929691523cm" x2="8.87996411229cm" y1="4.68cm" y2="4.76cm" /><line x1="8.87996411229cm" x2="8.88044039129cm" y1="4.76cm" y2="4.84cm" /><line x1="8.88044039129cm" x2="8.88072604263cm" y1="4.84cm" y2="4.92cm" /><line x1="8.88072604263cm" x2="8.8808212404cm" y1="4.92cm" y2="5.0cm" /></g><text x="19.2616424808cm" y="5.3cm">75km</text><text x="1.0cm" y="5.3cm">75km</text><text x="16.2180354007cm" y="5.3cm">50km</text><text x="4.04360708013cm" y="5.3cm">50km</text><text x="13.1744283205cm" y="5.3cm">25km</text><text x="7.08721416027cm" y="5.3cm">25km</text><g id="horizontal_tick" stroke="black"><line x1="10.1308212404cm" x2="19.2616424808cm" y1="1.0cm" y2="1.0cm" /><line x1="1.0cm" x2="10.1308212404cm" y1="1.0cm" y2="1.0cm" /><line x1="10.1308212404cm" x2="19.2616424808cm" y1="5.0cm" y2="5.0cm" /><line x1="1.0cm" x2="10.1308212404cm" y1="5.0cm" y2="5.0cm" /><line x1="10.1308212404cm" x2="19.2616424808cm" y1="4.6cm" y2="4.6cm" /><line x1="1.0cm" x2="10.1308212404cm" y1="4.6cm" y2="4.6cm" /><line x1="10.1308212404cm" x2="19.2616424808cm" y1="4.2cm" y2="4.2cm" /><line x1="1.0cm" x2="10.1308212404cm" y1="4.2cm" y2="4.2cm" /><line x1="10.1308212404cm" x2="19.2616424808cm" y1="3.8cm" y2="3.8cm" /><line x1="1.0cm" x2="10.1308212404cm" y1="3.8cm" y2="3.8cm" /><line x1="10.1308212404cm" x2="19.2616424808cm" y1="3.4cm" y2="3.4cm" /><line x1="1.0cm" x2="10.1308212404cm" y1="3.4cm" y2="3.4cm" /><line x1="10.1308212404cm" x2="19.2616424808cm" y1="3.0cm" y2="3.0cm" /><line x1="1.0cm" x2="10.1308212404cm" y1="3.0cm" y2="3.0cm" /><line x1="10.1308212404cm" x2="19.2616424808cm" y1="2.6cm" y2="2.6cm" /><line x1="1.0cm" x2="10.1308212404cm" y1="2.6cm" y2="2.6cm" /><line x1="10.1308212404cm" x2="19.2616424808cm" y1="2.2cm" y2="2.2cm" /><line x1="1.0cm" x2="10.1308212404cm" y1="2.2cm" y2="2.2cm" /><line x1="10.1308212404cm" x2="19.2616424808cm" y1="1.8cm" y2="1.8cm" /><line x1="1.0cm" x2="10.1308212404cm" y1="1.8cm" y2="1.8cm" /><line x1="10.1308212404cm" x2="19.2616424808cm" y1="1.4cm" y2="1.4cm" /><line x1="1.0cm" x2="10.1308212404cm" y1="1.4cm" y2="1.4cm" /><line x1="10.1308212404cm" x2="19.2616424808cm" y1="1.0cm" y2="1.0cm" /><line x1="1.0cm" x2="10.1308212404cm" y1="1.0cm" y2="1.0cm" /><line x1="10.1308212404cm" x2="19.2616424808cm" y1="5.0cm" y2="5.0cm" /><line x1="1.0cm" x2="10.1308212404cm" y1="5.0cm" y2="5.0cm" /></g></svg>