<?xml version="1.0" encoding="utf-8" ?>
<svg baseProfile="full" height="6.0cm" version="1.1" width="19.9376127636cm" xmlns="http://www.w3.org/2000/svg" xmlns:ev="http://www.w3.org/2001/xml-events" xmlns:xlink="http://www.w3.org/1999/xlink"><defs /><g font-size="12"><text x="18.9376127636cm" y="5.0cm">42.3°</text><text x="0.0cm" y="5.0cm">42.3°</text><text x="18.9376127636cm" y="4.35429769392cm">50.0°</text><text x="0.0cm" y="4.35429769392cm">50.0°</text><text x="18.9376127636cm" y="3.51572327044cm">60.0°</text><text x="0.0cm" y="3.51572327044cm">60.0°</text><text x="18.9376127636cm" y="2.67714884696cm">70.0°</text><text x="0.0cm" y="2.67714884696cm">70.0°</text><text x="18.9376127636cm" y="1.83857442348cm">80.0°</text><text x="0.0cm" y="1.83857442348cm">80.0°</text><text x="18.9376127636cm" y="1.0cm">90.0°</text><text x="0.0cm" y="1.0cm">90.0°</text></g><g id="vertical" stroke="black"><line x1="9.96880638181cm" x2="9.96880638181cm" y1="1.0cm" y2="1.08cm" /><line x1="9.96880638181cm" x2="9.96880638181cm" y1="1.08cm" y2="1.16cm" /><line x1="9.96880638181cm" x2="9.96880638181cm" y1="1.16cm" y2="1.24cm" /><line x1="9.96880638181cm" x2="9.96880638181cm" y1="1.24cm" y2="1.32cm" /><line x1="9.96880638181cm" x2="9.96880638181cm" y1="1.32cm" y2="1.4cm" /><line x1="9.96880638181cm" x2="9.96880638181cm" y1="1.4cm" y2="1.48cm" /><line x1="9.96880638181cm" x2="9.96880638181cm" y1="1.48cm" y2="1.56cm" /><line x1="9.96880638181cm" x2="9.96880638181cm" y1="1.56cm" y2="1.64cm" /><line x1="9.96880638181cm" x2="9.96880638181cm" y1="1.64cm" y2="1.72cm" /><line x1="9.96880638181cm" x2="9.96880638181cm" y1="1.72cm" y2="1.8cm" /><line x1="9.96880638181cm" x2="9.96880638181cm" y1="1.8cm" y2="1.88cm" /><line x1="9.96880638181cm" x2="9.96880638181cm" y1="1.88cm" y2="1.96cm" /><line x1="9.96880638181cm" x2="9.96880638181cm" y1="1.96cm" y2="2.04cm" /><line x1="9.96880638181cm" x2="9.96880638181cm" y1="2.04cm" y2="2.12cm" /><line x1="9.96880638181cm" x2="9.96880638181cm" y1="2.12cm" y2="2.2cm" /><line x1="9.96880638181cm" x2="9.96880638181cm" y1="2.2cm" y2="2.28cm" /><line x1="9.96880638181cm" x2="9.96880638181cm" y1="2.28cm" y2="2.36cm" /><line x1="9.96880638181cm" x2="9.96880638181cm" y1="2.36cm" y2="2.44cm" /><line x1="9.96880638181cm" x2="9.96880638181cm" y1="2.44cm" y2="2.52cm" /><line x1="9.96880638181cm" x2="9.96880638181cm" y1="2.52cm" y2="2.6cm" /><line x1="9.96880638181cm" x2="9.96880638181cm" y1="2.6cm" y2="2.68cm" /><line x1="9.96880638181cm" x2="9.96880638181cm" y1="2.68cm" y2="2.76cm" /><line x1="9.96880638181cm" x2="9.96880638181cm" y1="2.76cm" y2="2.84cm" /><line x1="9.96880638181cm" x2="9.96880638181cm" y1="2.84cm" y2="2.92cm" /><line x1="9.96880638181cm" x2="9.96880638181cm" y1="2.92cm" y2="3.0cm" /><line x1="9.96880638181cm" x2="9.96880638181cm" y1="3.0cm" y2="3.08cm" /><line x1="9.96880638181cm" x2="9.96880638181cm" y1="3.08cm" y2="3.16cm" /><line x1="9.96880638181cm" x2="9.96880638181cm" y1="3.16cm" y2="3.24cm" /><line x1="9.96880638181cm" x2="9.96880638181cm" y1="3.24cm" y2="3.32cm" /><line x1="9.96880638181cm" x2="9.96880638181cm" y1="3.32cm" y2="3.4cm" /><line x1="9.96880638181cm" x2="9.96880638181cm" y1="3.4cm" y2="3.48cm" /><line x1="9.96880638181cm" x2="9.96880638181cm" y1="3.48cm" y2="3.56cm" /><line x1="9.96880638181cm" x2="9.96880638181cm" y1="3.56cm" y2="3.64cm" /><line x1="9.96880638181cm" x2="9.96880638181cm" y1="3.64cm" y2="3.72cm" /><line x1="9.96880638181cm" x2="9.96880638181cm" y1="3.72cm" y2="3.8cm" /><line x1="9.96880638181cm" x2="9.96880638181cm" y1="3.8cm" y2="3.88cm" /><line x1="9.96880638181cm" x2="9.96880638181cm" y1="3.88cm" y2="3.96cm" /><line x1="9.96880638181cm" x2="9.96880638181cm" y1="3.96cm" y2="4.04cm" /><line x1="9.96880638181cm" x2="9.96880638181cm" y1="4.04cm" y2="4.12cm" /><line x1="9.96880638181cm" x2="9.96880638181cm" y1="4.12cm" y2="4.2cm" /><line x1="9.96880638181cm" x2="9.96880638181cm" y1="4.2cm" y2="4.28cm" /><line x1="9.96880638181cm" x2="9.96880638181cm" y1="4.28cm" y2="4.36cm" /><line x1="9.96880638181cm" x2="9.96880638181cm" y1="4.36cm" y2="4.44cm" /><line x1="9.96880638181cm" x2="9.96880638181cm" y1="4.44cm" y2="4.52cm" /><line x1="9.96880638181cm" x2="9.96880638181cm" y1="4.52cm" y2="4.6cm" /><line x1="9.96880638181cm" x2="9.96880638181cm" y1="4.6cm" y2="4.68cm" /><line x1="9.96880638181cm" x2="9.96880638181cm" y1="4.68cm" y2="4.76cm" /><line x1="9.96880638181cm" x2="9.96880638181cm" y1="4.76cm" y2="4.84cm" /><line x1="9.96880638181cm" x2="9.96880638181cm" y1="4.84cm" y2="4.92cm" /><line x1="9.96880638181cm" x2="9.96880638181cm" y1="4.92cm" y2="5.0cm" /><line x1="18.9376127636cm" x2="18.8724482093cm" y1="5.0cm" y2="4.92cm" /><line x1="18.8724482093cm" x2="18.8092144113cm" y1="4.92cm" y2="4.84cm" /><line x1="18.8092144113cm" x2="18.7478666016cm" y1="4.84cm" y2="4.76cm" /><line x1="18.7478666016cm" x2="18.6883617716cm" y1="4.76cm" y2="4.68cm" /><line x1="18.6883617716cm" x2="18.6306586046cm" y1="4.68cm" y2="4.6cm" /><line x1="18.6306586046cm" x2="18.5747174105cm" y1="4.6cm" y2="4.52cm" /><line x1="18.5747174105cm" x2="18.5205000646cm" y1="4.52cm" y2="4.44cm" /><line x1="18.5205000646cm" x2="18.4679699487cm" y1="4.44cm" y2="4.36cm" /><line x1="18.4679699487cm" x2="18.4170918956cm" y1="4.36cm" y2="4.28cm" /><line x1="18.4170918956cm" x2="18.3678321367cm" y1="4.28cm" y2="4.2cm" /><line x1="18.3678321367cm" x2="18.3201582514cm" y1="4.2cm" y2="4.12cm" /><line x1="18.3201582514cm" x2="18.2740391195cm" y1="4.12cm" y2="4.04cm" /><line x1="18.2740391195cm" x2="18.2294448763cm" y1="4.04cm" y2="3.96cm" /><line x1="18.2294448763cm" x2="18.1863468691cm" y1="3.96cm" y2="3.88cm" /><line x1="18.1863468691cm" x2="18.1447176167cm" y1="3.88cm" y2="3.8cm" /><line x1="18.1447176167cm" x2="18.1045307704cm" y1="3.8cm" y2="3.72cm" /><line x1="18.1045307704cm" x2="18.0657610769cm" y1="3.72cm" y2="3.64cm" /><line x1="18.0657610769cm" x2="18.0283843438cm" y1="3.64cm" y2="3.56cm" /><line x1="18.0283843438cm" x2="17.992377406cm" y1="3.56cm" y2="3.48cm" /><line x1="17.992377406cm" x2="17.957718094cm" y1="3.48cm" y2="3.4cm" /><line x1="17.957718094cm" x2="17.9243852042cm" y1="3.4cm" y2="3.32cm" /><line x1="17.9243852042cm" x2="17.8923584705cm" y1="3.32cm" y2="3.24cm" /><line x1="17.8923584705cm" x2="17.8616185371cm" y1="3.24cm" y2="3.16cm" /><line x1="17.8616185371cm" x2="17.8321469331cm" y1="3.16cm" y2="3.08cm" /><line x1="17.8321469331cm" x2="17.8039260484cm" y1="3.08cm" y2="3.0cm" /><line x1="17.8039260484cm" x2="17.7769391106cm" y1="3.0cm" y2="2.92cm" /><line x1="17.7769391106cm" x2="17.7511701636cm" y1="2.92cm" y2="2.84cm" /><line x1="17.7511701636cm" x2="17.7266040467cm" y1="2.84cm" y2="2.76cm" /><line x1="17.7266040467cm" x2="17.7032263758cm" y1="2.76cm" y2="2.68cm" /><line x1="17.7032263758cm" x2="17.6810235248cm" y1="2.68cm" y2="2.6cm" /><line x1="17.6810235248cm" x2="17.6599826088cm" y1="2.6cm" y2="2.52cm" /><line x1="17.6599826088cm" x2="17.6400914675cm" y1="2.52cm" y2="2.44cm" /><line x1="17.6400914675cm" x2="17.6213386504cm" y1="2.44cm" y2="2.36cm" /><line x1="17.6213386504cm" x2="17.6037134027cm" y1="2.36cm" y2="2.28cm" /><line x1="17.6037134027cm" x2="17.5872056517cm" y1="2.28cm" y2="2.2cm" /><line x1="17.5872056517cm" x2="17.5718059947cm" y1="2.2cm" y2="2.12cm" /><line x1="17.5718059947cm" x2="17.5575056876cm" y1="2.12cm" y2="2.04cm" /><line x1="17.5575056876cm" x2="17.5442966339cm" y1="2.04cm" y2="1.96cm" /><line x1="17.5442966339cm" x2="17.5321713753cm" y1="1.96cm" y2="1.88cm" /><line x1="17.5321713753cm" x2="17.5211230824cm" y1="1.88cm" y2="1.8cm" /><line x1="17.5211230824cm" x2="17.5111455467cm" y1="1.8cm" y2="1.72cm" /><line x1="17.5111455467cm" x2="17.5022331731cm" y1="1.72cm" y2="1.64cm" /><line x1="17.5022331731cm" x2="17.4943809729cm" y1="1.64cm" y2="1.56cm" /><line x1="17.4943809729cm" x2="17.4875845585cm" y1="1.56cm" y2="1.48cm" /><line x1="17.4875845585cm" x2="17.4818401376cm" y1="1.48cm" y2="1.4cm" /><line x1="17.4818401376cm" x2="17.4771445088cm" y1="1.4cm" y2="1.32cm" /><line x1="17.4771445088cm" x2="17.4734950582cm" y1="1.32cm" y2="1.24cm" /><line x1="17.4734950582cm" x2="17.4708897556cm" y1="1.24cm" y2="1.16cm" /><line x1="17.4708897556cm" x2="17.4693271529cm" y1="1.16cm" y2="1.08cm" /><line x1="17.4693271529cm" x2="17.4688063818cm" y1="1.08cm" y2="1.0cm" /><line x1="1.0cm" x2="1.06516455436cm" y1="5.0cm" y2="4.92cm" /><line x1="1.06516455436cm" x2="1.12839835229cm" y1="4.92cm" y2="4.84cm" /><line x1="1.12839835229cm" x2="1.18974616207cm" y1="4.84cm" y2="4.76cm" /><line x1="1.18974616207cm" x2="1.24925099207cm" y1="4.76cm" y2="4.68cm" /><line x1="1.24925099207cm" x2="1.30695415907cm" y1="4.68cm" y2="4.6cm" /><line x1="1.30695415907cm" x2="1.3628953531cm" y1="4.6cm" y2="4.52cm" /><line x1="1.3628953531cm" x2="1.41711269899cm" y1="4.52cm" y2="4.44cm" /><line x1="1.41711269899cm" x2="1.46964281494cm" y1="4.44cm" y2="4.36cm" /><line x1="1.46964281494cm" x2="1.520520868cm" y1="4.36cm" y2="4.28cm" /><line x1="1.520520868cm" x2="1.56978062692cm" y1="4.28cm" y2="4.2cm" /><line x1="1.56978062692cm" x2="1.61745451228cm" y1="4.2cm" y2="4.12cm" /><line x1="1.61745451228cm" x2="1.66357364414cm" y1="4.12cm" y2="4.04cm" /><line x1="1.66357364414cm" x2="1.70816788734cm" y1="4.04cm" y2="3.96cm" /><line x1="1.70816788734cm" x2="1.7512658945cm" y1="3.96cm" y2="3.88cm" /><line x1="1.7512658945cm" x2="1.79289514688cm" y1="3.88cm" y2="3.8cm" /><line x1="1.79289514688cm" x2="1.83308199324cm" y1="3.8cm" y2="3.72cm" /><line x1="1.83308199324cm" x2="1.87185168671cm" y1="3.72cm" y2="3.64cm" /><line x1="1.87185168671cm" x2="1.90922841978cm" y1="3.64cm" y2="3.56cm" /><line x1="1.90922841978cm" x2="1.94523535763cm" y1="3.56cm" y2="3.48cm" /><line x1="1.94523535763cm" x2="1.97989466966cm" y1="3.48cm" y2="3.4cm" /><line x1="1.97989466966cm" x2="2.01322755943cm" y1="3.4cm" y2="3.32cm" /><line x1="2.01322755943cm" x2="2.04525429315cm" y1="3.32cm" y2="3.24cm" /><line x1="2.04525429315cm" x2="2.07599422656cm" y1="3.24cm" y2="3.16cm" /><line x1="2.07599422656cm" x2="2.10546583053cm" y1="3.16cm" y2="3.08cm" /><line x1="2.10546583053cm" x2="2.13368671522cm" y1="3.08cm" y2="3.0cm" /><line x1="2.13368671522cm" x2="2.16067365299cm" y1="3.0cm" y2="2.92cm" /><line x1="2.16067365299cm" x2="2.18644260004cm" y1="2.92cm" y2="2.84cm" /><line x1="2.18644260004cm" x2="2.21100871693cm" y1="2.84cm" y2="2.76cm" /><line x1="2.21100871693cm" x2="2.23438638783cm" y1="2.76cm" y2="2.68cm" /><line x1="2.23438638783cm" x2="2.25658923878cm" y1="2.68cm" y2="2.6cm" /><line x1="2.25658923878cm" x2="2.27763015483cm" y1="2.6cm" y2="2.52cm" /><line x1="2.27763015483cm" x2="2.29752129616cm" y1="2.52cm" y2="2.44cm" /><line x1="2.29752129616cm" x2="2.31627411323cm" y1="2.44cm" y2="2.36cm" /><line x1="2.31627411323cm" x2="2.33389936096cm" y1="2.36cm" y2="2.28cm" /><line x1="2.33389936096cm" x2="2.35040711196cm" y1="2.28cm" y2="2.2cm" /><line x1="2.35040711196cm" x2="2.36580676892cm" y1="2.2cm" y2="2.12cm" /><line x1="2.36580676892cm" x2="2.38010707605cm" y1="2.12cm" y2="2.04cm" /><line x1="2.38010707605cm" x2="2.39331612974cm" y1="2.04cm" y2="1.96cm" /><line x1="2.39331612974cm" x2="2.40544138835cm" y1="1.96cm" y2="1.88cm" /><line x1="2.40544138835cm" x2="2.41648968123cm" y1="1.88cm" y2="1.8cm" /><line x1="2.41648968123cm" x2="2.42646721691cm" y1="1.8cm" y2="1.72cm" /><line x1="2.42646721691cm" x2="2.43537959057cm" y1="1.72cm" y2="1.64cm" /><line x1="2.43537959057cm" x2="2.44323179071cm" y1="1.64cm" y2="1.56cm" /><line x1="2.44323179071cm" x2="2.45002820511cm" y1="1.56cm" y2="1.48cm" /><line x1="2.45002820511cm" x2="2.45577262604cm" y1="1.48cm" y2="1.4cm" /><line x1="2.45577262604cm" x2="2.4604682548cm" y1="1.4cm" y2="1.32cm" /><line x1="2.4604682548cm" x2="2.46411770546cm" y1="1.32cm" y2="1.24cm" /><line x1="2.46411770546cm" x2="2.466723008cm" y1="1.24cm" y2="1.16cm" /><line x1="2.466723008cm" x2="2.46828561069cm" y1="1.16cm" y2="1.08cm" /><line x1="2.46828561069cm" x2="2.46880638181cm" y1="1.08cm" y2="1.0cm" /><line x1="15.9480106364cm" x2="15.9045676001cm" y1="5.0cm" y2="4.92cm" /><line x1="15.9045676001cm" x2="15.8624117348cm" y1="4.92cm" y2="4.84cm" /><line x1="15.8624117348cm" x2="15.821513195cm" y1="4.84cm" y2="4.76cm" /><line x1="15.821513195cm" x2="15.7818433083cm" y1="4.76cm" y2="4.68cm" /><line x1="15.7818433083cm" x2="15.7433745303cm" y1="4.68cm" y2="4.6cm" /><line x1="15.7433745303cm" x2="15.706080401cm" y1="4.6cm" y2="4.52cm" /><line x1="15.706080401cm" x2="15.6699355037cm" y1="4.52cm" y2="4.44cm" /><line x1="15.6699355037cm" x2="15.6349154264cm" y1="4.44cm" y2="4.36cm" /><line x1="15.6349154264cm" x2="15.6009967244cm" y1="4.36cm" y2="4.28cm" /><line x1="15.6009967244cm" x2="15.5681568851cm" y1="4.28cm" y2="4.2cm" /><line x1="15.5681568851cm" x2="15.5363742948cm" y1="4.2cm" y2="4.12cm" /><line x1="15.5363742948cm" x2="15.5056282069cm" y1="4.12cm" y2="4.04cm" /><line x1="15.5056282069cm" x2="15.4758987115cm" y1="4.04cm" y2="3.96cm" /><line x1="15.4758987115cm" x2="15.4471667067cm" y1="3.96cm" y2="3.88cm" /><line x1="15.4471667067cm" x2="15.4194138718cm" y1="3.88cm" y2="3.8cm" /><line x1="15.4194138718cm" x2="15.3926226409cm" y1="3.8cm" y2="3.72cm" /><line x1="15.3926226409cm" x2="15.3667761786cm" y1="3.72cm" y2="3.64cm" /><line x1="15.3667761786cm" x2="15.3418583565cm" y1="3.64cm" y2="3.56cm" /><line x1="15.3418583565cm" x2="15.3178537313cm" y1="3.56cm" y2="3.48cm" /><line x1="15.3178537313cm" x2="15.2947475233cm" y1="3.48cm" y2="3.4cm" /><line x1="15.2947475233cm" x2="15.2725255967cm" y1="3.4cm" y2="3.32cm" /><line x1="15.2725255967cm" x2="15.2511744409cm" y1="3.32cm" y2="3.24cm" /><line x1="15.2511744409cm" x2="15.230681152cm" y1="3.24cm" y2="3.16cm" /><line x1="15.230681152cm" x2="15.211033416cm" y1="3.16cm" y2="3.08cm" /><line x1="15.211033416cm" x2="15.1922194929cm" y1="3.08cm" y2="3.0cm" /><line x1="15.1922194929cm" x2="15.174228201cm" y1="3.0cm" y2="2.92cm" /><line x1="15.174228201cm" x2="15.157048903cm" y1="2.92cm" y2="2.84cm" /><line x1="15.157048903cm" x2="15.1406714917cm" y1="2.84cm" y2="2.76cm" /><line x1="15.1406714917cm" x2="15.1250863778cm" y1="2.76cm" y2="2.68cm" /><line x1="15.1250863778cm" x2="15.1102844772cm" y1="2.68cm" y2="2.6cm" /><line x1="15.1102844772cm" x2="15.0962571998cm" y1="2.6cm" y2="2.52cm" /><line x1="15.0962571998cm" x2="15.0829964389cm" y1="2.52cm" y2="2.44cm" /><line x1="15.0829964389cm" x2="15.0704945609cm" y1="2.44cm" y2="2.36cm" /><line x1="15.0704945609cm" x2="15.0587443957cm" y1="2.36cm" y2="2.28cm" /><line x1="15.0587443957cm" x2="15.0477392284cm" y1="2.28cm" y2="2.2cm" /><line x1="15.0477392284cm" x2="15.0374727904cm" y1="2.2cm" y2="2.12cm" /><line x1="15.0374727904cm" x2="15.0279392523cm" y1="2.12cm" y2="2.04cm" /><line x1="15.0279392523cm" x2="15.0191332165cm" y1="2.04cm" y2="1.96cm" /><line x1="15.0191332165cm" x2="15.0110497108cm" y1="1.96cm" y2="1.88cm" /><line x1="15.0110497108cm" x2="15.0036841822cm" y1="1.88cm" y2="1.8cm" /><line x1="15.0036841822cm" x2="14.9970324917cm" y1="1.8cm" y2="1.72cm" /><line x1="14.9970324917cm" x2="14.9910909093cm" y1="1.72cm" y2="1.64cm" /><line x1="14.9910909093cm" x2="14.9858561092cm" y1="1.64cm" y2="1.56cm" /><line x1="14.9858561092cm" x2="14.9813251663cm" y1="1.56cm" y2="1.48cm" /><line x1="14.9813251663cm" x2="14.9774955523cm" y1="1.48cm" y2="1.4cm" /><line x1="14.9774955523cm" x2="14.9743651332cm" y1="1.4cm" y2="1.32cm" /><line x1="14.9743651332cm" x2="14.9719321661cm" y1="1.32cm" y2="1.24cm" /><line x1="14.9719321661cm" x2="14.9701952977cm" y1="1.24cm" y2="1.16cm" /><line x1="14.9701952977cm" x2="14.9691535626cm" y1="1.16cm" y2="1.08cm" /><line x1="14.9691535626cm" x2="14.9688063818cm" y1="1.08cm" y2="1.0cm" /><line x1="3.98960212727cm" x2="4.03304516351cm" y1="5.0cm" y2="4.92cm" /><line x1="4.03304516351cm" x2="4.0752010288cm" y1="4.92cm" y2="4.84cm" /><line x1="4.0752010288cm" x2="4.11609956865cm" y1="4.84cm" y2="4.76cm" /><line x1="4.11609956865cm" x2="4.15576945532cm" y1="4.76cm" y2="4.68cm" /><line x1="4.15576945532cm" x2="4.19423823332cm" y1="4.68cm" y2="4.6cm" /><line x1="4.19423823332cm" x2="4.23153236267cm" y1="4.6cm" y2="4.52cm" /><line x1="4.23153236267cm" x2="4.26767725993cm" y1="4.52cm" y2="4.44cm" /><line x1="4.26767725993cm" x2="4.30269733723cm" y1="4.44cm" y2="4.36cm" /><line x1="4.30269733723cm" x2="4.33661603927cm" y1="4.36cm" y2="4.28cm" /><line x1="4.33661603927cm" x2="4.36945587855cm" y1="4.28cm" y2="4.2cm" /><line x1="4.36945587855cm" x2="4.40123846879cm" y1="4.2cm" y2="4.12cm" /><line x1="4.40123846879cm" x2="4.4319845567cm" y1="4.12cm" y2="4.04cm" /><line x1="4.4319845567cm" x2="4.46171405217cm" y1="4.04cm" y2="3.96cm" /><line x1="4.46171405217cm" x2="4.49044605694cm" y1="3.96cm" y2="3.88cm" /><line x1="4.49044605694cm" x2="4.51819889186cm" y1="3.88cm" y2="3.8cm" /><line x1="4.51819889186cm" x2="4.54499012277cm" y1="3.8cm" y2="3.72cm" /><line x1="4.54499012277cm" x2="4.57083658508cm" y1="3.72cm" y2="3.64cm" /><line x1="4.57083658508cm" x2="4.59575440713cm" y1="3.64cm" y2="3.56cm" /><line x1="4.59575440713cm" x2="4.61975903236cm" y1="3.56cm" y2="3.48cm" /><line x1="4.61975903236cm" x2="4.64286524038cm" y1="3.48cm" y2="3.4cm" /><line x1="4.64286524038cm" x2="4.66508716689cm" y1="3.4cm" y2="3.32cm" /><line x1="4.66508716689cm" x2="4.6864383227cm" y1="3.32cm" y2="3.24cm" /><line x1="4.6864383227cm" x2="4.70693161164cm" y1="3.24cm" y2="3.16cm" /><line x1="4.70693161164cm" x2="4.72657934763cm" y1="3.16cm" y2="3.08cm" /><line x1="4.72657934763cm" x2="4.74539327075cm" y1="3.08cm" y2="3.0cm" /><line x1="4.74539327075cm" x2="4.7633845626cm" y1="3.0cm" y2="2.92cm" /><line x1="4.7633845626cm" x2="4.78056386063cm" y1="2.92cm" y2="2.84cm" /><line x1="4.78056386063cm" x2="4.79694127189cm" y1="2.84cm" y2="2.76cm" /><line x1="4.79694127189cm" x2="4.81252638583cm" y1="2.76cm" y2="2.68cm" /><line x1="4.81252638583cm" x2="4.82732828646cm" y1="2.68cm" y2="2.6cm" /><line x1="4.82732828646cm" x2="4.84135556382cm" y1="2.6cm" y2="2.52cm" /><line x1="4.84135556382cm" x2="4.85461632471cm" y1="2.52cm" y2="2.44cm" /><line x1="4.85461632471cm" x2="4.86711820276cm" y1="2.44cm" y2="2.36cm" /><line x1="4.86711820276cm" x2="4.87886836791cm" y1="2.36cm" y2="2.28cm" /><line x1="4.87886836791cm" x2="4.88987353525cm" y1="2.28cm" y2="2.2cm" /><line x1="4.88987353525cm" x2="4.90013997322cm" y1="2.2cm" y2="2.12cm" /><line x1="4.90013997322cm" x2="4.90967351131cm" y1="2.12cm" y2="2.04cm" /><line x1="4.90967351131cm" x2="4.9184795471cm" y1="2.04cm" y2="1.96cm" /><line x1="4.9184795471cm" x2="4.92656305284cm" y1="1.96cm" y2="1.88cm" /><line x1="4.92656305284cm" x2="4.93392858143cm" y1="1.88cm" y2="1.8cm" /><line x1="4.93392858143cm" x2="4.94058027188cm" y1="1.8cm" y2="1.72cm" /><line x1="4.94058027188cm" x2="4.94652185432cm" y1="1.72cm" y2="1.64cm" /><line x1="4.94652185432cm" x2="4.95175665441cm" y1="1.64cm" y2="1.56cm" /><line x1="4.95175665441cm" x2="4.95628759734cm" y1="1.56cm" y2="1.48cm" /><line x1="4.95628759734cm" x2="4.9601172113cm" y1="1.48cm" y2="1.4cm" /><line x1="4.9601172113cm" x2="4.96324763047cm" y1="1.4cm" y2="1.32cm" /><line x1="4.96324763047cm" x2="4.96568059758cm" y1="1.32cm" y2="1.24cm" /><line x1="4.96568059758cm" x2="4.96741746594cm" y1="1.24cm" y2="1.16cm" /><line x1="4.96741746594cm" x2="4.96845920106cm" y1="1.16cm" y2="1.08cm" /><line x1="4.96845920106cm" x2="4.96880638181cm" y1="1.08cm" y2="1.0cm" /><line x1="12.9584085091cm" x2="12.936686991cm" y1="5.0cm" y2="4.92cm" /><line x1="12.936686991cm" x2="12.9156090583cm" y1="4.92cm" y2="4.84cm" /><line x1="12.9156090583cm" x2="12.8951597884cm" y1="4.84cm" y2="4.76cm" /><line x1="12.8951597884cm" x2="12.8753248451cm" y1="4.76cm" y2="4.68cm" /><line x1="12.8753248451cm" x2="12.8560904561cm" y1="4.68cm" y2="4.6cm" /><line x1="12.8560904561cm" x2="12.8374433914cm" y1="4.6cm" y2="4.52cm" /><line x1="12.8374433914cm" x2="12.8193709428cm" y1="4.52cm" y2="4.44cm" /><line x1="12.8193709428cm" x2="12.8018609041cm" y1="4.44cm" y2="4.36cm" /><line x1="12.8018609041cm" x2="12.7849015531cm" y1="4.36cm" y2="4.28cm" /><line x1="12.7849015531cm" x2="12.7684816334cm" y1="4.28cm" y2="4.2cm" /><line x1="12.7684816334cm" x2="12.7525903383cm" y1="4.2cm" y2="4.12cm" /><line x1="12.7525903383cm" x2="12.7372172944cm" y1="4.12cm" y2="4.04cm" /><line x1="12.7372172944cm" x2="12.7223525466cm" y1="4.04cm" y2="3.96cm" /><line x1="12.7223525466cm" x2="12.7079865443cm" y1="3.96cm" y2="3.88cm" /><line x1="12.7079865443cm" x2="12.6941101268cm" y1="3.88cm" y2="3.8cm" /><line x1="12.6941101268cm" x2="12.6807145113cm" y1="3.8cm" y2="3.72cm" /><line x1="12.6807145113cm" x2="12.6677912802cm" y1="3.72cm" y2="3.64cm" /><line x1="12.6677912802cm" x2="12.6553323692cm" y1="3.64cm" y2="3.56cm" /><line x1="12.6553323692cm" x2="12.6433300565cm" y1="3.56cm" y2="3.48cm" /><line x1="12.6433300565cm" x2="12.6317769525cm" y1="3.48cm" y2="3.4cm" /><line x1="12.6317769525cm" x2="12.6206659893cm" y1="3.4cm" y2="3.32cm" /><line x1="12.6206659893cm" x2="12.6099904114cm" y1="3.32cm" y2="3.24cm" /><line x1="12.6099904114cm" x2="12.5997437669cm" y1="3.24cm" y2="3.16cm" /><line x1="12.5997437669cm" x2="12.5899198989cm" y1="3.16cm" y2="3.08cm" /><line x1="12.5899198989cm" x2="12.5805129373cm" y1="3.08cm" y2="3.0cm" /><line x1="12.5805129373cm" x2="12.5715172914cm" y1="3.0cm" y2="2.92cm" /><line x1="12.5715172914cm" x2="12.5629276424cm" y1="2.92cm" y2="2.84cm" /><line x1="12.5629276424cm" x2="12.5547389368cm" y1="2.84cm" y2="2.76cm" /><line x1="12.5547389368cm" x2="12.5469463798cm" y1="2.76cm" y2="2.68cm" /><line x1="12.5469463798cm" x2="12.5395454295cm" y1="2.68cm" y2="2.6cm" /><line x1="12.5395454295cm" x2="12.5325317908cm" y1="2.6cm" y2="2.52cm" /><line x1="12.5325317908cm" x2="12.5259014104cm" y1="2.52cm" y2="2.44cm" /><line x1="12.5259014104cm" x2="12.5196504713cm" y1="2.44cm" y2="2.36cm" /><line x1="12.5196504713cm" x2="12.5137753888cm" y1="2.36cm" y2="2.28cm" /><line x1="12.5137753888cm" x2="12.5082728051cm" y1="2.28cm" y2="2.2cm" /><line x1="12.5082728051cm" x2="12.5031395861cm" y1="2.2cm" y2="2.12cm" /><line x1="12.5031395861cm" x2="12.4983728171cm" y1="2.12cm" y2="2.04cm" /><line x1="12.4983728171cm" x2="12.4939697992cm" y1="2.04cm" y2="1.96cm" /><line x1="12.4939697992cm" x2="12.4899280463cm" y1="1.96cm" y2="1.88cm" /><line x1="12.4899280463cm" x2="12.486245282cm" y1="1.88cm" y2="1.8cm" /><line x1="12.486245282cm" x2="12.4829194368cm" y1="1.8cm" y2="1.72cm" /><line x1="12.4829194368cm" x2="12.4799486456cm" y1="1.72cm" y2="1.64cm" /><line x1="12.4799486456cm" x2="12.4773312455cm" y1="1.64cm" y2="1.56cm" /><line x1="12.4773312455cm" x2="12.4750657741cm" y1="1.56cm" y2="1.48cm" /><line x1="12.4750657741cm" x2="12.4731509671cm" y1="1.48cm" y2="1.4cm" /><line x1="12.4731509671cm" x2="12.4715857575cm" y1="1.4cm" y2="1.32cm" /><line x1="12.4715857575cm" x2="12.4703692739cm" y1="1.32cm" y2="1.24cm" /><line x1="12.4703692739cm" x2="12.4695008398cm" y1="1.24cm" y2="1.16cm" /><line x1="12.4695008398cm" x2="12.4689799722cm" y1="1.16cm" y2="1.08cm" /><line x1="12.4689799722cm" x2="12.4688063818cm" y1="1.08cm" y2="1.0cm" /><line x1="6.97920425454cm" x2="7.00092577266cm" y1="5.0cm" y2="4.92cm" /><line x1="7.00092577266cm" x2="7.02200370531cm" y1="4.92cm" y2="4.84cm" /><line x1="7.02200370531cm" x2="7.04245297523cm" y1="4.84cm" y2="4.76cm" /><line x1="7.04245297523cm" x2="7.06228791857cm" y1="4.76cm" y2="4.68cm" /><line x1="7.06228791857cm" x2="7.08152230757cm" y1="4.68cm" y2="4.6cm" /><line x1="7.08152230757cm" x2="7.10016937224cm" y1="4.6cm" y2="4.52cm" /><line x1="7.10016937224cm" x2="7.11824182087cm" y1="4.52cm" y2="4.44cm" /><line x1="7.11824182087cm" x2="7.13575185952cm" y1="4.44cm" y2="4.36cm" /><line x1="7.13575185952cm" x2="7.15271121054cm" y1="4.36cm" y2="4.28cm" /><line x1="7.15271121054cm" x2="7.16913113018cm" y1="4.28cm" y2="4.2cm" /><line x1="7.16913113018cm" x2="7.1850224253cm" y1="4.2cm" y2="4.12cm" /><line x1="7.1850224253cm" x2="7.20039546926cm" y1="4.12cm" y2="4.04cm" /><line x1="7.20039546926cm" x2="7.21526021699cm" y1="4.04cm" y2="3.96cm" /><line x1="7.21526021699cm" x2="7.22962621938cm" y1="3.96cm" y2="3.88cm" /><line x1="7.22962621938cm" x2="7.24350263684cm" y1="3.88cm" y2="3.8cm" /><line x1="7.24350263684cm" x2="7.25689825229cm" y1="3.8cm" y2="3.72cm" /><line x1="7.25689825229cm" x2="7.26982148345cm" y1="3.72cm" y2="3.64cm" /><line x1="7.26982148345cm" x2="7.28228039447cm" y1="3.64cm" y2="3.56cm" /><line x1="7.28228039447cm" x2="7.29428270709cm" y1="3.56cm" y2="3.48cm" /><line x1="7.29428270709cm" x2="7.3058358111cm" y1="3.48cm" y2="3.4cm" /><line x1="7.3058358111cm" x2="7.31694677435cm" y1="3.4cm" y2="3.32cm" /><line x1="7.31694677435cm" x2="7.32762235226cm" y1="3.32cm" y2="3.24cm" /><line x1="7.32762235226cm" x2="7.33786899673cm" y1="3.24cm" y2="3.16cm" /><line x1="7.33786899673cm" x2="7.34769286472cm" y1="3.16cm" y2="3.08cm" /><line x1="7.34769286472cm" x2="7.35709982628cm" y1="3.08cm" y2="3.0cm" /><line x1="7.35709982628cm" x2="7.36609547221cm" y1="3.0cm" y2="2.92cm" /><line x1="7.36609547221cm" x2="7.37468512122cm" y1="2.92cm" y2="2.84cm" /><line x1="7.37468512122cm" x2="7.38287382685cm" y1="2.84cm" y2="2.76cm" /><line x1="7.38287382685cm" x2="7.39066638382cm" y1="2.76cm" y2="2.68cm" /><line x1="7.39066638382cm" x2="7.39806733414cm" y1="2.68cm" y2="2.6cm" /><line x1="7.39806733414cm" x2="7.40508097282cm" y1="2.6cm" y2="2.52cm" /><line x1="7.40508097282cm" x2="7.41171135326cm" y1="2.52cm" y2="2.44cm" /><line x1="7.41171135326cm" x2="7.41796229229cm" y1="2.44cm" y2="2.36cm" /><line x1="7.41796229229cm" x2="7.42383737486cm" y1="2.36cm" y2="2.28cm" /><line x1="7.42383737486cm" x2="7.42933995853cm" y1="2.28cm" y2="2.2cm" /><line x1="7.42933995853cm" x2="7.43447317752cm" y1="2.2cm" y2="2.12cm" /><line x1="7.43447317752cm" x2="7.43923994656cm" y1="2.12cm" y2="2.04cm" /><line x1="7.43923994656cm" x2="7.44364296446cm" y1="2.04cm" y2="1.96cm" /><line x1="7.44364296446cm" x2="7.44768471733cm" y1="1.96cm" y2="1.88cm" /><line x1="7.44768471733cm" x2="7.45136748162cm" y1="1.88cm" y2="1.8cm" /><line x1="7.45136748162cm" x2="7.45469332685cm" y1="1.8cm" y2="1.72cm" /><line x1="7.45469332685cm" x2="7.45766411807cm" y1="1.72cm" y2="1.64cm" /><line x1="7.45766411807cm" x2="7.46028151811cm" y1="1.64cm" y2="1.56cm" /><line x1="7.46028151811cm" x2="7.46254698958cm" y1="1.56cm" y2="1.48cm" /><line x1="7.46254698958cm" x2="7.46446179656cm" y1="1.48cm" y2="1.4cm" /><line x1="7.46446179656cm" x2="7.46602700614cm" y1="1.4cm" y2="1.32cm" /><line x1="7.46602700614cm" x2="7.4672434897cm" y1="1.32cm" y2="1.24cm" /><line x1="7.4672434897cm" x2="7.46811192387cm" y1="1.24cm" y2="1.16cm" /><line x1="7.46811192387cm" x2="7.46863279144cm" y1="1.16cm" y2="1.08cm" /><line x1="7.46863279144cm" x2="7.46880638181cm" y1="1.08cm" y2="1.0cm" /><line x1="11.4636074455cm" x2="11.4527466864cm" y1="5.0cm" y2="4.92cm" /><line x1="11.4527466864cm" x2="11.4422077201cm" y1="4.92cm" y2="4.84cm" /><line x1="11.4422077201cm" x2="11.4319830851cm" y1="4.84cm" y2="4.76cm" /><line x1="11.4319830851cm" x2="11.4220656134cm" y1="4.76cm" y2="4.68cm" /><line x1="11.4220656134cm" x2="11.4124484189cm" y1="4.68cm" y2="4.6cm" /><line x1="11.4124484189cm" x2="11.4031248866cm" y1="4.6cm" y2="4.52cm" /><line x1="11.4031248866cm" x2="11.3940886623cm" y1="4.52cm" y2="4.44cm" /><line x1="11.3940886623cm" x2="11.385333643cm" y1="4.44cm" y2="4.36cm" /><line x1="11.385333643cm" x2="11.3768539675cm" y1="4.36cm" y2="4.28cm" /><line x1="11.3768539675cm" x2="11.3686440076cm" y1="4.28cm" y2="4.2cm" /><line x1="11.3686440076cm" x2="11.3606983601cm" y1="4.2cm" y2="4.12cm" /><line x1="11.3606983601cm" x2="11.3530118381cm" y1="4.12cm" y2="4.04cm" /><line x1="11.3530118381cm" x2="11.3455794642cm" y1="4.04cm" y2="3.96cm" /><line x1="11.3455794642cm" x2="11.338396463cm" y1="3.96cm" y2="3.88cm" /><line x1="11.338396463cm" x2="11.3314582543cm" y1="3.88cm" y2="3.8cm" /><line x1="11.3314582543cm" x2="11.3247604466cm" y1="3.8cm" y2="3.72cm" /><line x1="11.3247604466cm" x2="11.318298831cm" y1="3.72cm" y2="3.64cm" /><line x1="11.318298831cm" x2="11.3120693755cm" y1="3.64cm" y2="3.56cm" /><line x1="11.3120693755cm" x2="11.3060682192cm" y1="3.56cm" y2="3.48cm" /><line x1="11.3060682192cm" x2="11.3002916672cm" y1="3.48cm" y2="3.4cm" /><line x1="11.3002916672cm" x2="11.2947361855cm" y1="3.4cm" y2="3.32cm" /><line x1="11.2947361855cm" x2="11.2893983966cm" y1="3.32cm" y2="3.24cm" /><line x1="11.2893983966cm" x2="11.2842750744cm" y1="3.24cm" y2="3.16cm" /><line x1="11.2842750744cm" x2="11.2793631404cm" y1="3.16cm" y2="3.08cm" /><line x1="11.2793631404cm" x2="11.2746596596cm" y1="3.08cm" y2="3.0cm" /><line x1="11.2746596596cm" x2="11.2701618366cm" y1="3.0cm" y2="2.92cm" /><line x1="11.2701618366cm" x2="11.2658670121cm" y1="2.92cm" y2="2.84cm" /><line x1="11.2658670121cm" x2="11.2617726593cm" y1="2.84cm" y2="2.76cm" /><line x1="11.2617726593cm" x2="11.2578763808cm" y1="2.76cm" y2="2.68cm" /><line x1="11.2578763808cm" x2="11.2541759057cm" y1="2.68cm" y2="2.6cm" /><line x1="11.2541759057cm" x2="11.2506690863cm" y1="2.6cm" y2="2.52cm" /><line x1="11.2506690863cm" x2="11.2473538961cm" y1="2.52cm" y2="2.44cm" /><line x1="11.2473538961cm" x2="11.2442284266cm" y1="2.44cm" y2="2.36cm" /><line x1="11.2442284266cm" x2="11.2412908853cm" y1="2.36cm" y2="2.28cm" /><line x1="11.2412908853cm" x2="11.2385395935cm" y1="2.28cm" y2="2.2cm" /><line x1="11.2385395935cm" x2="11.235972984cm" y1="2.2cm" y2="2.12cm" /><line x1="11.235972984cm" x2="11.2335895994cm" y1="2.12cm" y2="2.04cm" /><line x1="11.2335895994cm" x2="11.2313880905cm" y1="2.04cm" y2="1.96cm" /><line x1="11.2313880905cm" x2="11.2293672141cm" y1="1.96cm" y2="1.88cm" /><line x1="11.2293672141cm" x2="11.2275258319cm" y1="1.88cm" y2="1.8cm" /><line x1="11.2275258319cm" x2="11.2258629093cm" y1="1.8cm" y2="1.72cm" /><line x1="11.2258629093cm" x2="11.2243775137cm" y1="1.72cm" y2="1.64cm" /><line x1="11.2243775137cm" x2="11.2230688137cm" y1="1.64cm" y2="1.56cm" /><line x1="11.2230688137cm" x2="11.2219360779cm" y1="1.56cm" y2="1.48cm" /><line x1="11.2219360779cm" x2="11.2209786744cm" y1="1.48cm" y2="1.4cm" /><line x1="11.2209786744cm" x2="11.2201960697cm" y1="1.4cm" y2="1.32cm" /><line x1="11.2201960697cm" x2="11.2195878279cm" y1="1.32cm" y2="1.24cm" /><line x1="11.2195878279cm" x2="11.2191536108cm" y1="1.24cm" y2="1.16cm" /><line x1="11.2191536108cm" x2="11.218893177cm" y1="1.16cm" y2="1.08cm" /><line x1="11.218893177cm" x2="11.2188063818cm" y1="1.08cm" y2="1.0cm" /><line x1="8.47400531818cm" x2="8.48486607724cm" y1="5.0cm" y2="4.92cm" /><line x1="8.48486607724cm" x2="8.49540504356cm" y1="4.92cm" y2="4.84cm" /><line x1="8.49540504356cm" x2="8.50562967852cm" y1="4.84cm" y2="4.76cm" /><line x1="8.50562967852cm" x2="8.51554715019cm" y1="4.76cm" y2="4.68cm" /><line x1="8.51554715019cm" x2="8.52516434469cm" y1="4.68cm" y2="4.6cm" /><line x1="8.52516434469cm" x2="8.53448787703cm" y1="4.6cm" y2="4.52cm" /><line x1="8.53448787703cm" x2="8.54352410134cm" y1="4.52cm" y2="4.44cm" /><line x1="8.54352410134cm" x2="8.55227912067cm" y1="4.44cm" y2="4.36cm" /><line x1="8.55227912067cm" x2="8.56075879618cm" y1="4.36cm" y2="4.28cm" /><line x1="8.56075879618cm" x2="8.568968756cm" y1="4.28cm" y2="4.2cm" /><line x1="8.568968756cm" x2="8.57691440356cm" y1="4.2cm" y2="4.12cm" /><line x1="8.57691440356cm" x2="8.58460092554cm" y1="4.12cm" y2="4.04cm" /><line x1="8.58460092554cm" x2="8.5920332994cm" y1="4.04cm" y2="3.96cm" /><line x1="8.5920332994cm" x2="8.5992163006cm" y1="3.96cm" y2="3.88cm" /><line x1="8.5992163006cm" x2="8.60615450933cm" y1="3.88cm" y2="3.8cm" /><line x1="8.60615450933cm" x2="8.61285231705cm" y1="3.8cm" y2="3.72cm" /><line x1="8.61285231705cm" x2="8.61931393263cm" y1="3.72cm" y2="3.64cm" /><line x1="8.61931393263cm" x2="8.62554338814cm" y1="3.64cm" y2="3.56cm" /><line x1="8.62554338814cm" x2="8.63154454445cm" y1="3.56cm" y2="3.48cm" /><line x1="8.63154454445cm" x2="8.63732109645cm" y1="3.48cm" y2="3.4cm" /><line x1="8.63732109645cm" x2="8.64287657808cm" y1="3.4cm" y2="3.32cm" /><line x1="8.64287657808cm" x2="8.64821436704cm" y1="3.32cm" y2="3.24cm" /><line x1="8.64821436704cm" x2="8.65333768927cm" y1="3.24cm" y2="3.16cm" /><line x1="8.65333768927cm" x2="8.65824962327cm" y1="3.16cm" y2="3.08cm" /><line x1="8.65824962327cm" x2="8.66295310405cm" y1="3.08cm" y2="3.0cm" /><line x1="8.66295310405cm" x2="8.66745092701cm" y1="3.0cm" y2="2.92cm" /><line x1="8.66745092701cm" x2="8.67174575152cm" y1="2.92cm" y2="2.84cm" /><line x1="8.67174575152cm" x2="8.67584010433cm" y1="2.84cm" y2="2.76cm" /><line x1="8.67584010433cm" x2="8.67973638282cm" y1="2.76cm" y2="2.68cm" /><line x1="8.67973638282cm" x2="8.68343685798cm" y1="2.68cm" y2="2.6cm" /><line x1="8.68343685798cm" x2="8.68694367732cm" y1="2.6cm" y2="2.52cm" /><line x1="8.68694367732cm" x2="8.69025886754cm" y1="2.52cm" y2="2.44cm" /><line x1="8.69025886754cm" x2="8.69338433705cm" y1="2.44cm" y2="2.36cm" /><line x1="8.69338433705cm" x2="8.69632187834cm" y1="2.36cm" y2="2.28cm" /><line x1="8.69632187834cm" x2="8.69907317017cm" y1="2.28cm" y2="2.2cm" /><line x1="8.69907317017cm" x2="8.70163977967cm" y1="2.2cm" y2="2.12cm" /><line x1="8.70163977967cm" x2="8.70402316419cm" y1="2.12cm" y2="2.04cm" /><line x1="8.70402316419cm" x2="8.70622467314cm" y1="2.04cm" y2="1.96cm" /><line x1="8.70622467314cm" x2="8.70824554957cm" y1="1.96cm" y2="1.88cm" /><line x1="8.70824554957cm" x2="8.71008693172cm" y1="1.88cm" y2="1.8cm" /><line x1="8.71008693172cm" x2="8.71174985433cm" y1="1.8cm" y2="1.72cm" /><line x1="8.71174985433cm" x2="8.71323524994cm" y1="1.72cm" y2="1.64cm" /><line x1="8.71323524994cm" x2="8.71454394996cm" y1="1.64cm" y2="1.56cm" /><line x1="8.71454394996cm" x2="8.7156766857cm" y1="1.56cm" y2="1.48cm" /><line x1="8.7156766857cm" x2="8.71663408919cm" y1="1.48cm" y2="1.4cm" /><line x1="8.71663408919cm" x2="8.71741669398cm" y1="1.4cm" y2="1.32cm" /><line x1="8.71741669398cm" x2="8.71802493575cm" y1="1.32cm" y2="1.24cm" /><line x1="8.71802493575cm" x2="8.71845915284cm" y1="1.24cm" y2="1.16cm" /><line x1="8.71845915284cm" x2="8.71871958663cm" y1="1.16cm" y2="1.08cm" /><line x1="8.71871958663cm" x2="8.71880638181cm" y1="1.08cm" y2="1.0cm" /></g><text x="18.9376127636cm" y="5.3cm">75km</text><text x="1.0cm" y="5.3cm">75km</text><text x="15.9480106364cm" y="5.3cm">50km</text><text x="3.98960212727cm" y="5.3cm">50km</text><text x="12.9584085091cm" y="5.3cm">25km</text><text x="6.97920425454cm" y="5.3cm">25km</text><g id="horizontal_tick" stroke="black"><line x1="9.96880638181cm" x2="18.9376127636cm" y1="5.0cm" y2="5.0cm" /><line x1="1.0cm" x2="9.96880638181cm" y1="5.0cm" y2="5.0cm" /><line x1="9.96880638181cm" x2="18.9376127636cm" y1="4.77358490566cm" y2="4.77358490566cm" /><line x1="1.0cm" x2="9.96880638181cm" y1="4.77358490566cm" y2="4.77358490566cm" /><line x1="9.96880638181cm" x2="18.9376127636cm" y1="4.35429769392cm" y2="4.35429769392cm" /><line x1="1.0cm" x2="9.96880638181cm" y1="4.35429769392cm" y2="4.35429769392cm" /><line x1="9.96880638181cm" x2="18.9376127636cm" y1="3.93501048218cm" y2="3.93501048218cm" /><line x1="1.0cm" x2="9.96880638181cm" y1="3.93501048218cm" y2="3.93501048218cm" /><line x1="9.96880638181cm" x2="18.9376127636cm" y1="3.51572327044cm" y2="3.51572327044cm" /><line x1="1.0cm" x2="9.96880638181cm" y1="3.51572327044cm" y2="3.51572327044cm" /><line x1="9.96880638181cm" x2="18.9376127636cm" y1="3.0964360587cm" y2="3.0964360587cm" /><line x1="1.0cm" x2="9.96880638181cm" y1="3.0964360587cm" y2="3.0964360587cm" /><line x1="9.96880638181cm" x2="18.9376127636cm" y1="2.67714884696cm" y2="2.67714884696cm" /><line x1="1.0cm" x2="9.96880638181cm" y1="2.67714884696cm" y2="2.67714884696cm" /><line x1="9.96880638181cm" x2="18.9376127636cm" y1="2.25786163522cm" y2="2.25786163522cm" /><line x1="1.0cm" x2="9.96880638181cm" y1="2.25786163522cm" y2="2.25786163522cm" /><line x1="9.96880638181cm" x2="18.9376127636cm" y1="1.83857442348cm" y2="1.83857442348cm" /><line x1="1.0cm" x2="9.96880638181cm" y1="1.83857442348cm" y2="1.83857442348cm" /><line x1="9.96880638181cm" x2="18.9376127636cm" y1="1.41928721174cm" y2="1.41928721174cm" /><line x1="1.0cm" x2="9.96880638181cm" y1="1.41928721174cm" y2="1.41928721174cm" /><line x1="9.96880638181cm" x2="18.9376127636cm" y1="1.0cm" y2="1.0cm" /><line x1="1.0cm" x2="9.96880638181cm" y1="1.0cm" y2="1.0cm" /></g></svg>