<svg width="74" height="74" xmlns="http://www.w3.org/2000/svg" xmlns:xlink="http://www.w3.org/1999/xlink" overflow="hidden"><defs><clipPath id="clip0"><rect x="684" y="348" width="74" height="74"/></clipPath><clipPath id="clip1"><rect x="685" y="349" width="73" height="73"/></clipPath><clipPath id="clip2"><rect x="685" y="349" width="73" height="73"/></clipPath><clipPath id="clip3"><rect x="685" y="349" width="73" height="73"/></clipPath><clipPath id="clip4"><rect x="685" y="364" width="72" height="43"/></clipPath><clipPath id="clip5"><rect x="742" y="378" width="6" height="8"/></clipPath><clipPath id="clip6"><path d="M742.834 377.466 747.33 378.107 746.196 386.06 741.7 385.419Z" fill-rule="nonzero" clip-rule="nonzero"/></clipPath><clipPath id="clip7"><path d="M742.834 377.466 747.33 378.107 746.196 386.06 741.7 385.419Z" fill-rule="nonzero" clip-rule="nonzero"/></clipPath><clipPath id="clip8"><rect x="686" y="364" width="72" height="43"/></clipPath><clipPath id="clip9"><rect x="711" y="386" width="6" height="9"/></clipPath><clipPath id="clip10"><rect x="711" y="386" width="6" height="9"/></clipPath><clipPath id="clip11"><rect x="711" y="386" width="6" height="9"/></clipPath></defs><g clip-path="url(#clip0)" transform="translate(-684 -348)"><g clip-path="url(#clip1)"><g clip-path="url(#clip2)"><g clip-path="url(#clip3)"><path d="M685 349 758 349 758 422 685 422Z" fill="#FFFFFF" fill-rule="nonzero" fill-opacity="1"/><path d="M685 349 758 349 758 422 685 422Z" fill="#FFFFFF" fill-rule="nonzero" fill-opacity="1"/><path d="M685 349 758 349 758 422 685 422Z" fill="#FFFFFF" fill-rule="nonzero" fill-opacity="1"/><g clip-path="url(#clip4)"><path d="M741.675 380.698C739.472 371.474 731.181 364.587 721.29 364.587 711.4 364.587 703.108 371.474 700.906 380.698 692.609 381.598 686.009 383.151 686.009 385.562 686.009 387.974 692.609 389.528 700.906 390.428 703.109 399.651 711.401 406.538 721.29 406.538 731.181 406.538 739.472 399.651 741.675 390.428 749.973 389.528 756.571 387.975 756.571 385.562 756.571 383.15 749.973 381.598 741.675 380.698ZM700.639 389.122C692.165 388.155 687.28 386.704 687.28 385.562 687.28 384.423 692.165 382.971 700.639 382.004 700.439 383.163 700.312 384.346 700.312 385.562 700.312 386.779 700.439 387.962 700.639 389.122ZM721.29 405.267C712.157 405.267 704.476 399.012 702.252 390.567 708.472 391.177 715.463 391.442 721.29 391.442 727.117 391.442 734.11 391.177 740.328 390.567 738.106 399.012 730.425 405.267 721.29 405.267ZM740.636 389.263C735.356 389.811 728.82 390.17 721.29 390.17 713.76 390.17 707.225 389.81 701.944 389.263 701.715 388.063 701.583 386.828 701.583 385.562 701.583 384.297 701.715 383.063 701.944 381.862 702.03 381.42 702.139 380.989 702.252 380.559 704.476 372.114 712.157 365.858 721.29 365.858 730.425 365.858 738.106 372.114 740.328 380.559 740.443 380.989 740.551 381.42 740.636 381.862 740.865 383.063 740.996 384.297 740.996 385.562 740.996 386.828 740.865 388.063 740.636 389.263ZM741.942 389.122C742.141 387.962 742.268 386.779 742.268 385.562 742.268 384.346 742.141 383.163 741.942 382.004 750.416 382.971 755.3 384.423 755.3 385.562 755.3 386.704 750.416 388.155 741.942 389.122Z" fill="#8B52FF" fill-rule="nonzero" fill-opacity="1"/></g><path d="M713.263 375.962C712.125 375.962 711.198 376.889 711.198 378.028 711.198 379.167 712.125 380.094 713.263 380.094 714.401 380.094 715.329 379.167 715.329 378.028 715.329 376.889 714.402 375.962 713.263 375.962ZM713.263 379.459C712.475 379.459 711.833 378.817 711.833 378.028 711.833 377.24 712.475 376.598 713.263 376.598 714.052 376.598 714.693 377.24 714.693 378.028 714.693 378.817 714.052 379.459 713.263 379.459Z" fill="#8B52FF" fill-rule="nonzero" fill-opacity="1"/><path d="M721.422 371.513C720.808 371.513 720.309 372.012 720.309 372.625 720.309 373.238 720.808 373.736 721.422 373.736 722.035 373.736 722.534 373.238 722.534 372.625 722.534 372.012 722.035 371.513 721.422 371.513ZM721.422 373.102C721.159 373.102 720.945 372.889 720.945 372.625 720.945 372.362 721.158 372.148 721.422 372.148 721.686 372.148 721.899 372.361 721.899 372.625 721.898 372.889 721.685 373.102 721.422 373.102Z" fill="#8B52FF" fill-rule="nonzero" fill-opacity="1"/><path d="M726.718 382.426C725.229 382.426 724.017 383.638 724.017 385.127 724.017 386.617 725.229 387.828 726.718 387.828 728.208 387.828 729.42 386.617 729.42 385.127 729.42 383.638 728.208 382.426 726.718 382.426ZM726.718 387.193C725.579 387.193 724.653 386.267 724.653 385.127 724.653 383.988 725.579 383.062 726.718 383.062 727.856 383.062 728.783 383.988 728.783 385.127 728.783 386.267 727.858 387.193 726.718 387.193Z" fill="#8B52FF" fill-rule="nonzero" fill-opacity="1"/><g clip-path="url(#clip5)"><g clip-path="url(#clip6)"><g clip-path="url(#clip7)"><path d="M745.547 385.968 742.417 381.782C742.27 381.586 742.31 381.305 742.506 381.158L746.68 378.014 747.214 378.727 743.396 381.604 746.258 385.432Z" fill="#8B52FF" fill-rule="nonzero" fill-opacity="1"/></g></g></g><path d="M721.238 407.141C715.455 407.141 710.011 404.891 705.924 400.796 701.83 396.71 699.579 391.265 699.579 385.482 699.579 379.7 701.83 374.255 705.924 370.169 710.011 366.074 715.455 363.824 721.238 363.824 727.021 363.824 732.466 366.074 736.552 370.169 740.646 374.264 742.897 379.7 742.897 385.482 742.897 391.265 740.646 396.71 736.552 400.796 732.466 404.891 727.021 407.141 721.238 407.141ZM721.238 365.122C715.802 365.122 710.686 367.243 706.842 371.087 702.999 374.93 700.878 380.046 700.878 385.482 700.878 390.919 702.999 396.035 706.842 399.879 710.686 403.722 715.802 405.843 721.238 405.843 726.675 405.843 731.791 403.722 735.634 399.879 739.478 396.035 741.599 390.919 741.599 385.482 741.599 380.046 739.478 374.93 735.634 371.087 731.791 367.243 726.675 365.122 721.238 365.122Z" fill="#8B52FF" fill-rule="nonzero" fill-opacity="1"/><g clip-path="url(#clip8)"><path d="M701.323 380.698C703.526 371.474 711.818 364.587 721.708 364.587 731.598 364.587 739.891 371.474 742.093 380.698 750.39 381.598 756.99 383.151 756.99 385.562 756.99 387.974 750.39 389.528 742.093 390.428 739.89 399.651 731.598 406.538 721.708 406.538 711.818 406.538 703.526 399.651 701.323 390.428 693.025 389.528 686.427 387.975 686.427 385.562 686.427 383.15 693.025 381.598 701.323 380.698ZM742.36 389.122C750.834 388.155 755.718 386.704 755.718 385.562 755.718 384.423 750.834 382.971 742.36 382.004 742.56 383.163 742.686 384.346 742.686 385.562 742.686 386.779 742.56 387.962 742.36 389.122ZM721.708 405.267C730.842 405.267 738.523 399.012 740.746 390.567 734.527 391.177 727.535 391.442 721.708 391.442 715.881 391.442 708.889 391.177 702.671 390.567 704.893 399.012 712.574 405.267 721.708 405.267ZM702.363 389.263C707.642 389.811 714.179 390.17 721.708 390.17 729.238 390.17 735.774 389.81 741.054 389.263 741.283 388.063 741.415 386.828 741.415 385.562 741.415 384.297 741.283 383.063 741.054 381.862 740.969 381.42 740.859 380.989 740.746 380.559 738.523 372.114 730.842 365.858 721.708 365.858 712.574 365.858 704.893 372.114 702.671 380.559 702.556 380.989 702.447 381.42 702.363 381.862 702.133 383.063 702.002 384.297 702.002 385.562 702.002 386.828 702.133 388.063 702.363 389.263ZM701.057 389.122C700.857 387.962 700.731 386.779 700.731 385.562 700.731 384.346 700.857 383.163 701.057 382.004 692.583 382.971 687.699 384.423 687.699 385.562 687.699 386.704 692.583 388.155 701.057 389.122Z" fill="#8B52FF" fill-rule="nonzero" fill-opacity="1"/></g><path d="M729.735 375.962C730.874 375.962 731.801 376.889 731.801 378.028 731.801 379.167 730.874 380.094 729.735 380.094 728.597 380.094 727.669 379.167 727.669 378.028 727.669 376.889 728.596 375.962 729.735 375.962ZM729.735 379.459C730.524 379.459 731.166 378.817 731.166 378.028 731.166 377.24 730.524 376.598 729.735 376.598 728.947 376.598 728.305 377.24 728.305 378.028 728.305 378.817 728.947 379.459 729.735 379.459Z" fill="#8B52FF" fill-rule="nonzero" fill-opacity="1"/><path d="M721.577 371.513C722.19 371.513 722.689 372.012 722.689 372.625 722.689 373.238 722.19 373.736 721.577 373.736 720.963 373.736 720.464 373.238 720.464 372.625 720.464 372.012 720.963 371.513 721.577 371.513ZM721.577 373.102C721.84 373.102 722.054 372.889 722.054 372.625 722.054 372.362 721.841 372.148 721.577 372.148 721.313 372.148 721.099 372.361 721.099 372.625 721.1 372.889 721.314 373.102 721.577 373.102Z" fill="#8B52FF" fill-rule="nonzero" fill-opacity="1"/><path d="M716.281 382.426C717.769 382.426 718.982 383.638 718.982 385.127 718.982 386.617 717.769 387.828 716.281 387.828 714.791 387.828 713.579 386.617 713.579 385.127 713.579 383.638 714.79 382.426 716.281 382.426ZM716.281 387.193C717.42 387.193 718.346 386.267 718.346 385.127 718.346 383.988 717.42 383.062 716.281 383.062 715.142 383.062 714.215 383.988 714.215 385.127 714.215 386.267 715.141 387.193 716.281 387.193Z" fill="#8B52FF" fill-rule="nonzero" fill-opacity="1"/><path d="M2.08977-4.4564e-05 3.50643-4.4564e-05" stroke="#FFFFFF" stroke-width="4.18029" stroke-linecap="round" stroke-linejoin="miter" stroke-miterlimit="4" stroke-opacity="1" fill="none" fill-rule="nonzero" transform="matrix(1 0 0 1.00284 715.649 390.876)"/><path d="M721.245 382.492C721.383 382.492 721.519 382.505 721.654 382.532 721.788 382.559 721.918 382.599 722.045 382.651 722.172 382.704 722.292 382.769 722.406 382.845 722.52 382.921 722.626 383.008 722.724 383.105 722.821 383.203 722.907 383.309 722.984 383.423 723.06 383.538 723.124 383.659 723.177 383.786 723.229 383.913 723.269 384.044 723.295 384.179 723.322 384.314 723.336 384.451 723.336 384.588L723.336 397.165C723.336 397.302 723.322 397.439 723.295 397.573 723.269 397.709 723.229 397.839 723.177 397.966 723.124 398.094 723.06 398.214 722.984 398.329 722.907 398.443 722.821 398.549 722.724 398.647 722.626 398.744 722.52 398.831 722.406 398.907 722.292 398.984 722.172 399.048 722.045 399.101 721.918 399.153 721.788 399.194 721.654 399.22 721.519 399.247 721.383 399.261 721.245 399.261 721.108 399.261 720.972 399.247 720.838 399.22 720.703 399.194 720.572 399.153 720.445 399.101 720.319 399.048 720.198 398.984 720.084 398.907 719.97 398.831 719.864 398.744 719.768 398.647 719.671 398.549 719.584 398.443 719.508 398.329 719.432 398.214 719.367 398.094 719.314 397.966 719.262 397.839 719.223 397.709 719.195 397.573 719.168 397.439 719.156 397.302 719.156 397.165L719.156 384.588C719.156 384.451 719.168 384.314 719.195 384.179 719.223 384.044 719.262 383.913 719.314 383.786 719.367 383.659 719.432 383.538 719.508 383.423 719.584 383.309 719.671 383.203 719.768 383.105 719.864 383.008 719.97 382.921 720.084 382.845 720.198 382.769 720.319 382.704 720.445 382.651 720.572 382.599 720.703 382.559 720.838 382.532 720.972 382.505 721.108 382.492 721.245 382.492Z" fill="#FFFFFF" fill-rule="nonzero" fill-opacity="1"/><g clip-path="url(#clip9)"><g clip-path="url(#clip10)"><g clip-path="url(#clip11)"><path d="M712.563 386.877 716.423 390.4C716.605 390.565 716.618 390.849 716.453 391.03L712.945 394.903 712.287 394.303 715.496 390.76 711.964 387.538Z" fill="#8B52FF" fill-rule="nonzero" fill-opacity="1"/></g></g></g><path d="M716.822 381.698C716.703 381.698 716.585 381.703 716.467 381.715 716.35 381.725 716.233 381.742 716.116 381.763 716 381.785 715.885 381.813 715.772 381.845 715.658 381.877 715.547 381.915 715.438 381.958 715.328 382 715.222 382.049 715.117 382.101 715.013 382.153 714.911 382.211 714.813 382.273 714.714 382.335 714.62 382.401 714.528 382.472 714.437 382.543 714.349 382.618 714.265 382.697 714.181 382.775 714.102 382.858 714.027 382.945 713.951 383.031 713.881 383.121 713.815 383.213 713.75 383.306 713.689 383.402 713.633 383.5 713.577 383.599 713.526 383.7 713.482 383.803 713.436 383.906 713.396 384.011 713.361 384.117 713.327 384.225 713.298 384.333 713.275 384.442 713.253 384.552 713.235 384.662 713.224 384.774 713.211 384.885 713.206 384.996 713.206 385.108 713.206 385.219 713.211 385.33 713.224 385.442 713.235 385.553 713.253 385.664 713.275 385.773 713.298 385.883 713.327 385.991 713.361 386.098 713.396 386.204 713.436 386.309 713.482 386.413 713.526 386.516 713.577 386.616 713.633 386.715 713.689 386.813 713.75 386.909 713.815 387.002 713.881 387.095 713.951 387.184 714.027 387.27 714.102 387.357 714.181 387.44 714.265 387.519 714.349 387.597 714.437 387.672 714.528 387.743 714.62 387.814 714.714 387.881 714.813 387.942 714.911 388.005 715.013 388.062 715.117 388.114 715.222 388.168 715.328 388.215 715.438 388.257 715.547 388.301 715.658 388.338 715.772 388.371 715.885 388.402 716 388.43 716.116 388.452 716.233 388.473 716.35 388.49 716.467 388.501 716.585 388.512 716.703 388.517 716.822 388.517 716.94 388.517 717.058 388.512 717.176 388.501 717.294 388.49 717.411 388.473 717.527 388.452 717.643 388.43 717.758 388.402 717.871 388.371 717.984 388.338 718.096 388.301 718.205 388.257 718.315 388.215 718.422 388.168 718.526 388.114 718.63 388.062 718.732 388.005 718.83 387.942 718.929 387.881 719.024 387.814 719.115 387.743 719.207 387.672 719.295 387.597 719.379 387.519 719.462 387.44 719.542 387.357 719.616 387.27 719.692 387.184 719.762 387.095 719.828 387.002 719.894 386.909 719.955 386.813 720.01 386.715 720.067 386.616 720.117 386.516 720.162 386.413 720.207 386.309 720.247 386.204 720.282 386.098 720.316 385.991 720.345 385.883 720.368 385.773 720.391 385.664 720.408 385.553 720.42 385.442 720.432 385.33 720.438 385.219 720.438 385.108 720.438 384.996 720.432 384.885 720.42 384.774 720.408 384.662 720.391 384.552 720.368 384.442 720.345 384.333 720.316 384.225 720.282 384.117 720.247 384.011 720.207 383.906 720.162 383.803 720.117 383.7 720.067 383.599 720.01 383.5 719.955 383.402 719.894 383.306 719.828 383.213 719.762 383.121 719.692 383.031 719.616 382.945 719.542 382.858 719.462 382.775 719.379 382.697 719.295 382.618 719.207 382.543 719.115 382.472 719.024 382.401 718.929 382.335 718.83 382.273 718.732 382.211 718.63 382.153 718.526 382.101 718.422 382.049 718.315 382 718.205 381.958 718.096 381.915 717.984 381.877 717.871 381.845 717.758 381.813 717.643 381.785 717.527 381.763 717.411 381.742 717.294 381.725 717.176 381.715 717.058 381.703 716.94 381.698 716.822 381.698Z" fill="#FFFFFF" fill-rule="nonzero" fill-opacity="1"/><path d="M730.534 374.056C730.416 374.056 730.297 374.061 730.179 374.072 730.061 374.083 729.944 374.099 729.829 374.121 729.713 374.142 729.598 374.17 729.484 374.203 729.371 374.234 729.26 374.272 729.151 374.315 729.041 374.358 728.934 374.406 728.83 374.458 728.725 374.51 728.624 374.568 728.526 374.63 728.427 374.692 728.332 374.758 728.24 374.829 728.148 374.901 728.061 374.975 727.977 375.054 727.894 375.133 727.814 375.215 727.739 375.302 727.664 375.388 727.593 375.478 727.528 375.57 727.462 375.663 727.401 375.759 727.345 375.858 727.289 375.956 727.239 376.057 727.193 376.16 727.148 376.263 727.108 376.368 727.074 376.475 727.04 376.582 727.011 376.691 726.988 376.8 726.964 376.91 726.948 377.02 726.935 377.131 726.924 377.242 726.918 377.354 726.918 377.465 726.918 377.576 726.924 377.688 726.935 377.799 726.948 377.91 726.964 378.021 726.988 378.13 727.011 378.24 727.04 378.348 727.074 378.455 727.108 378.561 727.148 378.667 727.193 378.77 727.239 378.873 727.289 378.974 727.345 379.072 727.401 379.171 727.462 379.266 727.528 379.359 727.593 379.452 727.664 379.541 727.739 379.628 727.814 379.714 727.894 379.797 727.977 379.876 728.061 379.955 728.148 380.029 728.24 380.1 728.332 380.172 728.427 380.238 728.526 380.299 728.624 380.362 728.725 380.419 728.83 380.472 728.934 380.525 729.041 380.573 729.151 380.615 729.26 380.658 729.371 380.695 729.484 380.728 729.598 380.76 729.713 380.787 729.829 380.809 729.944 380.831 730.061 380.847 730.179 380.858 730.297 380.869 730.416 380.874 730.534 380.874 730.652 380.874 730.77 380.869 730.888 380.858 731.006 380.847 731.123 380.831 731.239 380.809 731.356 380.787 731.471 380.76 731.584 380.728 731.697 380.695 731.808 380.658 731.918 380.615 732.027 380.573 732.134 380.525 732.239 380.472 732.343 380.419 732.445 380.362 732.543 380.299 732.642 380.238 732.736 380.172 732.828 380.1 732.919 380.029 733.007 379.955 733.091 379.876 733.175 379.797 733.254 379.714 733.329 379.628 733.404 379.541 733.474 379.452 733.541 379.359 733.606 379.266 733.667 379.171 733.723 379.072 733.778 378.974 733.829 378.873 733.874 378.77 733.92 378.667 733.959 378.561 733.995 378.455 734.029 378.348 734.058 378.24 734.08 378.13 734.103 378.021 734.121 377.91 734.132 377.799 734.144 377.688 734.149 377.576 734.149 377.465 734.149 377.354 734.144 377.242 734.132 377.131 734.121 377.02 734.103 376.91 734.08 376.8 734.058 376.691 734.029 376.582 733.995 376.475 733.959 376.368 733.92 376.263 733.874 376.16 733.829 376.057 733.778 375.956 733.723 375.858 733.667 375.759 733.606 375.663 733.541 375.57 733.474 375.478 733.404 375.388 733.329 375.302 733.254 375.215 733.175 375.133 733.091 375.054 733.007 374.975 732.919 374.901 732.828 374.829 732.736 374.758 732.642 374.692 732.543 374.63 732.445 374.568 732.343 374.51 732.239 374.458 732.134 374.406 732.027 374.358 731.918 374.315 731.808 374.272 731.697 374.234 731.584 374.203 731.471 374.17 731.356 374.142 731.239 374.121 731.123 374.099 731.006 374.083 730.888 374.072 730.77 374.061 730.652 374.056 730.534 374.056Z" fill="#FFFFFF" fill-rule="nonzero" fill-opacity="1"/></g></g></g></g></svg>