<svg width="289" height="288" xmlns="http://www.w3.org/2000/svg" xmlns:xlink="http://www.w3.org/1999/xlink" overflow="hidden"><defs><clipPath id="clip0"><rect x="453" y="216" width="289" height="288"/></clipPath><clipPath id="clip1"><rect x="454" y="216" width="288" height="288"/></clipPath><clipPath id="clip2"><rect x="454" y="216" width="288" height="288"/></clipPath><clipPath id="clip3"><rect x="454" y="216" width="288" height="288"/></clipPath><clipPath id="clip4"><rect x="545" y="297" width="105" height="62"/></clipPath><clipPath id="clip5"><rect x="628" y="317" width="9" height="13"/></clipPath><clipPath id="clip6"><path d="M629.164 316.599 635.731 317.535 634.075 329.157 627.508 328.218Z" fill-rule="nonzero" clip-rule="nonzero"/></clipPath><clipPath id="clip7"><path d="M629.164 316.599 635.731 317.535 634.075 329.157 627.508 328.218Z" fill-rule="nonzero" clip-rule="nonzero"/></clipPath><clipPath id="clip8"><rect x="546" y="297" width="104" height="62"/></clipPath><clipPath id="clip9"><rect x="583" y="329" width="9" height="14"/></clipPath><clipPath id="clip10"><path d="M591.172 341.802 584.545 342.117 583.987 330.393 590.614 330.078Z" fill-rule="nonzero" clip-rule="nonzero"/></clipPath><clipPath id="clip11"><path d="M591.172 341.802 584.545 342.117 583.987 330.393 590.614 330.078Z" fill-rule="nonzero" clip-rule="nonzero"/></clipPath></defs><g clip-path="url(#clip0)" transform="translate(-453 -216)"><g clip-path="url(#clip1)"><g clip-path="url(#clip2)"><g clip-path="url(#clip3)"><path d="M454 216 742 216 742 504 454 504Z" fill="#FFFFFF" fill-rule="nonzero" fill-opacity="1"/><path d="M454 216 742 216 742 504 454 504Z" fill="#FFFFFF" fill-rule="nonzero" fill-opacity="1"/><path d="M454 216 742 216 742 504 454 504Z" fill="#FFFFFF" fill-rule="nonzero" fill-opacity="1"/><path d="M572.997 368.365C574.125 368.365 575.169 368.671 576.129 369.277 577.095 369.886 577.86 370.714 578.421 371.761 578.988 372.802 579.273 373.954 579.273 375.217 579.273 376.474 578.988 377.638 578.421 378.709 577.86 379.774 577.095 380.617 576.129 381.241 575.169 381.859 574.125 382.165 572.997 382.165L566.973 382.165 566.973 389.245C566.973 389.671 566.832 390.034 566.553 390.337 566.28 390.634 565.929 390.781 565.497 390.781 565.047 390.781 564.693 390.637 564.429 390.349 564.165 390.061 564.033 389.695 564.033 389.245L564.033 369.901C564.033 369.469 564.18 369.106 564.477 368.809 564.771 368.515 565.137 368.365 565.569 368.365ZM572.997 379.249C573.573 379.249 574.104 379.066 574.593 378.697 575.088 378.322 575.481 377.827 575.769 377.209 576.057 376.585 576.201 375.922 576.201 375.217 576.201 374.131 575.883 373.207 575.253 372.445 574.62 371.686 573.867 371.305 572.997 371.305L566.973 371.305 566.973 379.249Z" fill="#000000" fill-rule="nonzero" fill-opacity="1"/><path d="M596.791 387.805C597.238 387.805 597.607 387.946 597.895 388.225 598.183 388.498 598.327 388.858 598.327 389.305 598.327 389.737 598.183 390.094 597.895 390.373 597.607 390.646 597.238 390.781 596.791 390.781L585.967 390.781C585.517 390.781 585.151 390.634 584.863 390.337 584.575 390.034 584.431 389.671 584.431 389.245L584.431 369.901C584.431 369.469 584.578 369.106 584.875 368.809 585.169 368.515 585.553 368.365 586.027 368.365 586.45 368.365 586.819 368.515 587.131 368.809 587.443 369.106 587.599 369.469 587.599 369.901L587.599 387.805Z" fill="#000000" fill-rule="nonzero" fill-opacity="1"/><path d="M606.396 389.209C606.396 389.659 606.234 390.034 605.916 390.337 605.595 390.634 605.22 390.781 604.788 390.781 604.323 390.781 603.948 390.634 603.66 390.337 603.372 390.034 603.228 389.659 603.228 389.209L603.228 369.901C603.228 369.469 603.375 369.106 603.672 368.809 603.966 368.515 604.35 368.365 604.824 368.365 605.247 368.365 605.616 368.515 605.928 368.809 606.24 369.106 606.396 369.469 606.396 369.901Z" fill="#000000" fill-rule="nonzero" fill-opacity="1"/><path d="M633.262 379.573C633.262 381.727 632.797 383.677 631.87 385.429 630.94 387.181 629.653 388.567 628.006 389.581 626.365 390.598 624.508 391.105 622.438 391.105 620.365 391.105 618.505 390.598 616.858 389.581 615.217 388.567 613.933 387.181 613.006 385.429 612.076 383.677 611.614 381.727 611.614 379.573 611.614 377.413 612.076 375.463 613.006 373.717 613.933 371.965 615.217 370.582 616.858 369.565 618.505 368.551 620.365 368.041 622.438 368.041 624.508 368.041 626.365 368.551 628.006 369.565 629.653 370.582 630.94 371.965 631.87 373.717 632.797 375.463 633.262 377.413 633.262 379.573ZM629.962 379.573C629.962 377.974 629.641 376.531 629.002 375.241 628.36 373.945 627.469 372.931 626.326 372.193 625.18 371.458 623.884 371.089 622.438 371.089 620.98 371.089 619.681 371.455 618.538 372.181 617.401 372.901 616.513 373.909 615.874 375.205 615.232 376.495 614.914 377.95 614.914 379.573 614.914 381.175 615.232 382.621 615.874 383.917 616.513 385.207 617.401 386.218 618.538 386.953 619.681 387.691 620.98 388.057 622.438 388.057 623.884 388.057 625.18 387.691 626.326 386.953 627.469 386.218 628.36 385.207 629.002 383.917 629.641 382.621 629.962 381.175 629.962 379.573Z" fill="#000000" fill-rule="nonzero" fill-opacity="1"/><g clip-path="url(#clip4)"><path d="M627.472 321.321C624.253 307.848 612.142 297.789 597.694 297.789 583.246 297.789 571.132 307.848 567.916 321.321 555.796 322.638 546.157 324.906 546.157 328.428 546.157 331.95 555.796 334.221 567.916 335.535 571.135 349.008 583.249 359.067 597.694 359.067 612.142 359.067 624.253 349.008 627.472 335.535 639.592 334.221 649.231 331.953 649.231 328.428 649.231 324.903 639.592 322.638 627.472 321.321ZM567.526 333.627C555.148 332.214 548.014 330.096 548.014 328.428 548.014 326.763 555.148 324.642 567.526 323.229 567.235 324.924 567.052 326.652 567.052 328.428 567.052 330.204 567.235 331.932 567.526 333.627ZM597.694 357.21C584.35 357.21 573.133 348.075 569.884 335.736 578.968 336.63 589.183 337.017 597.694 337.017 606.205 337.017 616.42 336.63 625.504 335.736 622.258 348.075 611.038 357.21 597.694 357.21ZM625.954 333.834C618.241 334.635 608.692 335.16 597.694 335.16 586.693 335.16 577.147 334.632 569.434 333.834 569.101 332.082 568.906 330.276 568.906 328.428 568.906 326.58 569.101 324.777 569.434 323.022 569.557 322.377 569.719 321.747 569.884 321.12 573.133 308.784 584.35 299.643 597.694 299.643 611.038 299.643 622.258 308.784 625.504 321.12 625.669 321.747 625.831 322.377 625.954 323.022 626.287 324.777 626.479 326.58 626.479 328.428 626.479 330.276 626.287 332.082 625.954 333.834ZM627.862 333.627C628.153 331.932 628.336 330.204 628.336 328.428 628.336 326.652 628.153 324.924 627.862 323.229 640.24 324.642 647.374 326.763 647.374 328.428 647.374 330.096 640.24 332.214 627.862 333.627Z" fill="#8B52FF" fill-rule="nonzero" fill-opacity="1"/></g><path d="M585.967 314.403C584.305 314.403 582.952 315.759 582.952 317.421 582.952 319.086 584.305 320.439 585.967 320.439 587.632 320.439 588.985 319.086 588.985 317.421 588.985 315.759 587.632 314.403 585.967 314.403ZM585.967 319.512C584.815 319.512 583.879 318.573 583.879 317.421 583.879 316.269 584.815 315.333 585.967 315.333 587.119 315.333 588.058 316.269 588.058 317.421 588.058 318.573 587.119 319.512 585.967 319.512Z" fill="#8B52FF" fill-rule="nonzero" fill-opacity="1"/><path d="M597.886 307.905C596.989 307.905 596.26 308.634 596.26 309.531 596.26 310.425 596.989 311.154 597.886 311.154 598.783 311.154 599.512 310.425 599.512 309.531 599.512 308.634 598.783 307.905 597.886 307.905ZM597.886 310.227C597.502 310.227 597.19 309.915 597.19 309.531 597.19 309.144 597.499 308.832 597.886 308.832 598.27 308.832 598.582 309.144 598.582 309.531 598.582 309.915 598.27 310.227 597.886 310.227Z" fill="#8B52FF" fill-rule="nonzero" fill-opacity="1"/><path d="M605.623 323.847C603.448 323.847 601.675 325.617 601.675 327.792 601.675 329.967 603.448 331.737 605.623 331.737 607.798 331.737 609.568 329.967 609.568 327.792 609.568 325.617 607.798 323.847 605.623 323.847ZM605.623 330.81C603.958 330.81 602.605 329.457 602.605 327.792 602.605 326.13 603.958 324.777 605.623 324.777 607.285 324.777 608.638 326.13 608.638 327.792 608.638 329.457 607.288 330.81 605.623 330.81Z" fill="#8B52FF" fill-rule="nonzero" fill-opacity="1"/><g clip-path="url(#clip5)"><g clip-path="url(#clip6)"><g clip-path="url(#clip7)"><path d="M633.127 329.022 628.555 322.908C628.339 322.62 628.399 322.209 628.684 321.993L634.783 317.4 635.56 318.444 629.983 322.644 634.165 328.239Z" fill="#8B52FF" fill-rule="nonzero" fill-opacity="1"/></g></g></g><path d="M597.616 359.949C589.171 359.949 581.218 356.661 575.248 350.682 569.266 344.712 565.978 336.759 565.978 328.311 565.978 319.863 569.266 311.91 575.248 305.943 581.218 299.961 589.171 296.673 597.616 296.673 606.064 296.673 614.017 299.961 619.987 305.943 625.969 311.922 629.254 319.863 629.254 328.311 629.254 336.759 625.969 344.712 619.987 350.682 614.017 356.661 606.064 359.949 597.616 359.949ZM597.616 298.569C589.675 298.569 582.202 301.668 576.589 307.284 570.973 312.897 567.877 320.37 567.877 328.311 567.877 336.252 570.973 343.725 576.589 349.341 582.202 354.954 589.675 358.053 597.616 358.053 605.56 358.053 613.033 354.954 618.646 349.341 624.262 343.725 627.358 336.252 627.358 328.311 627.358 320.37 624.262 312.897 618.646 307.284 613.033 301.668 605.56 298.569 597.616 298.569Z" fill="#8B52FF" fill-rule="nonzero" fill-opacity="1"/><g clip-path="url(#clip8)"><path d="M568.528 321.321C571.744 307.848 583.855 297.789 598.303 297.789 612.751 297.789 624.865 307.848 628.081 321.321 640.201 322.638 649.84 324.906 649.84 328.428 649.84 331.95 640.201 334.221 628.081 335.535 624.862 349.008 612.751 359.067 598.303 359.067 583.855 359.067 571.744 349.008 568.528 335.535 556.405 334.221 546.766 331.953 546.766 328.428 546.766 324.903 556.405 322.638 568.528 321.321ZM628.471 333.627C640.849 332.214 647.983 330.096 647.983 328.428 647.983 326.763 640.849 324.642 628.471 323.229 628.762 324.924 628.948 326.652 628.948 328.428 628.948 330.204 628.762 331.932 628.471 333.627ZM598.303 357.21C611.647 357.21 622.867 348.075 626.113 335.736 617.029 336.63 606.817 337.017 598.303 337.017 589.792 337.017 579.577 336.63 570.496 335.736 573.742 348.075 584.962 357.21 598.303 357.21ZM570.046 333.834C577.759 334.635 587.305 335.16 598.303 335.16 609.304 335.16 618.85 334.632 626.563 333.834 626.899 332.082 627.091 330.276 627.091 328.428 627.091 326.58 626.899 324.777 626.563 323.022 626.44 322.377 626.281 321.747 626.113 321.12 622.867 308.784 611.647 299.643 598.303 299.643 584.962 299.643 573.742 308.784 570.496 321.12 570.328 321.747 570.169 322.377 570.046 323.022 569.71 324.777 569.518 326.58 569.518 328.428 569.518 330.276 569.71 332.082 570.046 333.834ZM568.138 333.627C567.844 331.932 567.661 330.204 567.661 328.428 567.661 326.652 567.844 324.924 568.138 323.229 555.76 324.642 548.626 326.763 548.626 328.428 548.626 330.096 555.76 332.214 568.138 333.627Z" fill="#8B52FF" fill-rule="nonzero" fill-opacity="1"/></g><path d="M610.03 314.403C611.692 314.403 613.048 315.759 613.048 317.421 613.048 319.086 611.692 320.439 610.03 320.439 608.368 320.439 607.012 319.086 607.012 317.421 607.012 315.759 608.365 314.403 610.03 314.403ZM610.03 319.512C611.182 319.512 612.121 318.573 612.121 317.421 612.121 316.269 611.182 315.333 610.03 315.333 608.878 315.333 607.942 316.269 607.942 317.421 607.942 318.573 608.878 319.512 610.03 319.512Z" fill="#8B52FF" fill-rule="nonzero" fill-opacity="1"/><path d="M598.111 307.905C599.008 307.905 599.737 308.634 599.737 309.531 599.737 310.425 599.008 311.154 598.111 311.154 597.217 311.154 596.488 310.425 596.488 309.531 596.488 308.634 597.217 307.905 598.111 307.905ZM598.111 310.227C598.495 310.227 598.81 309.915 598.81 309.531 598.81 309.144 598.498 308.832 598.111 308.832 597.727 308.832 597.415 309.144 597.415 309.531 597.415 309.915 597.727 310.227 598.111 310.227Z" fill="#8B52FF" fill-rule="nonzero" fill-opacity="1"/><path d="M590.374 323.847C592.549 323.847 594.322 325.617 594.322 327.792 594.322 329.967 592.549 331.737 590.374 331.737 588.199 331.737 586.429 329.967 586.429 327.792 586.429 325.617 588.199 323.847 590.374 323.847ZM590.374 330.81C592.039 330.81 593.392 329.457 593.392 327.792 593.392 326.13 592.039 324.777 590.374 324.777 588.712 324.777 587.359 326.13 587.359 327.792 587.359 329.457 588.712 330.81 590.374 330.81Z" fill="#8B52FF" fill-rule="nonzero" fill-opacity="1"/><path d="M3.05357-0.000937351 5.12057-0.000937351" stroke="#FFFFFF" stroke-width="6.10636" stroke-linecap="round" stroke-linejoin="miter" stroke-miterlimit="4" stroke-opacity="1" fill="none" fill-rule="nonzero" transform="matrix(1 0 0 1.00284 589.454 336.19)"/><path d="M597.628 323.943C597.829 323.943 598.027 323.961 598.225 324 598.42 324.042 598.612 324.099 598.798 324.177 598.981 324.252 599.158 324.348 599.323 324.459 599.491 324.57 599.644 324.696 599.788 324.84 599.929 324.981 600.055 325.137 600.166 325.302 600.277 325.47 600.373 325.647 600.448 325.833 600.526 326.019 600.583 326.211 600.622 326.406 600.661 326.604 600.682 326.802 600.682 327.003L600.682 345.375C600.682 345.576 600.661 345.777 600.622 345.972 600.583 346.17 600.526 346.362 600.448 346.548 600.373 346.734 600.277 346.908 600.166 347.076 600.055 347.244 599.929 347.397 599.788 347.541 599.644 347.682 599.491 347.811 599.323 347.922 599.158 348.033 598.981 348.126 598.798 348.204 598.612 348.282 598.42 348.339 598.225 348.378 598.027 348.417 597.829 348.438 597.628 348.438 597.427 348.438 597.229 348.417 597.034 348.378 596.836 348.339 596.644 348.282 596.461 348.204 596.275 348.126 596.098 348.033 595.933 347.922 595.765 347.811 595.612 347.682 595.468 347.541 595.327 347.397 595.201 347.244 595.09 347.076 594.979 346.908 594.883 346.734 594.808 346.548 594.73 346.362 594.673 346.17 594.634 345.972 594.595 345.777 594.574 345.576 594.574 345.375L594.574 327.003C594.574 326.802 594.595 326.604 594.634 326.406 594.673 326.211 594.73 326.019 594.808 325.833 594.883 325.647 594.979 325.47 595.09 325.302 595.201 325.137 595.327 324.981 595.468 324.84 595.612 324.696 595.765 324.57 595.933 324.459 596.098 324.348 596.275 324.252 596.461 324.177 596.644 324.099 596.836 324.042 597.034 324 597.229 323.961 597.427 323.943 597.628 323.943Z" fill="#FFFFFF" fill-rule="nonzero" fill-opacity="1"/><g clip-path="url(#clip9)"><g clip-path="url(#clip10)"><g clip-path="url(#clip11)"><path d="M584.944 330.348 590.584 335.493C590.848 335.736 590.869 336.15 590.629 336.414L585.502 342.072 584.542 341.196 589.231 336.021 584.071 331.314Z" fill="#8B52FF" fill-rule="nonzero" fill-opacity="1"/></g></g></g><path d="M591.166 322.782C590.818 322.782 590.476 322.815 590.137 322.878 589.795 322.944 589.465 323.037 589.144 323.163 588.823 323.286 588.52 323.442 588.232 323.622 587.944 323.805 587.677 324.012 587.431 324.243 587.185 324.474 586.966 324.726 586.774 324.996 586.582 325.269 586.42 325.554 586.285 325.857 586.153 326.16 586.054 326.472 585.985 326.793 585.919 327.114 585.883 327.438 585.883 327.765 585.883 328.092 585.919 328.413 585.985 328.734 586.054 329.055 586.153 329.367 586.285 329.67 586.42 329.973 586.582 330.258 586.774 330.531 586.966 330.801 587.185 331.053 587.431 331.284 587.677 331.515 587.944 331.722 588.232 331.905 588.52 332.085 588.823 332.241 589.144 332.364 589.465 332.49 589.795 332.583 590.137 332.649 590.476 332.712 590.818 332.745 591.166 332.745 591.514 332.745 591.856 332.712 592.198 332.649 592.537 332.583 592.867 332.49 593.188 332.364 593.509 332.241 593.812 332.085 594.1 331.905 594.388 331.722 594.655 331.515 594.901 331.284 595.147 331.053 595.366 330.801 595.558 330.531 595.75 330.258 595.912 329.973 596.047 329.67 596.179 329.367 596.278 329.055 596.347 328.734 596.413 328.413 596.449 328.092 596.449 327.765 596.449 327.438 596.413 327.114 596.347 326.793 596.278 326.472 596.179 326.16 596.047 325.857 595.912 325.554 595.75 325.269 595.558 324.996 595.366 324.726 595.147 324.474 594.901 324.243 594.655 324.012 594.388 323.805 594.1 323.622 593.812 323.442 593.509 323.286 593.188 323.163 592.867 323.037 592.537 322.944 592.198 322.878 591.856 322.815 591.514 322.782 591.166 322.782Z" fill="#FFFFFF" fill-rule="nonzero" fill-opacity="1"/><path d="M611.197 311.619C610.849 311.619 610.507 311.652 610.165 311.715 609.826 311.778 609.496 311.874 609.175 311.997 608.854 312.123 608.551 312.276 608.263 312.459 607.975 312.639 607.708 312.846 607.462 313.077 607.216 313.308 606.997 313.56 606.805 313.833 606.613 314.103 606.448 314.391 606.316 314.694 606.184 314.997 606.085 315.306 606.016 315.627 605.95 315.948 605.914 316.272 605.914 316.599 605.914 316.926 605.95 317.25 606.016 317.571 606.085 317.892 606.184 318.204 606.316 318.504 606.448 318.807 606.613 319.095 606.805 319.365 606.997 319.638 607.216 319.89 607.462 320.121 607.708 320.352 607.975 320.559 608.263 320.742 608.551 320.922 608.854 321.075 609.175 321.201 609.496 321.327 609.826 321.42 610.165 321.483 610.507 321.549 610.849 321.579 611.197 321.579 611.542 321.579 611.887 321.549 612.226 321.483 612.568 321.42 612.898 321.327 613.219 321.201 613.537 321.075 613.843 320.922 614.131 320.742 614.419 320.559 614.686 320.352 614.932 320.121 615.175 319.89 615.394 319.638 615.589 319.365 615.781 319.095 615.943 318.807 616.075 318.504 616.21 318.204 616.309 317.892 616.378 317.571 616.444 317.25 616.477 316.926 616.477 316.599 616.477 316.272 616.444 315.948 616.378 315.627 616.309 315.306 616.21 314.997 616.075 314.694 615.943 314.391 615.781 314.103 615.589 313.833 615.394 313.56 615.175 313.308 614.932 313.077 614.686 312.846 614.419 312.639 614.131 312.459 613.843 312.276 613.537 312.123 613.219 311.997 612.898 311.874 612.568 311.778 612.226 311.715 611.887 311.652 611.542 311.619 611.197 311.619Z" fill="#FFFFFF" fill-rule="nonzero" fill-opacity="1"/></g></g></g></g></svg>